<?xml version="1.0" encoding="UTF-8"?>
<svg id="Capa_2" data-name="Capa 2" xmlns="http://www.w3.org/2000/svg" xmlns:xlink="http://www.w3.org/1999/xlink" viewBox="0 0 809.6 963.03">
  <defs>
    <style>
      .cls-1 {
        fill: url(#Degradado_sin_nombre_34);
      }
    </style>
    <linearGradient id="Degradado_sin_nombre_34" data-name="Degradado sin nombre 34" x1="460.02" y1="1855.77" x2="460.02" y2="1238.71" gradientTransform="translate(-144.74 2905.01) rotate(-1.63) scale(1.32 -1.56) skewX(.29)" gradientUnits="userSpaceOnUse">
      <stop offset=".09" stop-color="#522879"/>
      <stop offset=".26" stop-color="#502a7b" stop-opacity=".97"/>
      <stop offset=".42" stop-color="#4c3281" stop-opacity=".88"/>
      <stop offset=".56" stop-color="#453f8d" stop-opacity=".73"/>
      <stop offset=".71" stop-color="#3c529c" stop-opacity=".52"/>
      <stop offset=".84" stop-color="#306ab0" stop-opacity=".26"/>
      <stop offset=".95" stop-color="#2581c4" stop-opacity="0"/>
    </linearGradient>
  </defs>
  <g id="Capa_1-2" data-name="Capa 1">
    <path class="cls-1" d="M484.68,957.91c134.46-1.76,206.96-238.78,324.92-499.8-2.47-2.66-6.62-6.49-13.15-9.93-5.58-2.94-7.74-2.88-11.8-5.22-7.85-4.53-10.4-10.88-12.43-16.2-3.85-10.07-4.14-18.9-6.45-26.36-2.95-9.53-15.18-17.39-24.39-21.08-34.31-13.74-39.87-7.67-61.04-21.28-25.39-16.32-27.31-43.72-27.94-71.58-.26-11.65,.54-20.07,3.96-41.29,3.21-19.93-3.51-59.12-21.03-83.54-8.05-11.23-20.21-21.81-38.33-30.31-10.9-5.12-27.28-8.5-40.46-8.66-8.5-.11-27.9,4.85-39.91-3.29-14.46-9.8,.18-29.91-20.25-48.7-7.23-6.65-17.22-11.29-20.1-12.62-17.65-8.19-26.83-6.24-35.22-13.77-6.85-6.14-2.39-8.93-10.21-18.58-8.45-10.44-14.54-8.25-20.47-16.32-2.01-2.74-1.18-3.96-2.92-5.84-4.41-4.76-13.13-4.71-17.4,.11-1.69,1.9-.83,3.12-2.77,5.91-5.72,8.22-11.85,6.19-20.03,16.85-7.56,9.85-3.03,12.52-9.72,18.84-8.19,7.74-17.42,6.03-34.85,14.69-2.84,1.41-12.71,6.31-19.76,13.15-19.93,19.33-4.77,39.04-18.96,49.22-11.78,8.45-31.31,4-39.81,4.33-13.17,.51-29.45,4.31-40.22,9.72-17.88,8.98-29.76,19.87-37.52,31.31-16.88,24.87-22.56,64.23-18.83,84.07,3.97,21.13,5,29.52,5.04,41.17,.1,27.87-1.1,55.3-26.06,72.28-20.8,14.16-26.52,8.23-60.46,22.87-9.11,3.93-21.13,12.12-23.83,21.72-2.11,7.52-2.18,16.35-5.76,26.52-1.89,5.37-4.27,11.78-12,16.52-4,2.45-6.16,2.45-11.66,5.53-6.44,3.61-11.1,13.63-12.89,10.27,147.39,277.47,185.95,496.17,320.4,494.41l164.28-5.11Z"/>
  </g>
</svg>