<?xml version="1.0" encoding="UTF-8"?>
<svg id="Capa_2" data-name="Capa 2" xmlns="http://www.w3.org/2000/svg" xmlns:xlink="http://www.w3.org/1999/xlink" viewBox="0 0 808.33 491.09">
  <defs>
    <style>
      .cls-1 {
        fill: #e27fa6;
      }

      .cls-2 {
        fill: #c17027;
      }

      .cls-3 {
        fill: #0b3860;
      }

      .cls-4 {
        fill: #f9b160;
      }

      .cls-5 {
        fill: #da6122;
      }

      .cls-6 {
        fill: #29235c;
      }

      .cls-7 {
        fill: #8c3813;
      }

      .cls-8 {
        clip-path: url(#clippath);
      }

      .cls-9 {
        fill: #004aad;
      }

      .cls-10 {
        fill: none;
      }

      .cls-11 {
        fill: #5e71b4;
      }

      .cls-12 {
        fill: #a05272;
      }
    </style>
    <clipPath id="clippath">
      <rect class="cls-10" width="808.33" height="491.09"/>
    </clipPath>
  </defs>
  <g id="Capa_8" data-name="Capa 8">
    <g class="cls-8">
      <path class="cls-7" d="M404.51,6.18c-.47,2.78-1.02,6.78-1.22,11.6-1,24.35,8.07,42.75,11.31,49.14,14.56,28.68,38.35,42.09,46.77,46.34,5.58,2.81,23.82,11.37,48.91,11.2,10.97-.08,29.39-1.87,49.22-12.13,24.23-12.54,36.98-30.7,40.35-35.76,19.66-29.5,18.53-60.26,17.73-70.37h-213.07Z"/>
      <path class="cls-5" d="M410.45,0c-.44,2.78-.94,6.78-1.12,11.6-.92,24.35,7.41,42.75,10.38,49.14,13.37,28.68,35.2,42.09,42.94,46.34,5.12,2.81,21.86,11.37,44.9,11.2,10.07-.08,26.98-1.87,45.18-12.13,22.24-12.54,33.94-30.7,37.04-35.76,18.05-29.5,17.01-60.26,16.28-70.37h-195.59Z"/>
      <path class="cls-12" d="M420.9,0c.06,1.29,.27,3.35,1.02,5.72,2.2,6.97,8.3,14.15,31.73,24.05,19.68,8.32,20.29,5.33,28.3,10.75,13.78,9.33,11.03,17.56,22.18,26.87,19.2,16.04,38.97,1.33,52.77,15.35,12.18,12.37-.41,26.68,11.47,45.3,10.22,16.01,22.21,9.63,51.24,29.94,15.76,11.03,32.59,22.81,40.53,43.76,5.38,14.2,2.39,21.33,10.71,31.48,8.4,10.25,14.7,6.96,30.59,18.43,8.43,6.08,24.56,17.72,27.53,35.32,1.86,11.01-3.12,14.38,.76,23.03,4.97,11.08,14.95,9.64,19.88,19.96,5.2,10.9-3.95,16.64-.76,29.17,4.17,16.44,21.2,11.68,32.12,32.24,8.69,16.36,8.91,40.1,8.7,43.21-.02,.27-.12,1.63-.05,3.47,.07,1.92,.33,4.43,1.1,7.23,1.59,5.86,4.87,9.85,6.61,11.71,4.24,4.52,8.88,6.46,11.25,7.26l-.53-464.25H420.9Z"/>
      <path class="cls-3" d="M623.87,205.09c29.9,29.38,44.85,44.07,53.13,51.77,19.78,18.38,29.67,27.58,32.14,29.66,9.11,7.68,17.48,14.15,28.07,25.73,10.09,11.02,13.46,17.12,15.36,21.15,3.39,7.2,2.86,9.41,6.6,15.86,1.08,1.87,4.89,8.4,15.64,17.45,18.77,15.8,30.07,14.21,32.99,25.22,.4,1.51,.49,2.37,.46,13.03-.03,12.18-.18,20.45,0,25.1,.34,8.85,.6,28.23,.14,48.17-10.94-4.44-17.21-10.47-20.32-15.03-2.76-4.05-4.18-9.45-7.9-19.96-6.23-17.58-6.48-20.33-10.36-27.89-5.63-10.99-10.14-15.04-11.54-16.23-5.21-4.47-7.83-4.28-14.36-8.12-12.06-7.1-18.86-17.03-21.28-20.92-5.15-8.27-10.8-17.36-8.48-27.01,1.04-4.33,3.34-7.29,2.06-11.86-.84-2.99-3.27-6.91-6.91-9.44-2.37-1.65-4.48-2.18-6.54-4.95-.69-.92-.81-1.34-2.04-3.64,0,0-1.08-2-3.98-6.84-3.16-5.26-11.25-9.54-16.51-13.89-7.9-6.54-11.36-14.84-15.38-24.51-4.49-10.8-3-13.42-7.8-19.51-3.74-4.75-8.2-7.67-14.33-11.68-7.54-4.94-8.99-4.44-15-8.91-4.91-3.64-8.86-6.58-11.81-11.69-3.99-6.93-1.63-10.05-4.88-17.75-2.28-5.41-5.87-8.86-12.96-15.54-5.06-4.76-12.33-10.93-22.01-17.12,2.99,.82,7.29,2.21,12.19,4.56,5.81,2.78,13.14,6.29,19.12,13.48,3.78,4.54,3.4,6.19,8.95,13.09,3.17,3.94,5.89,6.63,7.52,8.23Z"/>
      <path class="cls-6" d="M276.79,184.92c-11.86,6.83-62.28,33.62-75.34,40.68-25.79,13.94-21.51,13.48-41.23,23.49-7.69,3.9-22.42,11.12-40.09,22.09-13.27,8.24-17.79,12.14-21.32,17.62-1.75,2.73-4.33,7.5-9.57,13.66-1.27,1.5-4.03,4.71-7.53,7.79-6.26,5.49-12.31,8.27-19.28,11.23-12.41,5.28-14.87,5.68-31.4,12.26-7.99,3.18-14.63,5.96-22.72,10.72-3.4,2-6.14,3.81-8.02,5.11v93.45c2.1-.62,5.12-1.72,8.4-3.7,5.38-3.25,8.23-6.96,12.89-12.77,12.08-15.06,10.35-11.93,13.38-16.31,6.26-9.06,7.81-13.59,15.71-24.08,1.07-1.42,2.23-2.85,3.65-4.49,9.37-10.83,15.57-14.15,17.48-15.11,7.11-3.61,10-2.66,18.42-5.2,15.55-4.68,25.95-13.99,29.76-17.71,8.08-7.91,16.96-16.59,17-28.1,.02-5.17-1.75-9.14,.94-13.93,1.77-3.14,5.59-6.88,10.39-8.74,3.12-1.21,5.65-1.23,8.74-3.78,1.03-.85,1.28-1.29,3.31-3.54,0,0,1.76-1.96,6.38-6.61,5.01-5.05,15.31-7.65,22.44-11.1,10.71-5.19,16.89-13.59,24.09-23.38,8.04-10.94,7.08-14.3,14.17-19.84,5.53-4.32,11.36-6.38,19.37-9.21,9.86-3.48,11.35-2.53,19.37-5.9,6.54-2.75,11.8-4.97,16.53-9.92,6.41-6.71,4.61-10.88,10.39-18.66,4.07-5.47,9.06-8.36,18.89-13.93,7.01-3.97,16.91-8.92,29.52-13.23-3.59,.1-8.82,.48-15,1.77-7.31,1.53-16.54,3.47-25.27,9.92-5.51,4.07-5.54,6.04-13.7,12.28-4.44,3.4-8.26,5.77-10.75,7.2Z"/>
      <path class="cls-2" d="M433.04-.02c.21,3.66,.2,8.49-.66,14.07-.43,2.84-1.7,9.92-5.5,18.27-2.72,5.98-10.03,21.99-27.39,31.46-7.09,3.87-12.95,5.24-16.85,6.12-2.4,.54-8.18,1.78-25.88,2.02-10.82,.15-17.96-.53-22.67-.4-13.72,.37-22.7,10.47-28.05,15.22-10.43,9.27-16.03,19.7-18.09,23.59-3.62,6.88-4.57,10.53-9.7,18.65-2.37,3.76-4.18,7.06-9.08,11.24-6.32,5.38-11.93,5.29-18.7,9.31-11.53,6.85-15.11,16.72-17.3,24.23-2.43,8.31-2.88,10.53-6.16,21.69-1.73,5.91-4.95,10.51-10.42,15.13-5.9,4.98-13.56,6.38-16.02,6.75-2.27,.34-9.36,1.74-17.01-1.52-8.91-3.81-10.75-7.67-17.3-11.32-9.24-5.14-19.41-2.8-29-1.14-8.4,1.45-14.45,3.01-24.61,7.58-12.25,5.51-18.81,9.19-26.11,15.16-10.73,8.76-16.14,18.31-17.2,20.17-4.72,8.25-4.79,10.45-8.85,21.12-3.28,8.63-8.93,13.44-19.76,16.93-1.74,.56-5.35,1.28-12.59,2.73-7.81,1.56-8.99,1.57-12,2.34-4.08,1.05-9.71,3.05-16.14,7.24C.13,197.75,.27,98.86,.4-.02H433.04Z"/>
      <path class="cls-1" d="M445.68,0c.06,1.29,.25,3.35,.95,5.72,2.06,6.97,7.77,14.15,29.7,24.05,18.42,8.32,19,5.33,26.49,10.75,12.9,9.33,10.33,17.56,20.76,26.87,17.97,16.04,36.48,1.33,49.4,15.35,11.4,12.37-.38,26.68,10.74,45.3,9.57,16.01,20.79,9.63,47.96,29.94,14.75,11.03,30.51,22.81,37.94,43.76,5.04,14.2,2.24,21.33,10.02,31.48,7.86,10.25,13.76,6.96,28.64,18.43,7.89,6.08,22.99,17.72,25.77,35.32,1.74,11.01-2.92,14.38,.72,23.03,4.65,11.08,14,9.64,18.61,19.96,4.87,10.9-3.69,16.64-.72,29.17,3.91,16.44,19.85,11.68,30.07,32.24,8.13,16.36,8.34,40.1,8.15,43.21-.02,.27-.11,1.63-.05,3.47,.07,1.92,.31,4.43,1.03,7.23,1.49,5.86,4.56,9.85,6.19,11.71,3.97,4.52,8.31,6.46,10.53,7.26l-.5-464.25H445.68Z"/>
      <path class="cls-9" d="M808.33,471.94c-10.89-4.43-17.14-10.45-20.23-15.01-2.75-4.04-4.15-9.44-7.85-19.94-6.19-17.57-6.44-20.32-10.29-27.88-5.6-10.98-10.09-15.02-11.48-16.22-5.19-4.47-7.79-4.27-14.29-8.11-12.01-7.09-18.77-17.01-21.18-20.9-5.12-8.27-10.74-17.35-8.42-27,1.04-4.33,3.33-7.29,2.07-11.86-.83-2.99-3.25-6.9-6.87-9.44-2.36-1.65-4.46-2.18-6.51-4.95-.68-.92-.8-1.34-2.03-3.64,0,0-1.07-2-3.96-6.84-3.14-5.25-11.2-9.52-16.43-13.87-7.87-6.53-11.3-14.82-15.3-24.49-4.47-10.8-2.98-13.41-7.75-19.5-3.72-4.75-8.16-7.66-14.26-11.66-7.51-4.93-8.95-4.43-14.94-8.89-4.89-3.64-8.82-6.57-11.75-11.68-4.14-7.23-1.12-9.79-4.84-17.74-2.68-5.72-6.54-8.81-12.61-13.67-4.71-3.77-12.38-9.01-23.3-12.93,6.08-2.31,10.84-1.88,13.25-1.46,11.48,2,18.22,12.47,19.04,13.46,3.76,4.53,3.38,6.18,8.91,13.08,3.15,3.93,5.86,6.62,7.48,8.22,29.76,29.35,44.64,44.02,52.88,51.71,19.69,18.36,29.53,27.54,31.99,29.62,9.07,7.67,17.39,14.13,27.94,25.7,10.04,11.01,13.39,17.11,15.28,21.13,3.37,7.19,2.84,9.4,6.56,15.85,1.07,1.86,4.86,8.39,15.56,17.43,18.69,15.78,30.45,14.29,33.36,25.29v86.18Z"/>
      <path class="cls-11" d="M276.79,179.66c-41.8,24.87-62.7,37.3-74.16,43.69-27.36,15.26-41.04,22.9-44.4,24.56-12.39,6.15-23.6,11.13-38.73,21.26-14.41,9.64-19.89,15.59-23.14,19.6-5.81,7.18-5.81,9.81-11.81,16.06-6.99,7.29-13.97,10.97-22.44,15.35-4.09,2.11-12.96,5.58-30.7,12.52-7.73,3.02-15.14,5.05-23.85,11.1-3.19,2.21-5.65,4.3-7.28,5.76v93.45c2.07-1.67,4.84-4.01,7.98-6.93,1.21-1.13,6.44-6.04,13.7-14.51,4.7-5.49,8.55-9.99,12.99-16.59,6.07-9.02,8.07-13.93,15.71-24.08,1.07-1.42,2.23-2.85,3.65-4.49,9.37-10.83,15.57-14.15,17.48-15.11,7.11-3.61,10-2.66,18.42-5.2,15.55-4.68,25.95-13.99,29.76-17.71,8.08-7.91,16.96-16.59,17-28.1,.02-5.17-1.75-9.14,.94-13.93,1.77-3.14,5.59-6.88,10.39-8.74,3.12-1.21,5.65-1.23,8.74-3.78,1.03-.85,1.28-1.29,3.31-3.54,0,0,1.76-1.96,6.38-6.61,5.01-5.05,15.31-7.65,22.44-11.1,10.71-5.19,16.89-13.59,24.09-23.38,8.04-10.94,7.08-14.3,14.17-19.84,5.53-4.32,11.36-6.38,19.37-9.21,9.86-3.48,11.35-2.53,19.37-5.9,6.54-2.75,11.8-4.97,16.53-9.92,6.41-6.71,4.61-10.88,10.39-18.66,5.29-7.11,11.79-10.36,18.89-13.93,11.07-5.58,21.65-7.44,29.52-7.97-6.4-3.03-11.84-3.49-15-3.49-10.28-.01-19.24,5.47-25.27,9.92-5.51,4.07-5.54,6.04-13.7,12.28-4.66,3.56-8.46,5.85-10.75,7.2Z"/>
      <path class="cls-4" d="M427.24,0c.21,3.46,.19,8.03-.65,13.3-.43,2.69-1.68,9.38-5.43,17.27-2.69,5.65-9.89,20.79-27.01,29.74-6.99,3.66-12.77,4.95-16.61,5.78-2.37,.51-8.07,1.68-25.51,1.91-10.67,.14-17.7-.5-22.35-.38-13.52,.35-22.38,9.89-27.65,14.39-10.28,8.76-15.81,18.62-17.83,22.3-3.57,6.5-4.51,9.95-9.56,17.63-2.34,3.55-4.12,6.68-8.95,10.62-6.23,5.09-11.76,5-18.44,8.8-11.37,6.47-14.9,15.8-17.06,22.9-2.39,7.85-2.84,9.95-6.08,20.51-1.71,5.58-4.88,9.94-10.27,14.3-5.82,4.71-13.37,6.03-15.8,6.38-2.23,.33-9.22,1.65-16.77-1.44-8.79-3.6-10.6-7.26-17.06-10.7-9.11-4.86-19.13-2.65-28.59-1.08-8.28,1.37-14.25,2.85-24.26,7.16-12.08,5.21-18.54,8.69-25.75,14.33-10.58,8.29-15.91,17.31-16.96,19.07-4.65,7.79-4.73,9.88-8.72,19.97-3.23,8.15-8.8,12.71-19.48,16.01-1.71,.53-5.28,1.21-12.41,2.58-7.7,1.48-8.86,1.48-11.84,2.21-4.02,.99-9.58,2.88-15.91,6.85C.4,186.94,.54,93.45,.68-.03,142.87-.02,285.05,0,427.24,0Z"/>
    </g>
  </g>
</svg>