<?xml version="1.0" encoding="UTF-8"?>
<svg id="Capa_2" data-name="Capa 2" xmlns="http://www.w3.org/2000/svg" xmlns:xlink="http://www.w3.org/1999/xlink" viewBox="0 0 463.79 386.67">
  <defs>
    <style>
      .cls-1 {
        letter-spacing: 0em;
      }

      .cls-2 {
        fill: #fcfcfc;
      }

      .cls-2, .cls-3 {
        stroke-width: .62px;
      }

      .cls-2, .cls-3, .cls-4 {
        stroke: #fff;
        stroke-miterlimit: 10;
      }

      .cls-5 {
        letter-spacing: -.02em;
      }

      .cls-6 {
        fill: url(#Degradado_sin_nombre_10);
      }

      .cls-7 {
        letter-spacing: -.07em;
      }

      .cls-8, .cls-3, .cls-4 {
        fill: none;
      }

      .cls-9 {
        font-family: Morvem-Thin, Morvem;
        font-size: 37.52px;
      }

      .cls-10 {
        letter-spacing: -.01em;
      }

      .cls-11 {
        fill: #efefef;
      }

      .cls-12 {
        fill: #222221;
      }

      .cls-13 {
        letter-spacing: -.01em;
      }

      .cls-4 {
        stroke-width: .78px;
      }

      .cls-14 {
        fill: #c886f7;
      }
    </style>
    <linearGradient id="Degradado_sin_nombre_10" data-name="Degradado sin nombre 10" x1="324.02" y1="271.56" x2="323.31" y2="6.86" gradientUnits="userSpaceOnUse">
      <stop offset="0" stop-color="#ff19ba"/>
      <stop offset=".24" stop-color="#fc5d78"/>
      <stop offset=".51" stop-color="#faa92f"/>
      <stop offset=".64" stop-color="#f9c713"/>
      <stop offset=".83" stop-color="#f8d405"/>
      <stop offset="1" stop-color="#f8db00"/>
    </linearGradient>
  </defs>
  <g id="Capa_5" data-name="Capa 5">
    <g>
      <rect class="cls-12" x="195.98" y="87.55" width="267.81" height="299.12" rx="42.44" ry="42.44"/>
      <g>
        <rect class="cls-8" y="148.57" width="290.95" height="193.96"/>
        <rect class="cls-11" x="193.74" y="87.55" width="259" height="287.03" rx="26.59" ry="26.59"/>
        <path class="cls-14" d="M228.76,106.66h195.6c10.14,0,18.38,8.24,18.38,18.38v150.66c0,12-9.74,21.75-21.75,21.75H224.1c-11.18,0-20.26-9.08-20.26-20.26V131.57c0-13.75,11.16-24.92,24.92-24.92Z"/>
        <line class="cls-2" x1="234.42" y1="106.66" x2="237.12" y2="297.44"/>
        <line class="cls-2" x1="259.27" y1="106.66" x2="262.24" y2="297.44"/>
        <line class="cls-2" x1="287.97" y1="106.66" x2="290.95" y2="297.44"/>
        <line class="cls-2" x1="316.79" y1="106.66" x2="319.76" y2="297.44"/>
        <line class="cls-2" x1="344.85" y1="106.3" x2="347.82" y2="297.08"/>
        <line class="cls-2" x1="373.67" y1="106.66" x2="376.63" y2="297.08"/>
        <line class="cls-2" x1="404.2" y1="106.66" x2="407.17" y2="297.44"/>
        <line class="cls-2" x1="436.53" y1="111.65" x2="437.49" y2="297.44"/>
        <line class="cls-3" x1="204.17" y1="131.48" x2="442.74" y2="129.18"/>
        <line class="cls-4" x1="204.24" y1="158.57" x2="442.74" y2="156.26"/>
        <line class="cls-4" x1="204.37" y1="200.6" x2="442.74" y2="198.37"/>
        <line class="cls-4" x1="204.74" y1="240.38" x2="442.74" y2="238.16"/>
        <line class="cls-4" x1="204.15" y1="280.18" x2="442.74" y2="277.95"/>
        <path class="cls-6" d="M223.78,297.44c-.22,0-.45-.04-.65-.12-2.18-.88-3.85-2.54-3.87-5.07,0-.26,0-1.14,.24-2.31,.38-1.86,1.3-3.09,1.46-4.69,.27-2.59-.19-4.53-.44-5.76-.23-1.13-.45-4.05-.88-9.91-.13-1.78-.56-8.34,1.46-15.81,.9-3.32,2.53-9.33,7.02-15.4,1.46-1.98,2.97-3.63,3.8-6.56,.97-3.45,.23-5.97-.22-8.71-.52-3.17-2.12-12.95,2.41-19.89,.32-.49,.32-.42,8.99-8.24,4.91-4.43,7.38-6.65,7.67-7.03,3.18-4.12,3.34-8.07,3.95-19.89,.53-10.46,.8-15.68,.88-16.68,.69-8.59,1.33-16.55,4.82-25.12,4.91-12.04,13.11-19.49,18.85-24.71,5.04-4.58,11.65-10.47,22.14-14.27,7.8-2.82,12.13-4.39,17.1-3.01,2.7,.75,5.85,2.43,10.08,1.61,2.25-.44,2.32-1.1,4.82-2.01,5.54-2.01,12.44-1.38,17.51,1.39,1.75,.95,2.78,1.91,4.85,3.84,2.79,2.6,6.62,6.15,8.55,11.45,1.4,3.86,1.48,7.78,3.29,8.04,.53,.08,.77-.23,1.75-.27,1.74-.07,3.11,.78,3.87,1.27,2.31,1.49,3.35,3.61,4.46,5.96,1.14,2.42,1.6,4.34,2.05,6.16,.8,3.33,.9,5.55,.88,7.03-.05,2.92-.6,3.96-1.1,4.62-.32,.42-.67,.76-1.04,1.05-.76,.6-.96,1.68-.4,2.47,.07,.09,.13,.19,.2,.3,.25,.4,.77,1.25,.88,2.41,.08,.93-.19,.99-.15,2.01,.05,1.09,.39,1.41,.58,2.41,.2,.99,0,1.34-.15,3.01-.19,2.25-.29,3.37,.07,4.55,.58,1.92,1.57,1.82,1.75,3.48,.15,1.32-.43,1.79-.15,3.28,.11,.6,.31,1.09,.95,2.21,.88,1.56,1.56,2.77,3,4.55,2.3,2.86,2.83,2.62,3.29,3.95,.78,2.29-.34,4.39-.51,4.69-.97,1.74-2.57,2.57-3.29,2.95-2.7,1.4-6.1,3.43-10.57,6.32-.63,.41-.95,1.17-.79,1.9,.49,2.26,.73,3.17,1.21,5.43,.04,.17,.27,2.8,.26,2.97-.41,5.24,.1,5.63,.69,5.9,.09,.04,.57,.23,1.23,.59,1.49,.79,2.67,1.76,3.8,2.95,.71,.74,2.18,2.39,4.53,6.63,1.26,2.28,.76,1.67,2.78,5.56,1.22,2.35,2.13,4.83,3.22,7.23,.41,.9,.98,2.18,.44,3.35-.28,.6-.91,1.29-1.32,1.74-.08,.08-.15,.16-.22,.24-.54,.57-.67,1.42-.3,2.11s.82,1.54,1.33,2.47c2.22,4.08,3.41,6.27,5.12,8.97,1.66,2.64,3.05,4.56,3.43,5.09,1.05,1.44,2.9,3.97,5.55,6.9,1.67,1.84,3.79,3.88,8.04,7.97,1.42,1.36,2.64,2.89,4.02,4.29,1.85,1.89,2.98,2.91,2.92,4.35-.02,.58-.24,1.09-.51,1.52-.36,.58-.36,1.32,0,1.9,2,3.25,3.57,5.93,4.67,7.83,1.28,2.21,2.22,3.37,4.09,7.23,.03,.05,.05,.11,.08,.16,2,4.24-1.12,9.13-5.81,9.15H223.78Z"/>
        <text class="cls-9" transform="translate(215.03 327.21) scale(1 .84)"><tspan class="cls-13" x="0" y="0">M</tspan><tspan class="cls-1" x="18.43" y="0">a</tspan><tspan class="cls-10" x="33.2" y="0">ri</tspan><tspan class="cls-1" x="54.72" y="0">a </tspan><tspan class="cls-13" x="75.22" y="0">L</tspan><tspan class="cls-5" x="86.83" y="0">a</tspan><tspan x="100.83" y="0">ura </tspan><tspan class="cls-7" x="152.55" y="0">V</tspan><tspan x="164.89" y="0">er</tspan><tspan class="cls-13" x="193.25" y="0">d</tspan><tspan x="208.35" y="0">e</tspan><tspan x="53.41" y="23.13" xml:space="preserve">(                 )</tspan></text>
        <g>
          <path d="M299.62,344.68c0,.37,.16,1.04,.45,1.5,.16,.24-.02,.53-.3,.53h-4.15c-.28,0-.47-.28-.31-.52,.28-.47,.45-1.14,.45-1.5v-10.71s-4.69,11.49-4.69,11.49l-4.48-9.65c-.12-.24-1.41-2.97-1.73-2.74-.12,.1,0,.77,.27,1.44,2.14,5.3,3.79,12.56,2,12.11-.37-.08-.65-.12-.91-.12-.59,0-1.02,.16-1.71,.23-.26,.04-.51-.02-.65-.2-.16-.22-.16-.63,.1-.96,.57-.67,.87-1.2,.99-3.23,.2-3.42-.05-6.46-.44-8.76-.08-.51-.1-1.08,.59-1.08h3.19c.45,0,.75,.34,.98,.83l3.18,6.85,3.22-7.69h4.13c.28,0,.45,.28,.31,.52-.43,.71-.49,1.32-.49,1.36v10.31Z"/>
          <path d="M311.28,337.31c-.04,1.89-1.4,3.21-3.51,3.62-1.46,.31-3.39,1.59-1.54,2.87,.63,.51,1.46,.77,2.28,.77s1.69-.29,2.32-.86c.16-.14,.28-.2,.35-.2,.08,0,.1,.08,.08,.26-.06,1.97-2.74,2.99-4.43,2.97-2.74-.02-5.77-1.76-6.02-5.5-.29-4.29,3.47-6.65,6.68-6.69,1.38-.02,3.8,.38,3.8,2.76Zm-4.61,1.31c1.26-1.46,4.14-2.89,2.48-3.62-.24-.1-.51-.16-.81-.16-.91,0-2.03,.51-2.82,1.3-1.71,1.67-1.7,4.68-.4,6.61-.1-1.59,.57-2.93,1.56-4.13Z"/>
          <path d="M313.62,332.99c.45-.25,.72-.56,.88-.74,.48-.55,.75-1.14,.9-1.64,.08-.26,.13-.53,.17-.8,.08-.58,.14-.73,.19-.73,.15,0,.31,1.42,.42,3.3,.07,1.27,.12,2.76,.12,4.16,0,.15,0,.27,0,.35,2.5-2.3,4.77-3.22,6.73-3.22,2.56,0,5.29,1.34,4.74,4.26-.28,1.55-1.6,2.6-3.45,2.97-1.46,.29-3.39,1.59-1.54,2.87,.65,.51,1.46,.77,2.28,.77,.85,0,1.69-.29,2.32-.86,.16-.14,.28-.22,.35-.22,.08,0,.12,.1,.1,.28-.08,1.95-2.76,2.99-4.45,2.97-2.74-.02-5.77-1.76-6.02-5.5-.27-4.11,3.19-6.49,6.32-6.69,.73-.04,.73,.2,.16,.39-.75,.26-1.52,.79-2.15,1.61-1.32,1.75-1.22,4.43-.01,6.2-.08-1.61,.59-2.93,1.58-4.13,.73-.87,2.01-1.73,2.62-2.4,1.24-1.4-.92-2.28-2.87-2.27-2.95,0-5.69,2.2-6.68,3.3,0,1.28,0,6.28,0,7.54,0,.04,.04,.67,.49,1.38,.14,.24-.02,.55-.3,.55-1.18,0-2.3,0-2.32,0-1.1,0-1.75-.51-1.75-1.4,0-1.1,.18-9.78-.01-10.63-.05-.23-.18-.38-.18-.38-.21-.24-.53-.29-.63-.3-.86-.12-2.09,.96-2.07,.99,.02,.03,1.11-1.33,2.78-1.59,.29-.05,.76-.09,1.3-.39Z"/>
          <path d="M345.19,341.18c0,1-.32,2.36-.91,3.15-.14,.22-.22,.39-.32,.55-.1,.33-.06,.57,.12,.65,.1,.04,.24,.02,.41-.04,1.04-.55,1.5-2.18,1.56-3.38,.02-.16,.02-.3,.02-.45,0-1.1-.06-2.3,.02-3.42,.08-1.3,.44-2.46,1.56-3.23,.91-.63,2.09-.9,3.19-.9,1.97,0,3.88,.99,3.89,3.21,.02,1.73-1.05,2.83-2.7,2.87-1.71,.02-2.66-1.14-2.71-2.72-.04-.96,.42-2.07-.71-2.17-1.08-.12-1.83,1.16-2.01,2.16-.24,1.28-.12,3.11-.1,4.27,0,2.6-.65,4.94-3.72,4.94h-1.63c-.26,0-.45-.3-.29-.55,.26-.45,.45-1,.47-1.36,.06-1.26,.1-2.58,.1-3.82-.87,3.03-3.61,5.74-6.97,5.74s-6-2.7-6-6.03c0-3.33,2.7-6.06,5.99-6.06,3.27,0,5.98,2.72,5.98,6.05,0,1.06-.28,2.03-.75,2.91,1.69-2.1,2.72-5.82,1.17-8.42-.14-.22,.02-.55,.3-.55h.14s.35,.87,1.16,.87c.14,0,.28-.04,.43-.08,.77-.24,1.46-.79,2.3-.79v6.61Zm-12.66-4.36c0,4,0,7.48,0,7.72,0,1.2,.79,1.87,1.93,1.87,1.16,0,1.93-.67,1.93-1.87v-7.72c0-1.2-.78-1.87-1.94-1.87-1.16,0-1.93,.67-1.93,1.87Z"/>
          <path d="M368.11,346.65h-2.56c-.79,0-1.44-.75-1.45-1.89v-2.83c-.59,2.34-2.19,4.72-4.84,4.72-2.78,0-4.43-3.31-2.55-5.61,1.02-1.28,2.95-1.69,4.63-2.18,1.08-.31,1.73-.79,1.56-1.14-.08-.18-.39-.3-.85-.3-.55,0-1.32,.18-2.19,.69-.63,.37-1.28,.75-1.87,1.02-.26,.12-.51,.16-.77,.16-.79,0-1.48-.57-1.46-1.52,.02-2.26,3.86-3.2,5.95-3.2,4.41,0,6.28,3.25,6.29,6.25v3.92c0,.35,.17,.93,.35,1.24,.22,.35,.04,.65-.24,.65Zm-4.01-5.77v-2.34c0-1.57-.51-3.66-2.53-3.66-1.08,0-2.15,.55-2.84,1.22-1.1,1-1.01,2.16-.18,2.15,.12,0,.26-.02,.41-.08,.77-.31,1.58-.65,2.38-.84,.24-.04,.49-.08,.73-.08,.45,0,.85,.1,1,.34,.29,.55-.28,1.1-1.14,1.49-1.91,.94-2.99,2.18-2.82,4.07,.1,1.08,.73,1.83,1.69,1.81,1.44-.04,3.09-1.91,3.31-4.09Z"/>
          <path d="M319.01,333.15c-.29-.15-.8-.37-1.47-.41-.58-.04-1.05,.06-1.35,.15,.02,.3,.03,.6,.05,.9,.02-.09,.05-.17,.09-.24,.19-.35,.6-.5,.98-.56,.37-.06,.74-.04,1.1,.04,.2,.04,.4,.09,.59,.13Z"/>
        </g>
      </g>
    </g>
  </g>
</svg>