<?xml version="1.0" encoding="UTF-8"?>
<svg id="Capa_2" data-name="Capa 2" xmlns="http://www.w3.org/2000/svg" viewBox="0 0 388.28 463.18">
  <defs>
    <style>
      .cls-1 {
        fill: #e27fa6;
      }
    </style>
  </defs>
  <g id="Capa_1-2" data-name="Capa 1">
    <path class="cls-1"
      d="M0,463.18c.17-1.4,.46-3.38,1.02-5.7,.56-2.34,4.45-17.69,16.46-27.31,11.89-9.53,19.65-3.75,37.33-15.63,4.1-2.76,6.83-5.18,9.36-7.45,21.14-18.93,21.08-34.19,32.97-45.86,20.53-20.16,46.36,.19,63.83-18.38,14.27-15.16-.93-30.87,14.81-58.21,3.3-5.74,17.42-28.4,42.89-36.77,16.78-5.51,27.15-1.1,35.23-10.21,7.02-7.91,1.32-13.62,7.15-30.13,1.24-3.5,10.49-29.72,32.57-39.22,7.35-3.16,13.35-3.28,17.02-9.18,3.96-6.35-.18-10.74,2.38-18.7,4.01-12.47,17.24-11.32,22.58-22.27,5.88-12.04-7.65-18.49-5.26-34.23,3.68-24.12,39.8-37.34,38.99-54.33-.06-1.25-.38-5.45,1.05-10.68,1.6-5.84,4.88-9.83,6.62-11.68,4.25-4.5,8.9-6.44,11.27-7.25l-.53,463.18H0Z" />
  </g>
</svg>