<?xml version="1.0" encoding="UTF-8"?>
<svg id="Capa_2" data-name="Capa 2" xmlns="http://www.w3.org/2000/svg" xmlns:xlink="http://www.w3.org/1999/xlink" viewBox="0 0 69.34 66.41">
  <defs>
    <style>
      .cls-1 {
        fill: #29235c;
      }

      .cls-2 {
        fill: url(#linear-gradient);
      }
    </style>
    <linearGradient id="linear-gradient" x1="6.75" y1="2.84" x2="52.5" y2="58.99" gradientUnits="userSpaceOnUse">
      <stop offset="0" stop-color="#ffe601"/>
      <stop offset="1" stop-color="#ff7c01"/>
    </linearGradient>
  </defs>
  <g id="Capa_16" data-name="Capa 16">
    <g>
      <path class="cls-2" d="M61.93,20.86l-14.81-1.74-6.23-13.56c-3.42-7.42-9.01-7.42-12.43,0l-6.23,13.56-14.8,1.74c-8.13,.96-9.85,6.27-3.82,11.82l10.95,10.1-2.92,14.61c-1.61,8.04,2.91,11.33,10.07,7.31h0s12.98-7.3,12.98-7.3l12.97,7.29s0,0,0,0c7.14,4.01,11.68,.72,10.07-7.31l-2.93-14.61,10.95-10.1c6.02-5.55,4.3-10.87-3.82-11.82Z"/>
      <path class="cls-1" d="M28,24.32c1.09,0,2.08,.1,2.98,.29,.9,.19,1.67,.51,2.31,.95,.64,.44,1.14,1.02,1.49,1.75s.53,1.63,.53,2.69c0,1.15-.26,2.12-.79,2.89-.52,.77-1.3,1.4-2.33,1.89,1.41,.41,2.46,1.12,3.16,2.13,.69,1.02,1.04,2.24,1.04,3.67,0,1.15-.22,2.15-.67,3-.45,.85-1.05,1.53-1.81,2.07-.76,.53-1.63,.93-2.6,1.19-.98,.26-1.99,.39-3,.38h-11.1V24.32h10.78Zm-.64,9.27c.9,0,1.64-.21,2.21-.64,.58-.43,.87-1.12,.87-2.08,0-.53-.1-.97-.29-1.32-.19-.34-.45-.61-.77-.8-.32-.19-.69-.33-1.11-.4-.43-.08-.86-.11-1.3-.11h-4.72v5.36h5.1Zm.29,9.72c.49,0,.96-.05,1.41-.14,.45-.1,.84-.26,1.19-.48,.34-.22,.61-.53,.82-.91,.2-.38,.3-.88,.3-1.48,0-1.18-.33-2.02-.99-2.52-.66-.5-1.54-.75-2.63-.75h-5.48v6.29h5.39s0,0,0,0Zm15.1-.48c.68,.66,1.67,.99,2.95,.99,.92,0,1.71-.23,2.37-.69,.66-.46,1.07-.95,1.22-1.46h4.01c-.64,1.99-1.63,3.41-2.95,4.27-1.33,.86-2.93,1.28-4.81,1.28-1.3,0-2.48-.21-3.53-.63-1.05-.42-1.94-1.01-2.66-1.78-.73-.77-1.29-1.69-1.68-2.76-.4-1.07-.59-2.25-.59-3.53s.2-2.39,.61-3.46c.41-1.07,.98-1.99,1.73-2.77,.75-.78,1.64-1.4,2.68-1.84,1.04-.45,2.19-.67,3.45-.67,1.41,0,2.64,.27,3.69,.82,1.05,.55,1.91,1.28,2.58,2.2,.67,.92,1.16,1.97,1.46,3.14,.3,1.18,.41,2.41,.32,3.69h-11.96c.06,1.48,.44,2.54,1.12,3.21h0Zm5.15-8.72c-.55-.6-1.37-.9-2.49-.9-.73,0-1.33,.12-1.81,.37-.48,.25-.87,.55-1.16,.91-.29,.36-.49,.75-.61,1.15-.12,.41-.19,.77-.21,1.09h7.41c-.21-1.15-.59-2.03-1.14-2.63Zm-7.05-8.62h9.26v2.57h-9.26v-2.57Z"/>
    </g>
  </g>
</svg>