<?xml version="1.0" encoding="UTF-8"?>
<svg id="Capa_2" data-name="Capa 2" xmlns="http://www.w3.org/2000/svg" xmlns:xlink="http://www.w3.org/1999/xlink" viewBox="0 0 69.34 66.41">
  <defs>
    <style>
      .cls-1 {
        fill: #29235c;
      }

      .cls-2 {
        fill: url(#linear-gradient);
      }
    </style>
    <linearGradient id="linear-gradient" x1="6.75" y1="2.84" x2="52.5" y2="58.99" gradientUnits="userSpaceOnUse">
      <stop offset="0" stop-color="#ffe601"/>
      <stop offset="1" stop-color="#ff7c01"/>
    </linearGradient>
  </defs>
  <g id="Capa_16" data-name="Capa 16">
    <g>
      <path class="cls-2" d="M61.93,20.86l-14.81-1.74-6.23-13.56c-3.42-7.42-9.01-7.42-12.43,0l-6.23,13.56-14.8,1.74c-8.13,.96-9.85,6.27-3.82,11.82l10.95,10.1-2.92,14.61c-1.61,8.04,2.91,11.33,10.07,7.31h0s12.98-7.3,12.98-7.3l12.97,7.29s0,0,0,0c7.14,4.01,11.68,.72,10.07-7.31l-2.93-14.61,10.95-10.1c6.02-5.55,4.3-10.87-3.82-11.82Z"/>
      <g>
        <rect class="cls-1" x="22.6" y="30.8" width="6.03" height="18.11"/>
        <path class="cls-1" d="M48.43,32.46c-1.27-1.38-2.94-2.07-5.03-2.07-.77,0-1.47,.09-2.09,.28-.63,.19-1.16,.45-1.59,.79-.43,.34-.78,.66-1.03,.95-.24,.28-.48,.6-.71,.97v-2.58h-6.01l.02,.88c.01,.58,.02,2.39,.02,5.41s-.01,6.96-.04,11.82h6.01v-10.11c0-.62,.07-1.11,.2-1.48,.26-.62,.64-1.14,1.16-1.56,.52-.42,1.16-.63,1.93-.63,1.05,0,1.82,.36,2.31,1.09,.49,.72,.74,1.73,.74,3.01v9.69h6.01v-10.38c0-2.67-.63-4.69-1.9-6.08Z"/>
        <path class="cls-1" d="M25.66,22.09c-1.01,0-1.83,.3-2.46,.89-.63,.59-.94,1.34-.94,2.24s.3,1.63,.91,2.23c.61,.6,1.41,.9,2.41,.9h.04c1.02,0,1.85-.3,2.48-.9,.63-.6,.93-1.34,.92-2.23-.01-.9-.32-1.65-.93-2.24-.61-.59-1.42-.89-2.43-.89Z"/>
      </g>
    </g>
  </g>
</svg>