<?xml version="1.0" encoding="UTF-8"?>
<svg id="Capa_2" data-name="Capa 2" xmlns="http://www.w3.org/2000/svg" xmlns:xlink="http://www.w3.org/1999/xlink" viewBox="0 0 69.34 66.41">
  <defs>
    <style>
      .cls-1 {
        fill: #29235c;
      }

      .cls-2 {
        fill: url(#linear-gradient);
      }
    </style>
    <linearGradient id="linear-gradient" x1="6.75" y1="2.84" x2="52.5" y2="58.99" gradientUnits="userSpaceOnUse">
      <stop offset="0" stop-color="#ffe601"/>
      <stop offset="1" stop-color="#ff7c01"/>
    </linearGradient>
  </defs>
  <g id="Capa_16" data-name="Capa 16">
    <g>
      <path class="cls-2" d="M61.93,20.86l-14.81-1.74-6.23-13.56c-3.42-7.42-9.01-7.42-12.43,0l-6.23,13.56-14.8,1.74c-8.13,.96-9.85,6.27-3.82,11.82l10.95,10.1-2.92,14.61c-1.61,8.04,2.91,11.33,10.07,7.31h0s12.98-7.3,12.98-7.3l12.97,7.29s0,0,0,0c7.14,4.01,11.68,.72,10.07-7.31l-2.93-14.61,10.95-10.1c6.02-5.55,4.3-10.87-3.82-11.82Z"/>
      <g>
        <path class="cls-1" d="M41.34,18.92h-13.34c-6.14,0-11.11,4.98-11.11,11.11v13.34c0,6.14,4.98,11.11,11.11,11.11h13.34c6.14,0,11.11-4.98,11.11-11.11v-13.34c0-6.14-4.98-11.11-11.11-11.11Zm7.78,24.45c0,4.29-3.49,7.78-7.78,7.78h-13.34c-4.29,0-7.78-3.49-7.78-7.78v-13.34c0-4.29,3.49-7.78,7.78-7.78h13.34c4.29,0,7.78,3.49,7.78,7.78v13.34Z"/>
        <path class="cls-1" d="M34.67,27.81c-4.91,0-8.89,3.98-8.89,8.89s3.98,8.89,8.89,8.89,8.89-3.98,8.89-8.89-3.98-8.89-8.89-8.89Zm0,14.45c-3.06,0-5.56-2.49-5.56-5.56s2.49-5.56,5.56-5.56,5.56,2.49,5.56,5.56-2.49,5.56-5.56,5.56Z"/>
        <path class="cls-1" d="M44.23,25.96c.65,0,1.18,.53,1.18,1.18s-.53,1.18-1.18,1.18-1.18-.53-1.18-1.18,.53-1.18,1.18-1.18Z"/>
      </g>
    </g>
  </g>
</svg>