<?xml version="1.0" encoding="UTF-8"?>
<svg xmlns="http://www.w3.org/2000/svg" xmlns:xlink="http://www.w3.org/1999/xlink" viewBox="0 0 629.56 495.67">
  <defs>
    <style>
      .cls-1 {
        fill: url(#linear-gradient-2);
      }

      .cls-2 {
        fill: url(#linear-gradient-6);
      }

      .cls-3 {
        isolation: isolate;
      }

      .cls-4 {
        fill: url(#Degradado_sin_nombre_127-8);
        mix-blend-mode: overlay;
        opacity: .5;
      }

      .cls-5 {
        fill: url(#Degradado_sin_nombre_127-5);
      }

      .cls-6 {
        fill: url(#Degradado_sin_nombre_127-2);
      }

      .cls-7 {
        fill: url(#Degradado_sin_nombre_127-3);
      }

      .cls-8 {
        fill: url(#Degradado_sin_nombre_127-7);
      }

      .cls-9 {
        fill: url(#linear-gradient-5);
      }

      .cls-10 {
        fill: none;
      }

      .cls-11 {
        fill: url(#linear-gradient-7);
      }

      .cls-12 {
        fill: url(#linear-gradient-9);
      }

      .cls-13 {
        fill: url(#Degradado_sin_nombre_127-6);
      }

      .cls-14 {
        fill: url(#linear-gradient-3);
      }

      .cls-15 {
        fill: url(#linear-gradient);
      }

      .cls-16 {
        fill: url(#linear-gradient-4);
      }

      .cls-17 {
        fill: url(#linear-gradient-8);
      }

      .cls-18 {
        fill: url(#Degradado_sin_nombre_127);
      }

      .cls-19 {
        fill: url(#Degradado_sin_nombre_127-4);
      }
    </style>
    <linearGradient id="Degradado_sin_nombre_127" data-name="Degradado sin nombre 127" x1="516.5" y1="57.58" x2="565.4" y2="224.96" gradientUnits="userSpaceOnUse">
      <stop offset="0" stop-color="#787ee6"/>
      <stop offset=".49" stop-color="#5e17eb"/>
      <stop offset=".87" stop-color="#312974"/>
    </linearGradient>
    <linearGradient id="Degradado_sin_nombre_127-2" data-name="Degradado sin nombre 127" x1="289.04" y1="184.2" x2="403.14" y2="450.68" xlink:href="#Degradado_sin_nombre_127"/>
    <linearGradient id="Degradado_sin_nombre_127-3" data-name="Degradado sin nombre 127" x1="404.57" y1="216.3" x2="426.65" y2="520.32" xlink:href="#Degradado_sin_nombre_127"/>
    <linearGradient id="Degradado_sin_nombre_127-4" data-name="Degradado sin nombre 127" x1="364.85" y1="258.68" x2="424.84" y2="196.85" xlink:href="#Degradado_sin_nombre_127"/>
    <linearGradient id="Degradado_sin_nombre_127-5" data-name="Degradado sin nombre 127" x1="212.25" y1="490.68" x2="334.08" y2="422.59" xlink:href="#Degradado_sin_nombre_127"/>
    <linearGradient id="Degradado_sin_nombre_127-6" data-name="Degradado sin nombre 127" x1="435.14" y1="359.84" x2="471.58" y2="316.41" xlink:href="#Degradado_sin_nombre_127"/>
    <linearGradient id="Degradado_sin_nombre_127-7" data-name="Degradado sin nombre 127" x1="493.79" y1="311.67" x2="493.79" y2="495.67" xlink:href="#Degradado_sin_nombre_127"/>
    <linearGradient id="Degradado_sin_nombre_127-8" data-name="Degradado sin nombre 127" x1="584.09" y1="311.67" x2="584.09" y2="377.13" xlink:href="#Degradado_sin_nombre_127"/>
    <linearGradient id="linear-gradient" x1="296.51" y1="379.9" x2="301.38" y2="385.88" gradientUnits="userSpaceOnUse">
      <stop offset="0" stop-color="#ffe601"/>
      <stop offset="1" stop-color="#ff7c01"/>
    </linearGradient>
    <linearGradient id="linear-gradient-2" x1="547.79" y1="406.24" x2="557.03" y2="417.59" xlink:href="#linear-gradient"/>
    <linearGradient id="linear-gradient-3" x1="434.65" y1="463.37" x2="439.28" y2="469.04" xlink:href="#linear-gradient"/>
    <linearGradient id="linear-gradient-4" x1="251.65" y1="450.13" x2="254.64" y2="453.81" xlink:href="#linear-gradient"/>
    <linearGradient id="linear-gradient-5" x1="483.72" y1="213.28" x2="486.71" y2="216.96" xlink:href="#linear-gradient"/>
    <linearGradient id="linear-gradient-6" x1="512" y1="330.92" x2="515" y2="334.6" xlink:href="#linear-gradient"/>
    <linearGradient id="linear-gradient-7" x1="435.06" y1="203.24" x2="440.52" y2="209.94" xlink:href="#linear-gradient"/>
    <linearGradient id="linear-gradient-8" x1="559.79" y1="134.88" x2="563.92" y2="139.94" xlink:href="#linear-gradient"/>
    <linearGradient id="linear-gradient-9" x1="554.73" y1="240.21" x2="563.51" y2="250.99" xlink:href="#linear-gradient"/>
  </defs>
  <g class="cls-3">
    <g id="Capa_2" data-name="Capa 2">
      <g id="Capa_19" data-name="Capa 19">
        <g>
          <path class="cls-18" d="M629.56,0c-25.59,19.12-42.16,49.65-42.16,84.05,0,5.3,.4,10.52,1.16,15.61-24.09,5.04-42.61,25.19-45.21,50.09-6.87-1.87-14.09-2.89-21.55-2.89-45.16,0-81.77,36.61-81.77,81.77s36.61,81.77,81.77,81.77c23.1,0,43.94-9.59,58.82-24.99h48.94V0Z"/>
          <path class="cls-6" d="M629.56,495.67V173.86c-30.73,5.29-55.53,27.89-64.03,57.4-6.35-3.55-13.65-5.59-21.44-5.59-5.76,0-11.25,1.14-16.3,3.15-14.74-25.69-42.42-43-74.16-43-47.21,0-85.48,38.27-85.48,85.48,0,3.19,.19,6.34,.53,9.44-2.35-.29-4.73-.46-7.16-.46-31.56,0-57.14,25.58-57.14,57.14,0,10.97,3.1,21.22,8.46,29.92-18.97,1.58-35.3,12.42-44.47,27.99-21.72,2.92-40.77,14.25-53.76,30.61-14.54-12.66-33.53-20.34-54.33-20.34-45.74,0-82.82,37.08-82.82,82.81v7.25H629.56Z"/>
          <path class="cls-7" d="M629.56,495.67V205.99c-6.54-1.29-13.29-1.98-20.21-1.98-57.3,0-103.75,46.45-103.75,103.75,0,.27,.02,.53,.02,.8-3.45-.53-6.98-.8-10.58-.8-38.4,0-69.52,31.13-69.52,69.52,0,.86,.03,1.72,.07,2.57-26.62,6.88-47.01,29.22-51.05,56.86-18.61-12.65-41.08-20.05-65.28-20.05-51.18,0-94.6,33.08-110.13,79h430.44Z"/>
          <path class="cls-19" d="M368.15,271.3s.49-2.11,1.17-5.7c.17-.9,.35-1.88,.55-2.96,.32-1.06,.61-2.21,.94-3.43,.64-2.44,1.33-5.17,2.44-8.04,.51-1.44,1.04-2.94,1.59-4.48,.67-1.49,1.37-3.04,2.09-4.63,.34-.79,.7-1.6,1.05-2.41,.38-.8,.86-1.57,1.29-2.37,.86-1.59,1.75-3.21,2.64-4.87,2.15-3.09,4.05-6.46,6.6-9.47,2.3-3.19,5.12-6.01,7.79-8.96,2.96-2.66,5.77-5.5,8.96-7.79,3-2.56,6.38-4.45,9.46-6.61,1.65-.9,3.28-1.78,4.87-2.64,.8-.43,1.57-.91,2.37-1.29,.81-.36,1.62-.71,2.41-1.06,1.59-.72,3.13-1.42,4.63-2.09,1.55-.55,3.05-1.08,4.49-1.59,2.89-1.11,5.57-1.79,8-2.43,1.21-.33,2.35-.62,3.41-.94,1.1-.2,2.1-.39,3.02-.56,3.64-.67,5.71-1.16,5.71-1.16-47.21,0-85.48,38.27-85.48,85.48Z"/>
          <path class="cls-5" d="M205.65,483.27c.93-1.49,1.71-3.2,2.9-4.84,1.12-1.67,2.31-3.44,3.56-5.31,1.3-1.84,2.78-3.68,4.26-5.64,1.42-2,3.22-3.84,4.95-5.82,.9-.97,1.72-2.03,2.67-3,.97-.96,1.95-1.93,2.94-2.91,1-.98,1.98-1.99,3.02-2.97,1.09-.93,2.2-1.87,3.31-2.81,1.13-.93,2.21-1.93,3.37-2.87,1.19-.89,2.39-1.8,3.61-2.71,1.23-.89,2.39-1.89,3.7-2.7,1.3-.83,2.6-1.66,3.91-2.5,2.57-1.76,5.42-3.13,8.16-4.72l2.09-1.15,2.17-.99c1.45-.66,2.9-1.33,4.36-2,2.93-1.3,6.01-2.26,9-3.42,3.06-.96,6.15-1.88,9.23-2.74,3.13-.62,6.27-1.42,9.36-1.9,1.54-.2,3.08-.41,4.61-.61,1.54-.21,3-.52,4.66-.56,1.61-.1,3.21-.2,4.8-.3l2.37-.15,.59-.04h.09s.04,0,.04,0h.29s1.14,.02,1.14,.02c6.06,0,11.94,.28,17.48,1,2.75,.46,5.47,.74,8.04,1.31,2.57,.57,5.09,1.05,7.47,1.65,2.36,.69,4.63,1.35,6.78,1.97,2.15,.65,4.13,1.46,6.04,2.11,.95,.35,1.87,.68,2.75,1,.86,.37,1.68,.74,2.48,1.08,1.61,.69,3.08,1.32,4.42,1.89,5.26,2.61,8.27,4.1,8.27,4.1-18.61-12.65-41.08-20.05-65.28-20.05-51.18,0-94.6,33.08-110.13,79,0,0,1.56-3.02,4.1-8.24,.73-1.26,1.54-2.65,2.42-4.17Z"/>
          <path class="cls-13" d="M425.52,377.28s.47-1.71,1.11-4.63c.16-.73,.33-1.53,.53-2.4,.29-.86,.54-1.78,.84-2.77,.58-1.97,1.19-4.16,2.13-6.47,.44-1.15,.89-2.36,1.36-3.6,.57-1.2,1.15-2.43,1.75-3.71,.29-.63,.58-1.28,.88-1.93,.32-.64,.71-1.26,1.07-1.9,.74-1.26,1.43-2.58,2.17-3.89,1.76-2.47,3.31-5.17,5.37-7.57,1.86-2.55,4.13-4.81,6.28-7.18,2.37-2.14,4.62-4.42,7.18-6.28,2.4-2.07,5.1-3.61,7.57-5.37,1.32-.74,2.62-1.47,3.89-2.17,.64-.36,1.26-.75,1.9-1.07,.65-.3,1.29-.59,1.93-.88,1.27-.6,2.51-1.19,3.71-1.75,1.24-.47,2.45-.93,3.6-1.36,2.33-.94,4.47-1.55,6.43-2.12,.97-.3,1.9-.55,2.75-.84,.89-.19,1.71-.37,2.45-.53,2.96-.64,4.64-1.11,4.64-1.11-38.4,0-69.52,31.13-69.52,69.52Z"/>
          <g>
            <path class="cls-8" d="M629.56,495.67v-182.75c-4.12-.81-8.38-1.25-12.75-1.25-36.15,0-65.45,29.3-65.45,65.45,0,.17,.01,.34,.01,.5-2.18-.33-4.41-.5-6.67-.5-24.22,0-43.86,19.64-43.86,43.86,0,.54,.02,1.08,.04,1.62-16.79,4.34-29.66,18.43-32.21,35.87-11.74-7.98-25.92-12.65-41.18-12.65-32.28,0-59.68,20.87-69.48,49.84h271.55Z"/>
            <path class="cls-4" d="M610.12,312.82c-.82,.23-1.7,.43-2.63,.67-.93,.23-1.92,.47-2.96,.73-1.04,.23-2.1,.67-3.22,1.02-1.11,.37-2.27,.76-3.47,1.17-1.16,.52-2.36,1.02-3.59,1.55-.61,.26-1.24,.53-1.87,.79-.62,.29-1.22,.65-1.83,.98-1.22,.68-2.49,1.33-3.77,2.01-2.4,1.64-5.02,3.09-7.34,5.06-2.47,1.76-4.65,3.95-6.94,6.01-2.06,2.29-4.24,4.46-6,6.94-1.96,2.33-3.42,4.94-5.06,7.34-.68,1.28-1.33,2.55-2.01,3.77-.33,.62-.69,1.22-.98,1.83-.27,.63-.53,1.25-.79,1.87-.53,1.23-1.05,2.43-1.55,3.59-.4,1.2-.79,2.36-1.17,3.47-.35,1.12-.79,2.18-1.03,3.23-.26,1.05-.5,2.04-.74,2.98-.24,.94-.44,1.82-.67,2.64-.13,.83-.26,1.59-.37,2.28-.45,2.76-.78,4.37-.78,4.37,0-36.15,29.3-65.45,65.45-65.45,0,0-1.59,.32-4.38,.77-.7,.11-1.47,.24-2.31,.37Z"/>
          </g>
          <path class="cls-15" d="M302.39,381.82l-1.58-.19-.66-1.44c-.36-.79-.96-.79-1.32,0l-.66,1.44-1.58,.19c-.87,.1-1.05,.67-.41,1.26l1.17,1.08-.31,1.56c-.17,.86,.31,1.21,1.07,.78h0s1.38-.78,1.38-.78l1.38,.78s0,0,0,0c.76,.43,1.24,.08,1.07-.78l-.31-1.56,1.17-1.08c.64-.59,.46-1.16-.41-1.26Z"/>
          <path class="cls-1" d="M558.94,409.88l-2.99-.35-1.26-2.74c-.69-1.5-1.82-1.5-2.51,0l-1.26,2.74-2.99,.35c-1.64,.19-1.99,1.27-.77,2.39l2.21,2.04-.59,2.95c-.33,1.62,.59,2.29,2.03,1.48h0s2.62-1.47,2.62-1.47l2.62,1.47s0,0,0,0c1.44,.81,2.36,.15,2.03-1.48l-.59-2.95,2.21-2.04c1.21-1.12,.87-2.19-.77-2.39Z"/>
          <path class="cls-14" d="M440.23,465.19l-1.5-.18-.63-1.37c-.35-.75-.91-.75-1.26,0l-.63,1.37-1.5,.18c-.82,.1-.99,.63-.39,1.19l1.11,1.02-.3,1.47c-.16,.81,.29,1.14,1.02,.74h0s1.31-.74,1.31-.74l1.31,.74s0,0,0,0c.72,.41,1.18,.07,1.02-.74l-.3-1.47,1.11-1.02c.61-.56,.43-1.1-.39-1.19Z"/>
          <path class="cls-16" d="M255.26,451.31l-.97-.11-.41-.89c-.22-.49-.59-.49-.81,0l-.41,.89-.97,.11c-.53,.06-.64,.41-.25,.77l.72,.66-.19,.96c-.11,.53,.19,.74,.66,.48h0s.85-.48,.85-.48l.85,.48s0,0,0,0c.47,.26,.76,.05,.66-.48l-.19-.96,.72-.66c.39-.36,.28-.71-.25-.77Z"/>
          <path class="cls-9" d="M487.33,214.46l-.97-.11-.41-.89c-.22-.49-.59-.49-.81,0l-.41,.89-.97,.11c-.53,.06-.64,.41-.25,.77l.72,.66-.19,.96c-.11,.53,.19,.74,.66,.48h0s.85-.48,.85-.48l.85,.48s0,0,0,0c.47,.26,.76,.05,.66-.48l-.19-.96,.72-.66c.39-.36,.28-.71-.25-.77Z"/>
          <path class="cls-2" d="M515.61,332.1l-.97-.11-.41-.89c-.22-.49-.59-.49-.81,0l-.41,.89-.97,.11c-.53,.06-.64,.41-.25,.77l.72,.66-.19,.96c-.11,.53,.19,.74,.66,.48h0s.85-.48,.85-.48l.85,.48s0,0,0,0c.47,.26,.76,.05,.66-.48l-.19-.96,.72-.66c.39-.36,.28-.71-.25-.77Z"/>
          <path class="cls-11" d="M441.64,205.39l-1.77-.21-.74-1.62c-.41-.89-1.07-.89-1.48,0l-.74,1.62-1.77,.21c-.97,.11-1.17,.75-.46,1.41l1.31,1.21-.35,1.74c-.19,.96,.35,1.35,1.2,.87h0s1.55-.87,1.55-.87l1.55,.87s0,0,0,0c.85,.48,1.39,.09,1.2-.87l-.35-1.74,1.31-1.21c.72-.66,.51-1.3-.46-1.41Z"/>
          <path class="cls-17" d="M564.76,136.51l-1.33-.16-.56-1.22c-.31-.67-.81-.67-1.12,0l-.56,1.22-1.33,.16c-.73,.09-.89,.57-.34,1.07l.99,.91-.26,1.32c-.15,.72,.26,1.02,.91,.66h0s1.17-.66,1.17-.66l1.17,.66s0,0,0,0c.64,.36,1.05,.07,.91-.66l-.26-1.32,.99-.91c.54-.5,.39-.98-.35-1.07Z"/>
          <path class="cls-12" d="M565.32,243.67l-2.84-.33-1.2-2.6c-.66-1.42-1.73-1.42-2.39,0l-1.2,2.6-2.84,.33c-1.56,.18-1.89,1.2-.73,2.27l2.1,1.94-.56,2.8c-.31,1.54,.56,2.17,1.93,1.4h0s2.49-1.4,2.49-1.4l2.49,1.4s0,0,0,0c1.37,.77,2.24,.14,1.93-1.4l-.56-2.8,2.1-1.94c1.15-1.07,.82-2.09-.74-2.27Z"/>
          <rect class="cls-10" y="97.99" width="583" height="397.68"/>
        </g>
      </g>
    </g>
  </g>
</svg>