<?xml version="1.0" encoding="UTF-8"?>
<svg xmlns="http://www.w3.org/2000/svg" xmlns:xlink="http://www.w3.org/1999/xlink" viewBox="0 0 396.19 313.69">
  <defs>
    <style>
      .cls-1 {
        fill: url(#linear-gradient-2);
      }

      .cls-2 {
        isolation: isolate;
      }

      .cls-3 {
        fill: url(#Degradado_sin_nombre_127-5);
      }

      .cls-4 {
        fill: url(#Degradado_sin_nombre_127-2);
      }

      .cls-5 {
        fill: url(#Degradado_sin_nombre_127-3);
      }

      .cls-6 {
        fill: url(#Degradado_sin_nombre_127-6);
      }

      .cls-7 {
        fill: url(#linear-gradient-3);
      }

      .cls-8 {
        fill: url(#linear-gradient);
      }

      .cls-9 {
        fill: url(#Degradado_sin_nombre_127);
      }

      .cls-10 {
        fill: url(#Degradado_sin_nombre_127-4);
      }

      .cls-11 {
        fill: url(#Degradado_sin_nombre_83);
        mix-blend-mode: overlay;
        opacity: .5;
      }
    </style>
    <linearGradient id="Degradado_sin_nombre_127" data-name="Degradado sin nombre 127" x1="9298.15" y1="36.44" x2="9329.1" y2="142.37" gradientTransform="translate(9369.71) rotate(-180) scale(1 -1)" gradientUnits="userSpaceOnUse">
      <stop offset="0" stop-color="#787ee6"/>
      <stop offset=".49" stop-color="#5e17eb"/>
      <stop offset=".87" stop-color="#312974"/>
    </linearGradient>
    <linearGradient id="Degradado_sin_nombre_127-2" data-name="Degradado sin nombre 127" x1="114.07" y1="111.04" x2="96.83" y2="127.35" gradientTransform="matrix(1, 0, 0, 1, 0, 0)" xlink:href="#Degradado_sin_nombre_127"/>
    <linearGradient id="Degradado_sin_nombre_127-3" data-name="Degradado sin nombre 127" x1="9154.2" y1="116.58" x2="9226.41" y2="285.22" xlink:href="#Degradado_sin_nombre_127"/>
    <linearGradient id="Degradado_sin_nombre_127-4" data-name="Degradado sin nombre 127" x1="9227.32" y1="136.89" x2="9241.29" y2="329.29" xlink:href="#Degradado_sin_nombre_127"/>
    <linearGradient id="Degradado_sin_nombre_83" data-name="Degradado sin nombre 83" x1="200.05" y1="211.99" x2="174.42" y2="190.56" gradientUnits="userSpaceOnUse">
      <stop offset="0" stop-color="#797ae9"/>
      <stop offset="1" stop-color="#022559"/>
    </linearGradient>
    <linearGradient id="Degradado_sin_nombre_127-5" data-name="Degradado sin nombre 127" x1="61.18" y1="161.44" x2="3.41" y2="163.3" gradientTransform="matrix(1, 0, 0, 1, 0, 0)" xlink:href="#Degradado_sin_nombre_127"/>
    <linearGradient id="Degradado_sin_nombre_127-6" data-name="Degradado sin nombre 127" x1="4825.71" y1="220.85" x2="4832.39" y2="328.84" gradientTransform="translate(5100.5) rotate(-180) scale(1 -1)" xlink:href="#Degradado_sin_nombre_127"/>
    <linearGradient id="linear-gradient" x1="114.41" y1="143.75" x2="125.77" y2="157.69" gradientUnits="userSpaceOnUse">
      <stop offset="0" stop-color="#ffe601"/>
      <stop offset="1" stop-color="#ff7c01"/>
    </linearGradient>
    <linearGradient id="linear-gradient-2" x1="206.35" y1="268.35" x2="214.16" y2="277.93" xlink:href="#linear-gradient"/>
    <linearGradient id="linear-gradient-3" x1="118.91" y1="258.4" x2="122.9" y2="263.3" xlink:href="#linear-gradient"/>
  </defs>
  <g class="cls-2">
    <g id="Capa_2" data-name="Capa 2">
      <g id="Capa_19" data-name="Capa 19">
        <g>
          <path class="cls-9" d="M0,0C16.2,12.1,26.68,31.42,26.68,53.19c0,3.36-.25,6.65-.74,9.88,15.24,3.19,26.97,15.94,28.61,31.7,4.35-1.18,8.92-1.83,13.64-1.83,28.58,0,51.75,23.17,51.75,51.75s-23.17,51.75-51.75,51.75c-14.62,0-27.81-6.07-37.22-15.82H0V0Z"/>
          <path class="cls-4" d="M116.35,153.67c-.07,.57-.17,1.15-.34,1.73-.29,1.16-.58,2.31-.86,3.46-1.46,4.49-3.2,8.87-5.66,12.7-2.49,3.77-5.15,7.33-8.26,10.15-1.44,1.54-3.13,2.69-4.65,3.98-.75,.65-1.61,1.12-2.39,1.68-.8,.53-1.56,1.09-2.36,1.56-1.64,.85-3.16,1.78-4.7,2.47-1.56,.64-3.01,1.37-4.44,1.86-1.45,.47-2.81,.91-4.06,1.31-1.28,.32-2.47,.56-3.54,.81-.54,.12-1.05,.24-1.53,.34-.48,.09-.94,.13-1.37,.19-.85,.11-1.58,.21-2.17,.29-1.19,.16-1.82,.25-1.82,.25,28.58,0,51.75-23.17,51.75-51.75s-23.17-51.75-51.75-51.75c0,0,.63,.08,1.82,.24,.59,.08,1.32,.18,2.18,.29,.43,.06,.89,.11,1.38,.2,.48,.11,.99,.22,1.53,.34,1.07,.25,2.25,.49,3.53,.81,1.25,.4,2.61,.84,4.06,1.31,1.43,.49,2.89,1.22,4.45,1.86,1.54,.69,3.07,1.62,4.7,2.47,.8,.47,1.56,1.03,2.36,1.55,.78,.56,1.64,1.03,2.39,1.68,1.51,1.29,3.21,2.44,4.65,3.98,3.12,2.81,5.77,6.38,8.26,10.15,2.46,3.83,4.2,8.2,5.66,12.69,.29,1.15,.57,2.3,.86,3.46,.17,.57,.27,1.16,.34,1.76l.26,1.78c.18,1.19,.38,2.37,.38,3.58l.16,3.46c-.16,2.5-.1,5.2-.55,7.4l-.25,1.72Z"/>
          <path class="cls-5" d="M0,313.69V110.03c19.45,3.35,35.14,17.65,40.52,36.32,4.02-2.25,8.64-3.54,13.57-3.54,3.65,0,7.12,.72,10.32,1.99,9.33-16.26,26.85-27.21,46.93-27.21,29.88,0,54.09,24.22,54.09,54.09,0,2.02-.12,4.01-.34,5.98,1.49-.18,3-.29,4.53-.29,19.97,0,36.16,16.19,36.16,36.16,0,6.94-1.96,13.43-5.35,18.94,12.01,1,22.34,7.86,28.14,17.71,13.75,1.85,25.8,9.02,34.02,19.38,9.2-8.01,21.22-12.87,34.38-12.87,28.95,0,52.41,23.47,52.41,52.41v4.59H0Z"/>
          <path class="cls-10" d="M0,313.69V130.37c4.14-.82,8.41-1.25,12.79-1.25,36.26,0,65.66,29.4,65.66,65.66,0,.17-.01,.34-.01,.51,2.18-.33,4.42-.51,6.7-.51,24.3,0,44,19.7,44,44,0,.54-.02,1.08-.04,1.62,16.85,4.35,29.75,18.49,32.31,35.99,11.78-8.01,26-12.69,41.31-12.69,32.39,0,59.87,20.93,69.7,50H0Z"/>
          <path class="cls-11" d="M176.47,179.12c.67,.21,1.38,.53,2.12,.81,.74,.29,1.52,.54,2.29,.96,.77,.39,1.6,.73,2.4,1.19,.79,.46,1.61,.94,2.45,1.44,.79,.56,1.61,1.12,2.45,1.71,.82,.59,1.58,1.3,2.4,1.95,.81,.66,1.51,1.47,2.3,2.2,.78,.74,1.42,1.63,2.16,2.43,.73,.81,1.29,1.78,1.97,2.64,.65,.89,1.15,1.88,1.74,2.82,.56,.95,.99,1.98,1.5,2.96,.44,1.01,.81,2.05,1.22,3.06,.35,1.03,.6,2.09,.93,3.11,.28,1.04,.41,2.09,.65,3.11,.24,1.03,.23,2.07,.39,3.07l.09,.75,.02,.19c.01-.1,0,.09,.01,.12v.4c.03,.53,.04,1.05,.06,1.57,.03,1.02-.04,1.88-.03,2.8-.08,.92-.12,1.82-.23,2.67-.23,1.71-.51,3.28-.82,4.68-.18,.69-.37,1.33-.5,1.95-.16,.6-.35,1.14-.5,1.64-.3,1.01-.61,1.77-.8,2.31-.19,.54-.29,.83-.29,.83,3.39-5.51,5.35-11.99,5.35-18.94,0-19.98-16.19-36.16-36.16-36.16,0,0,1.18,.3,3.26,.72,1.04,.23,2.22,.68,3.57,1.02Z"/>
          <path class="cls-3" d="M19.5,130.26c.82,.23,1.7,.43,2.64,.67,.93,.23,1.92,.47,2.96,.73,1.04,.23,2.11,.68,3.23,1.03,1.12,.38,2.28,.77,3.48,1.17,1.16,.52,2.37,1.02,3.6,1.55,.62,.26,1.24,.53,1.87,.8,.62,.29,1.22,.65,1.84,.98,1.23,.69,2.5,1.34,3.78,2.02,2.4,1.65,5.03,3.1,7.36,5.08,2.48,1.77,4.67,3.96,6.96,6.03,2.07,2.29,4.26,4.48,6.02,6.96,1.97,2.34,3.43,4.96,5.07,7.37,.69,1.28,1.33,2.56,2.02,3.78,.33,.62,.69,1.22,.99,1.84,.27,.63,.53,1.26,.8,1.87,.53,1.24,1.05,2.44,1.55,3.6,.41,1.2,.8,2.36,1.17,3.48,.35,1.13,.8,2.19,1.03,3.24,.26,1.05,.51,2.05,.74,2.99,.24,.94,.44,1.83,.67,2.65,.14,.83,.26,1.6,.37,2.28,.45,2.77,.78,4.39,.78,4.39,0-36.26-29.4-65.66-65.66-65.66,0,0,1.6,.32,4.4,.77,.7,.11,1.48,.24,2.32,.37Z"/>
          <path class="cls-6" d="M141.91,313.69c6.48-6.04,14.95-9.99,24.33-10.7,2.99-29.48,27.89-52.48,58.15-52.48,11.36,0,21.94,3.25,30.92,8.85,8.47-21.83,29.67-37.32,54.5-37.32,32.28,0,58.45,26.17,58.45,58.45,0,3.47-.32,6.85-.9,10.15,.3,0,.59-.05,.9-.05,13.88,0,25.42,9.94,27.93,23.09H141.91Z"/>
          <path class="cls-8" d="M128.11,148.23l-3.68-.43-1.55-3.37c-.85-1.84-2.24-1.84-3.09,0l-1.55,3.37-3.68,.43c-2.02,.24-2.44,1.56-.95,2.93l2.72,2.51-.73,3.63c-.4,1.99,.72,2.81,2.5,1.81h0s3.22-1.81,3.22-1.81l3.22,1.81s0,0,0,0c1.77,1,2.9,.18,2.5-1.81l-.73-3.63,2.72-2.51c1.49-1.38,1.07-2.7-.95-2.93Z"/>
          <path class="cls-1" d="M215.76,271.43l-2.53-.3-1.06-2.31c-.58-1.27-1.54-1.27-2.12,0l-1.06,2.31-2.53,.3c-1.39,.16-1.68,1.07-.65,2.02l1.87,1.72-.5,2.49c-.28,1.37,.5,1.93,1.72,1.25h0s2.21-1.24,2.21-1.24l2.21,1.24s0,0,0,0c1.22,.68,1.99,.12,1.72-1.25l-.5-2.49,1.87-1.72c1.03-.95,.73-1.85-.65-2.02Z"/>
          <path class="cls-7" d="M123.72,259.97l-1.29-.15-.54-1.18c-.3-.65-.79-.65-1.08,0l-.54,1.18-1.29,.15c-.71,.08-.86,.55-.33,1.03l.96,.88-.26,1.27c-.14,.7,.25,.99,.88,.64h0s1.13-.64,1.13-.64l1.13,.64s0,0,0,0c.62,.35,1.02,.06,.88-.64l-.26-1.27,.96-.88c.52-.48,.37-.95-.33-1.03Z"/>
        </g>
      </g>
    </g>
  </g>
</svg>