<?xml version="1.0" encoding="UTF-8"?>
<svg id="Capa_2" data-name="Capa 2" xmlns="http://www.w3.org/2000/svg" xmlns:xlink="http://www.w3.org/1999/xlink" viewBox="0 0 808.28 305.96">
  <defs>
    <style>
      .cls-1 {
        fill: #e27fa6;
      }

      .cls-2 {
        fill: #c17027;
      }

      .cls-3 {
        fill: #0b3860;
      }

      .cls-4 {
        fill: #ffbd59;
      }

      .cls-5 {
        fill: #438;
      }

      .cls-6 {
        fill: #29235c;
      }

      .cls-7 {
        fill: #a84c29;
      }

      .cls-8 {
        fill: #c75d2e;
      }

      .cls-9 {
        clip-path: url(#clippath);
      }

      .cls-10 {
        fill: #004aad;
      }

      .cls-11 {
        fill: none;
      }

      .cls-12 {
        fill: #9a38a5;
      }

      .cls-13 {
        fill: #a05272;
      }

      .cls-14 {
        fill: #521659;
      }
    </style>
    <clipPath id="clippath">
      <rect class="cls-11" width="808.28" height="305.96"/>
    </clipPath>
  </defs>
  <g id="Capa_12" data-name="Capa 12">
    <g class="cls-9">
      <g>
        <path class="cls-14" d="M151.51,105.5c.84,.8,2.19,1.94,4.05,2.89,7.8,3.98,13.12-1.24,23.62-1.03,11.94,.25,14.77,7.2,21.78,4.39,4.83-1.94,5.13-5.89,11.71-8.08,1.6-.53,5.82-1.94,9.92-.84,10.62,2.85,8.17,19.23,21.49,28.65,6.87,4.85,9.75,2.07,22.05,9.37,7.57,4.49,7.36,6.07,12.7,9.22,14.62,8.62,31.21,5.65,40.04,4.07,4.19-.75,14.21-2.64,24.77-9.11,8.63-5.29,9.44-8.63,20.68-15.97,5.76-3.76,11.42-7.46,18.96-9.84,3.91-1.24,17.07-4.73,33.19-.46,1.71,.45,7.4,2.04,14.2,5.62,10.39,5.47,11.74,9.45,19.97,13.76,4.13,2.17,12.8,6.72,22.51,5.13,10.27-1.68,20.53-10.02,23.69-19.81,.75-2.33,1.04-4.56,3.12-6.89,3.6-4.04,10.03-5.52,15.39-4.18,4.6,1.15,6.71,3.94,12.73,10.03,11.38,11.51,17.08,17.27,24.87,20.65,8.26,3.59,16.5,3.84,19.43,3.84,5.52-.02,10.45-1.01,10.45-1.01,2.62-.53,3.85-1,9.56-2.36,3.58-.85,5.37-1.28,6.01-1.37,11.16-1.5,22.48,8.67,23.06,9.21,1.76,1.62,2.59,2.73,6.4,6.25,3.44,3.18,5.2,4.79,7.09,5.91,4.47,2.65,8.78,3.19,10.91,3.32,5.18,.31,9.04-1.18,10.9-2.05L375.22-117.28,151.51,105.5Z"/>
        <path class="cls-12" d="M158.86,98.18c.82,.78,2.14,1.89,3.95,2.82,7.59,3.9,12.74-1.15,22.94-.9,11.59,.29,14.37,7.05,21.17,4.35,4.69-1.86,4.95-5.7,11.34-7.8,1.55-.51,5.65-1.86,9.63-.78,10.33,2.81,8.01,18.71,20.98,27.91,6.69,4.74,9.47,2.05,21.45,9.19,7.37,4.39,7.17,5.93,12.37,9,14.23,8.43,30.34,5.61,38.9,4.11,4.07-.71,13.79-2.5,24.02-8.74,8.36-5.1,9.13-8.34,20.02-15.42,5.58-3.63,11.06-7.2,18.37-9.48,3.8-1.18,16.56-4.53,32.23-.31,1.66,.45,7.19,2.01,13.82,5.52,10.11,5.35,11.44,9.22,19.44,13.45,4.02,2.12,12.45,6.57,21.88,5.07,9.97-1.59,19.9-9.65,22.93-19.14,.72-2.26,1-4.43,3-6.68,3.48-3.9,9.71-5.32,14.93-4,4.47,1.13,6.53,3.85,12.4,9.79,11.1,11.23,16.65,16.84,24.24,20.16,8.04,3.51,16.04,3.8,18.88,3.8,5.36,0,10.15-.94,10.15-.94,2.55-.5,3.73-.95,9.28-2.25,3.47-.81,5.21-1.22,5.83-1.3,10.83-1.42,21.86,8.51,22.43,9.04,1.71,1.58,2.52,2.66,6.24,6.1,3.36,3.1,5.07,4.68,6.91,5.77,4.35,2.59,8.54,3.13,10.61,3.27,5.04,.32,8.78-1.11,10.58-1.95L375.23-117.29,158.86,98.18Z"/>
        <path class="cls-6" d="M310.91-10.04c-.47,2.46-1.02,6-1.22,10.27-1,21.57,8.07,37.87,11.31,43.52,14.56,25.4,38.35,37.29,46.77,41.05,5.58,2.49,23.82,10.07,48.91,9.92,10.97-.07,29.39-1.65,49.22-10.74,24.23-11.11,36.98-27.19,40.35-31.68,19.66-26.13,18.53-53.38,17.73-62.34h-213.07Z"/>
        <path class="cls-5" d="M316.85-15.51c-.44,2.46-.94,6-1.12,10.27-.92,21.57,7.41,37.87,10.38,43.52,13.37,25.4,35.2,37.29,42.94,41.05,5.12,2.49,21.86,10.07,44.9,9.92,10.07-.07,26.98-1.65,45.18-10.74,22.24-11.11,33.94-27.19,37.04-31.68,18.05-26.13,17.01-53.38,16.28-62.34h-195.59Z"/>
        <path class="cls-7" d="M392.76-34.4c62.23,30.3,93.34,45.45,110.39,53.24,40.73,18.6,61.1,27.9,66.09,29.93,18.44,7.49,35.13,13.56,57.66,25.9,21.45,11.74,29.61,18.99,34.45,23.89,8.65,8.74,8.65,11.96,17.58,19.57,10.41,8.88,20.8,13.37,33.4,18.71,6.09,2.58,19.29,6.8,45.7,15.25,13.52,4.33,23.14,7.33,35.51,13.53,6.44,3.23,11.47,6.25,14.79,8.35,0,37.31,0,74.63,0,111.94-8.95-3.74-21.92-10.2-34.13-21.01-5.44-4.82-10.85-11.53-21.45-24.75-17.66-22.04-19.22-25.74-28.83-34.82-13.96-13.2-23.18-17.24-26.02-18.42-10.58-4.39-14.89-3.25-27.42-6.33-23.15-5.7-38.63-17.05-44.3-21.58-12.03-9.63-25.25-20.21-25.31-34.25-.03-6.3,2.61-11.14-1.41-16.98-2.63-3.83-8.31-8.39-15.47-10.65-4.65-1.47-8.41-1.49-13.01-4.6-1.53-1.04-1.9-1.57-4.92-4.32,0,0-2.63-2.39-9.49-8.06-7.46-6.16-22.79-9.32-33.4-13.53-15.94-6.32-25.14-16.56-35.86-28.49-11.97-13.33-10.55-17.42-21.09-24.17-8.23-5.27-16.91-7.78-28.83-11.22-14.68-4.24-16.9-3.08-28.83-7.19-9.73-3.35-17.57-6.06-24.61-12.09-9.54-8.17-6.86-13.26-15.47-22.73-6.05-6.66-13.49-10.19-28.13-16.98-10.44-4.84-24.11-19.04-42.89-24.29,5.35,.12,14.06,4.35,23.25,5.93,10.88,1.87,22.64,8.64,35.64,16.49,8.21,4.96,8.25,7.36,20.39,14.96,6.93,4.34,12.6,7.12,16,8.78Z"/>
        <path class="cls-8" d="M392.72-42.88C454.92-12.57,486.02,2.58,503.07,10.36c40.71,18.6,61.07,27.9,66.07,29.93,18.43,7.49,35.11,13.56,57.63,25.9,21.44,11.74,29.6,18.99,34.44,23.89,8.65,8.74,8.65,11.96,17.57,19.57,10.41,8.88,20.79,13.37,33.39,18.71,6.08,2.58,19.28,6.8,45.69,15.25,13.52,4.33,23.13,7.33,35.49,13.53,6.43,3.23,11.47,6.25,14.79,8.35,0,37.31,0,74.63,0,111.94-8.95-3.74-21.91-10.2-34.12-21.01-5.44-4.82-10.85-11.53-21.44-24.75-17.65-22.04-19.22-25.74-28.82-34.82-13.95-13.2-23.17-17.24-26.01-18.42-10.57-4.39-14.88-3.25-27.41-6.33-23.14-5.7-38.62-17.05-44.28-21.58-12.03-9.63-25.24-20.21-25.3-34.25-.03-6.3,2.61-11.14-1.41-16.98-2.63-3.83-8.31-8.39-15.46-10.65-4.65-1.47-8.41-1.49-13-4.6-1.53-1.04-1.9-1.57-4.92-4.32,0,0-2.63-2.39-9.49-8.06-7.45-6.16-22.78-9.32-33.39-13.53-15.94-6.32-25.13-16.56-35.85-28.49-11.97-13.33-10.54-17.42-21.09-24.17-8.23-5.27-16.9-7.78-28.82-11.22-14.67-4.24-16.9-3.08-28.82-7.19-9.72-3.35-17.56-6.06-24.6-12.09-9.54-8.17-6.86-13.26-15.46-22.73-6.05-6.66-13.49-10.19-28.11-16.98-10.44-4.84-25.16-10.86-43.93-16.12,5.35,.12,13.13,.58,22.32,2.16,10.88,1.87,24.61,4.23,37.6,12.09,8.2,4.96,8.25,7.36,20.38,14.96,6.93,4.34,12.59,7.12,15.99,8.78Z"/>
        <path class="cls-13" d="M542.33-112.55c-81.18,38.73-121.77,58.1-144.02,68.05-53.14,23.77-79.71,35.66-86.23,38.25-24.06,9.57-45.83,17.34-75.22,33.11-27.98,15.01-38.63,24.27-44.95,30.53-11.29,11.18-11.29,15.28-22.93,25.01-13.58,11.35-27.14,17.09-43.57,23.91-7.94,3.29-25.17,8.69-59.63,19.5-17.64,5.53-30.19,9.36-46.33,17.29-8.4,4.12-14.97,7.98-19.3,10.67,0,47.7,0,95.39,0,143.09,11.68-4.78,28.59-13.04,44.53-26.85,7.1-6.16,14.16-14.73,27.98-31.63,23.04-28.18,25.08-32.9,37.61-44.51,18.21-16.87,30.24-22.04,33.94-23.54,13.8-5.62,19.43-4.15,35.78-8.09,30.2-7.28,50.4-21.79,57.79-27.59,15.7-12.31,32.94-25.84,33.02-43.77,.04-8.06-3.4-14.23,1.83-21.7,3.43-4.89,10.85-10.72,20.18-13.61,6.07-1.88,10.97-1.91,16.97-5.89,2-1.33,2.48-2,6.42-5.52,0,0,3.43-3.06,12.38-10.3,9.73-7.87,29.73-11.91,43.57-17.29,20.8-8.08,32.8-21.17,46.78-36.42,15.62-17.03,13.76-22.27,27.52-30.9,10.74-6.73,22.06-9.94,37.61-14.35,19.15-5.42,22.05-3.94,37.61-9.2,12.69-4.29,22.92-7.74,32.11-15.45"/>
        <path class="cls-1" d="M553.8-100.58c-9.18,7.7-19.42,11.16-32.11,15.44-15.56,5.25-18.46,3.77-37.61,9.19-15.55,4.4-26.88,7.61-37.61,14.34-13.76,8.63-11.9,13.86-27.52,30.89-13.98,15.24-25.98,28.32-46.78,36.4-13.85,5.38-33.84,9.42-43.57,17.28-8.96,7.24-12.38,10.3-12.38,10.3-3.94,3.51-4.42,4.19-6.42,5.52-6,3.98-10.9,4-16.97,5.88-9.33,2.89-16.75,8.71-20.18,13.61-5.24,7.47-1.8,13.64-1.83,21.7-.08,17.93-17.33,31.45-33.02,43.76-7.39,5.79-27.59,20.3-57.79,27.58-16.35,3.94-21.98,2.48-35.78,8.09-3.7,1.5-15.74,6.67-33.94,23.53-12.53,11.61-14.57,16.33-37.61,44.49-13.82,16.89-20.88,25.47-27.98,31.62-15.94,13.81-32.85,22.06-44.53,26.84,0-47.68,0-95.36,0-143.04,4.33-2.68,10.9-6.54,19.3-10.66,16.13-7.92,28.68-11.75,46.33-17.28,34.46-10.8,51.69-16.2,59.63-19.49,16.44-6.82,21.42-36.51,35.01-47.85,11.64-9.73,14.97-11.8,28.89-16.94,9.18-3.39,19.58,.38,47.57-14.63C266.25,.22,288.02-7.54,312.08-17.11c6.52-2.59,33.09-14.48,86.23-38.24"/>
        <path class="cls-3" d="M473.35-1.61c-.17,2.55-.15,5.92,.51,9.8,.34,1.98,1.32,6.91,4.27,12.73,2.11,4.16,7.78,15.32,21.24,21.92,5.5,2.69,10.05,3.65,13.07,4.26,1.86,.38,6.35,1.24,20.07,1.41,8.39,.1,13.92-.37,17.58-.28,10.64,.26,17.6,7.29,21.75,10.6,8.09,6.46,12.43,13.72,14.03,16.44,2.81,4.79,3.55,7.33,7.52,12.99,1.84,2.62,3.24,4.92,7.04,7.83,4.9,3.75,9.25,3.68,14.5,6.49,8.94,4.77,11.72,11.65,13.42,16.88,1.88,5.79,2.24,7.33,4.78,15.11,1.34,4.11,3.84,7.32,8.08,10.54,4.57,3.47,10.52,4.45,12.43,4.71,1.76,.24,7.26,1.22,13.19-1.06,6.91-2.65,8.33-5.35,13.42-7.89,7.17-3.58,15.05-1.95,22.49-.8,6.52,1.01,11.21,2.1,19.08,5.28,9.5,3.84,14.58,6.4,20.25,10.56,8.32,6.11,12.51,12.75,13.34,14.05,3.66,5.74,3.72,7.28,6.86,14.71,2.54,6.01,6.92,9.36,15.32,11.8,1.35,.39,4.15,.9,9.76,1.9,6.05,1.09,6.97,1.09,9.31,1.63,3.16,.73,11.52-.39,11.5,4.6,.29-68.92-.17-135.25,0-204.93L473.35-1.61Z"/>
        <path class="cls-10" d="M476.85-1.59c-.16,2.27-.15,5.26,.5,8.71,.33,1.76,1.31,6.14,4.22,11.31,2.09,3.7,7.69,13.61,21.02,19.47,5.44,2.39,9.94,3.24,12.93,3.79,1.84,.34,6.28,1.1,19.86,1.25,8.3,.09,13.78-.33,17.4-.25,10.52,.23,17.42,6.48,21.52,9.42,8,5.74,12.3,12.19,13.88,14.6,2.78,4.26,3.51,6.52,7.44,11.54,1.82,2.33,3.21,4.37,6.97,6.96,4.85,3.33,9.15,3.27,14.35,5.76,8.85,4.24,11.59,10.35,13.27,15,1.86,5.14,2.21,6.52,4.73,13.43,1.33,3.66,3.8,6.51,7.99,9.36,4.53,3.08,10.41,3.95,12.29,4.18,1.74,.21,7.18,1.08,13.05-.94,6.84-2.36,8.25-4.75,13.27-7.01,7.09-3.18,14.89-1.73,22.25-.71,6.45,.9,11.09,1.86,18.88,4.69,9.4,3.41,14.43,5.69,20.04,9.38,8.24,5.43,12.38,11.33,13.2,12.48,3.62,5.1,3.68,6.47,6.79,13.07,2.51,5.34,6.85,8.32,15.16,10.48,1.33,.35,4.11,.8,9.66,1.69,5.99,.97,6.9,.97,9.21,1.45,3.13,.65,11.48-.28,11.46,4.48,.35-60.73,0-182.33,0-182.33L476.85-1.59Z"/>
        <path class="cls-2" d="M396.76-6.11c-3.36,2.55-8.55,5.96-15.71,8.84-3.68,1.48-12.69,4.75-24.94,5.44-12.83,.73-22.89-1.73-25.45-2.39-7.51-1.94-8.2-3.37-13-3.48-7.56-.18-13.42,3.18-20.59,7.4-8.86,5.22-8.88,7.09-16.25,11.76-2.81,1.78-11.99,7.32-23.94,10.17-2.76,.66-8.35,1.81-33.77,.91-25.4-.9-26.73-2.31-33.85-.62-16.78,3.96-25.73,15.6-27.09,17.42-3.51,4.72-6.87,11.56-5.96,34.41,1.15,28.84,6.95,29.26,4.88,43.12-.41,2.7-4.5,27.07-28.71,43.55-18.35,12.5-42.11,16.28-49.3,17.42-15.69,2.5-22.27,.91-32.51,6.1-11.45,5.8-16.84,14.68-21.67,22.65-7.6,12.52-6.05,17.69-13,31.36-5.24,10.31-11.5,17.97-15.76,22.65V-6.11s396.62,0,396.62,0Z"/>
        <path class="cls-4" d="M369.59-6.11c-3.13,2.37-7.97,5.54-14.64,8.22-3.43,1.37-11.82,4.42-23.23,5.06-11.95,.67-21.32-1.61-23.7-2.23-6.99-1.81-7.64-3.13-12.11-3.24-7.04-.17-12.5,2.95-19.18,6.89-8.25,4.86-8.27,6.6-15.14,10.94-2.62,1.65-11.17,6.8-22.3,9.46-2.57,.61-7.78,1.69-31.46,.85-23.66-.84-24.9-2.14-31.53-.58-15.63,3.69-23.97,14.51-25.23,16.2-3.27,4.39-6.4,10.75-5.55,32,1.07,26.82,6.48,27.22,4.54,40.1-.38,2.51-4.2,25.17-26.75,40.51-17.09,11.62-39.23,15.14-45.92,16.2-14.61,2.32-20.74,.85-30.28,5.67-10.67,5.39-15.68,13.65-20.19,21.06-7.08,11.65-5.64,16.45-12.11,29.16-4.88,9.59-10.72,16.71-14.68,21.06V-6.11s369.45,0,369.45,0Z"/>
      </g>
    </g>
  </g>
</svg>