<?xml version="1.0" encoding="UTF-8"?>
<svg xmlns="http://www.w3.org/2000/svg" xmlns:xlink="http://www.w3.org/1999/xlink" viewBox="0 0 807.96 255.36">
  <defs>
    <style>
      .cls-1 {
        fill: url(#linear-gradient-2);
      }

      .cls-2 {
        fill: #ffbd59;
      }

      .cls-3 {
        fill: #d268cc;
      }

      .cls-4 {
        fill: url(#Degradado_sin_nombre_127-4);
        mix-blend-mode: overlay;
        opacity: .5;
      }

      .cls-5 {
        fill: url(#linear-gradient-6);
      }

      .cls-6 {
        isolation: isolate;
      }

      .cls-7, .cls-8 {
        opacity: .2;
      }

      .cls-9, .cls-10 {
        opacity: .1;
      }

      .cls-9, .cls-11, .cls-8, .cls-12 {
        fill: #fff;
      }

      .cls-13 {
        opacity: .05;
      }

      .cls-14 {
        fill: url(#linear-gradient-11);
      }

      .cls-15 {
        fill: url(#linear-gradient-10);
      }

      .cls-16 {
        fill: url(#Degradado_sin_nombre_127-5);
      }

      .cls-17 {
        fill: url(#Degradado_sin_nombre_127-2);
      }

      .cls-18 {
        fill: #eba652;
      }

      .cls-19 {
        fill: url(#Degradado_sin_nombre_127-3);
      }

      .cls-20 {
        fill: url(#linear-gradient-5);
      }

      .cls-11 {
        opacity: .25;
      }

      .cls-12 {
        opacity: .15;
      }

      .cls-21 {
        fill: url(#linear-gradient-7);
      }

      .cls-22 {
        fill: url(#linear-gradient-9);
      }

      .cls-23 {
        fill: url(#linear-gradient-3);
      }

      .cls-24 {
        fill: url(#linear-gradient);
      }

      .cls-25 {
        fill: url(#linear-gradient-4);
      }

      .cls-26 {
        fill: url(#linear-gradient-8);
      }

      .cls-27 {
        fill: url(#Degradado_sin_nombre_127);
      }

      .cls-28 {
        fill: url(#linear-gradient-12);
      }
    </style>
    <linearGradient id="Degradado_sin_nombre_127" data-name="Degradado sin nombre 127" x1="2880.43" y1="34.74" x2="2955.51" y2="210.08" gradientTransform="translate(3104.39) rotate(-180) scale(1 -1)" gradientUnits="userSpaceOnUse">
      <stop offset="0" stop-color="#787ee6"/>
      <stop offset=".49" stop-color="#5e17eb"/>
      <stop offset=".87" stop-color="#312974"/>
    </linearGradient>
    <linearGradient id="Degradado_sin_nombre_127-2" data-name="Degradado sin nombre 127" x1="2956.23" y1="71.51" x2="2970.77" y2="271.59" xlink:href="#Degradado_sin_nombre_127"/>
    <linearGradient id="Degradado_sin_nombre_127-3" data-name="Degradado sin nombre 127" x1="619.79" y1="0" x2="619.79" y2="255.36" gradientTransform="matrix(1, 0, 0, 1, 0, 0)" xlink:href="#Degradado_sin_nombre_127"/>
    <linearGradient id="Degradado_sin_nombre_127-4" data-name="Degradado sin nombre 127" x1="744.94" y1="0" x2="744.94" y2="90.84" gradientTransform="matrix(1, 0, 0, 1, 0, 0)" xlink:href="#Degradado_sin_nombre_127"/>
    <linearGradient id="Degradado_sin_nombre_127-5" data-name="Degradado sin nombre 127" x1="-1530.22" y1="160.91" x2="-1523.42" y2="270.96" gradientTransform="translate(-1164.82) rotate(-180) scale(1 -1)" xlink:href="#Degradado_sin_nombre_127"/>
    <linearGradient id="linear-gradient" x1="528.62" y1="200.89" x2="531.41" y2="204.32" gradientUnits="userSpaceOnUse">
      <stop offset="0" stop-color="#ffe601"/>
      <stop offset="1" stop-color="#ff7c01"/>
    </linearGradient>
    <linearGradient id="linear-gradient-2" x1="140.32" y1="199.18" x2="145.7" y2="205.78" xlink:href="#linear-gradient"/>
    <linearGradient id="linear-gradient-3" x1="33.14" y1="91.05" x2="38.52" y2="97.65" xlink:href="#linear-gradient"/>
    <linearGradient id="linear-gradient-4" x1="312.02" y1="206.27" x2="317.4" y2="212.87" xlink:href="#linear-gradient"/>
    <linearGradient id="linear-gradient-5" x1="778.21" y1="30.26" x2="790.03" y2="44.76" xlink:href="#linear-gradient"/>
    <linearGradient id="linear-gradient-6" x1="137.4" y1="65.77" x2="140.89" y2="70.06" xlink:href="#linear-gradient"/>
    <linearGradient id="linear-gradient-7" x1="693.37" y1="116.85" x2="695.12" y2="119" xlink:href="#linear-gradient"/>
    <linearGradient id="linear-gradient-8" x1="58.32" y1="155.07" x2="68.04" y2="167" xlink:href="#linear-gradient"/>
    <linearGradient id="linear-gradient-9" x1="398.07" y1="178.53" x2="407.79" y2="190.46" xlink:href="#linear-gradient"/>
    <linearGradient id="linear-gradient-10" x1="746.13" y1="134.33" x2="754.23" y2="144.27" xlink:href="#linear-gradient"/>
    <linearGradient id="linear-gradient-11" x1="100.6" y1="52.05" x2="110.32" y2="63.98" xlink:href="#linear-gradient"/>
    <linearGradient id="linear-gradient-12" x1="645.29" y1="173.46" x2="651.95" y2="181.62" xlink:href="#linear-gradient"/>
  </defs>
  <g class="cls-6">
    <g id="Capa_2" data-name="Capa 2">
      <g id="Capa_18" data-name="Capa 18">
        <g>
          <path class="cls-27" d="M0,239.73V27.94c20.21,3.48,36.52,18.35,42.11,37.77,4.17-2.34,8.98-3.68,14.1-3.68,3.79,0,7.4,.75,10.72,2.07,9.69-16.91,27.9-28.3,48.77-28.3,31.04,0,56.21,25.18,56.21,56.25,0,2.1-.12,4.17-.35,6.22,1.54-.19,3.11-.3,4.71-.3,20.75,0,37.58,16.83,37.58,37.61,0,7.22-2.04,13.96-5.56,19.69,12.48,1.04,23.22,8.17,29.24,18.42,14.28,1.92,26.81,9.38,35.35,20.15,9.56-8.33,22.05-13.39,35.72-13.39,30.08,0,54.46,24.4,54.46,54.5v4.77H0Z"/>
          <path class="cls-17" d="M0,255.36V64.72c4.3-.85,8.75-1.3,13.31-1.3,37.73,0,68.32,30.57,68.32,68.28,0,.18-.01,.35-.01,.53,2.27-.35,4.6-.53,6.97-.53,25.29,0,45.78,20.48,45.78,45.75,0,.57-.02,1.13-.04,1.69,17.53,4.53,30.96,19.23,33.62,37.42,12.26-8.33,27.05-13.2,42.99-13.2,33.7,0,62.29,21.77,72.52,51.99H0Z"/>
          <g>
            <path class="cls-19" d="M807.96,255.36V1.74c-5.72-1.13-11.62-1.74-17.67-1.74-50.1,0-90.71,40.67-90.71,90.84,0,.23,.02,.47,.02,.7-3.02-.46-6.11-.7-9.25-.7-33.57,0-60.79,27.25-60.79,60.87,0,.75,.03,1.5,.06,2.25-23.27,6.02-41.1,25.58-44.64,49.79-16.27-11.08-35.92-17.55-57.08-17.55-44.74,0-82.71,28.96-96.29,69.17h376.35Z"/>
            <path class="cls-4" d="M781.02,1.59c-1.13,.32-2.35,.6-3.64,.93-1.29,.32-2.65,.66-4.1,1.02-1.44,.32-2.92,.94-4.47,1.42-1.54,.52-3.15,1.06-4.81,1.62-1.6,.73-3.28,1.41-4.98,2.15-.85,.36-1.71,.73-2.59,1.1-.86,.4-1.68,.91-2.54,1.36-1.7,.95-3.46,1.85-5.23,2.79-3.32,2.28-6.95,4.29-10.17,7.02-3.43,2.45-6.45,5.48-9.61,8.34-2.85,3.17-5.88,6.2-8.32,9.63-2.72,3.23-4.74,6.86-7.01,10.19-.95,1.77-1.84,3.54-2.79,5.23-.46,.86-.96,1.69-1.36,2.55-.37,.87-.74,1.74-1.1,2.59-.74,1.71-1.45,3.37-2.14,4.98-.56,1.67-1.1,3.27-1.62,4.82-.48,1.56-1.1,3.03-1.42,4.48-.36,1.46-.7,2.84-1.02,4.13-.33,1.3-.61,2.53-.92,3.66-.19,1.15-.36,2.21-.51,3.16-.62,3.83-1.07,6.07-1.07,6.07,0-50.17,40.61-90.84,90.71-90.84,0,0-2.21,.45-6.07,1.07-.97,.16-2.04,.33-3.2,.52Z"/>
          </g>
          <path class="cls-16" d="M227.35,255.36c6.74-6.14,15.54-10.16,25.3-10.88,3.11-29.96,29-53.35,60.47-53.35,11.81,0,22.82,3.3,32.15,9,8.81-22.2,30.85-37.94,56.67-37.94,33.57,0,60.79,26.6,60.79,59.42,0,3.52-.33,6.97-.93,10.32,.31,0,.62-.05,.93-.05,14.43,0,26.43,10.11,29.05,23.47H227.35Z"/>
          <path class="cls-24" d="M531.99,201.99l-.91-.11-.38-.83c-.21-.45-.55-.45-.76,0l-.38,.83-.91,.11c-.5,.06-.6,.38-.23,.72l.67,.62-.18,.89c-.1,.49,.18,.69,.62,.45h0s.79-.45,.79-.45l.79,.44h0c.44,.25,.71,.04,.62-.45l-.18-.89,.67-.62c.37-.34,.26-.66-.23-.72Z"/>
          <path class="cls-1" d="M146.8,201.3l-1.74-.2-.73-1.59c-.4-.87-1.06-.87-1.46,0l-.73,1.59-1.74,.2c-.95,.11-1.16,.74-.45,1.39l1.29,1.19-.34,1.72c-.19,.94,.34,1.33,1.18,.86h0s1.53-.86,1.53-.86l1.53,.86s0,0,0,0c.84,.47,1.37,.08,1.18-.86l-.34-1.72,1.29-1.19c.71-.65,.5-1.28-.45-1.39Z"/>
          <path class="cls-23" d="M39.62,93.17l-1.74-.2-.73-1.59c-.4-.87-1.06-.87-1.46,0l-.73,1.59-1.74,.2c-.96,.11-1.16,.74-.45,1.39l1.29,1.19-.34,1.72c-.19,.94,.34,1.33,1.18,.86h0s1.53-.86,1.53-.86l1.53,.86s0,0,0,0c.84,.47,1.37,.08,1.18-.86l-.34-1.72,1.29-1.19c.71-.65,.5-1.28-.45-1.39Z"/>
          <path class="cls-25" d="M318.51,208.39l-1.74-.2-.73-1.59c-.4-.87-1.06-.87-1.46,0l-.73,1.59-1.74,.2c-.95,.11-1.16,.74-.45,1.39l1.29,1.19-.34,1.72c-.19,.94,.34,1.33,1.18,.86h0s1.53-.86,1.53-.86l1.53,.86s0,0,0,0c.84,.47,1.37,.09,1.18-.86l-.34-1.72,1.29-1.19c.71-.65,.5-1.28-.45-1.39Z"/>
          <path class="cls-20" d="M792.46,34.91l-3.82-.45-1.61-3.5c-.88-1.91-2.32-1.91-3.21,0l-1.61,3.5-3.82,.45c-2.1,.25-2.54,1.62-.99,3.05l2.83,2.61-.75,3.77c-.42,2.07,.75,2.92,2.6,1.89h0s3.35-1.88,3.35-1.88l3.35,1.88s0,0,0,0c1.84,1.04,3.01,.19,2.6-1.89l-.75-3.77,2.83-2.61c1.55-1.43,1.11-2.81-.99-3.05Z"/>
          <path class="cls-5" d="M141.61,67.15l-1.13-.13-.48-1.04c-.26-.57-.69-.57-.95,0l-.48,1.04-1.13,.13c-.62,.07-.75,.48-.29,.9l.84,.77-.22,1.12c-.12,.61,.22,.86,.77,.56h0l.99-.56,.99,.56h0c.55,.31,.89,.06,.77-.56l-.22-1.12,.84-.77c.46-.42,.33-.83-.29-.9Z"/>
          <path class="cls-21" d="M695.49,117.54l-.57-.07-.24-.52c-.13-.28-.35-.28-.48,0l-.24,.52-.57,.07c-.31,.04-.38,.24-.15,.45l.42,.39-.11,.56c-.06,.31,.11,.43,.39,.28h0l.5-.28,.5,.28h0c.27,.15,.45,.03,.39-.28l-.11-.56,.42-.39c.23-.21,.16-.42-.15-.45Z"/>
          <path class="cls-26" d="M70.04,158.9l-3.15-.37-1.32-2.88c-.73-1.58-1.91-1.58-2.64,0l-1.32,2.88-3.14,.37c-1.73,.2-2.09,1.33-.81,2.51l2.33,2.15-.62,3.1c-.34,1.71,.62,2.41,2.14,1.55h0s2.76-1.55,2.76-1.55l2.76,1.55s0,0,0,0c1.52,.85,2.48,.15,2.14-1.55l-.62-3.1,2.33-2.15c1.28-1.18,.91-2.31-.81-2.51Z"/>
          <path class="cls-22" d="M409.79,182.35l-3.15-.37-1.32-2.88c-.73-1.58-1.91-1.58-2.64,0l-1.32,2.88-3.14,.37c-1.73,.2-2.09,1.33-.81,2.51l2.33,2.15-.62,3.1c-.34,1.71,.62,2.41,2.14,1.55h0s2.76-1.55,2.76-1.55l2.76,1.55s0,0,0,0c1.52,.85,2.48,.15,2.14-1.55l-.62-3.1,2.33-2.15c1.28-1.18,.91-2.31-.81-2.51Z"/>
          <path class="cls-15" d="M755.89,137.52l-2.62-.31-1.1-2.4c-.61-1.31-1.59-1.31-2.2,0l-1.1,2.4-2.62,.31c-1.44,.17-1.74,1.11-.68,2.09l1.94,1.79-.52,2.58c-.28,1.42,.52,2,1.78,1.29h0s2.3-1.29,2.3-1.29l2.29,1.29s0,0,0,0c1.26,.71,2.07,.13,1.78-1.29l-.52-2.58,1.94-1.79c1.06-.98,.76-1.92-.68-2.09Z"/>
          <path class="cls-14" d="M112.32,55.88l-3.15-.37-1.32-2.88c-.73-1.58-1.91-1.58-2.64,0l-1.32,2.88-3.14,.37c-1.73,.2-2.09,1.33-.81,2.51l2.33,2.15-.62,3.1c-.34,1.71,.62,2.41,2.14,1.55h0s2.76-1.55,2.76-1.55l2.76,1.55s0,0,0,0c1.52,.85,2.48,.15,2.14-1.55l-.62-3.1,2.33-2.15c1.28-1.18,.91-2.31-.81-2.51Z"/>
          <path class="cls-28" d="M653.32,176.08l-2.15-.25-.91-1.97c-.5-1.08-1.31-1.08-1.81,0l-.91,1.97-2.15,.25c-1.18,.14-1.43,.91-.56,1.72l1.59,1.47-.42,2.12c-.23,1.17,.42,1.65,1.46,1.06h0s1.89-1.06,1.89-1.06l1.89,1.06s0,0,0,0c1.04,.58,1.7,.1,1.46-1.06l-.43-2.12,1.59-1.47c.88-.81,.62-1.58-.56-1.72Z"/>
          <g id="Origami_Crane" data-name="Origami Crane">
            <g id="Origami_Crane-2" data-name="Origami Crane">
              <g>
                <path class="cls-3" d="M92.91,118.15l28.9-4.59c2.54-.4,5.1,.58,6.73,2.57l19.83,24.32-26.89,17.62,.56-11.5-24.35-19.06-4.78-9.36Z"/>
                <path class="cls-12" d="M92.91,118.15l28.9-4.59c2.54-.4,5.1,.58,6.73,2.57l19.83,24.32-26.89,17.62,.56-11.5-24.35-19.06-4.78-9.36Z"/>
                <path class="cls-11" d="M148.37,140.45l-19.83-24.32c-1.63-1.99-4.19-2.97-6.73-2.57l-28.9,4.59c8.16-.8,25.17-3.41,28.45-3.9,3.28-.49,5.11,.47,7.54,3.23,2.43,2.76,19.46,22.97,19.46,22.97Z"/>
                <g>
                  <path class="cls-3" d="M127.59,154.06s.49-6.89,.83-16.12c.34-9.23,.52-15.88,.88-17.52,.36-1.64,18.52,20.38,18.52,20.38l-20.23,13.25Z"/>
                  <path class="cls-10" d="M127.59,154.06s.49-6.89,.83-16.12c.34-9.23,.52-15.88,.88-17.52,.36-1.64,18.52,20.38,18.52,20.38l-20.23,13.25Z"/>
                </g>
                <path class="cls-3" d="M126.47,154.8s.8-26.7,.86-32.72c.06-6.01-1.38-7.89-2.34-6.33-.96,1.56-14.28,21.94-14.28,21.94l11.34,8.87-.56,11.5,4.99-3.27Z"/>
              </g>
              <g>
                <path class="cls-3" d="M123.34,113.49c2,.11,3.9,1.05,5.2,2.64l19.83,24.31,5.11-9.5,38.85-57.98-62.8,31.3-6.18,9.22Z"/>
                <path class="cls-3" d="M123.34,113.49c2,.11,3.9,1.05,5.2,2.64l6.06,7.43,3.34-4.42,54.38-46.17-62.8,31.3-6.18,9.22Z"/>
                <path class="cls-9" d="M123.34,113.49c2,.11,3.9,1.05,5.2,2.64l6.06,7.43,3.34-4.42,54.38-46.17-62.8,31.3-6.18,9.22Z"/>
                <path class="cls-10" d="M123.34,113.49l6.18-9.22,8.42,14.87,15.53,11.81-5.11,9.5-19.83-24.31c-1.3-1.59-3.19-2.53-5.2-2.64Z"/>
              </g>
              <g>
                <polygon class="cls-3" points="89.99 112.43 84.41 43.9 108.01 115.75 92.91 118.15 89.99 112.43"/>
                <polygon class="cls-10" points="104.03 116.38 84.41 43.9 108.01 115.75 104.03 116.38"/>
              </g>
              <g>
                <g>
                  <polygon class="cls-3" points="38.55 81.23 104.35 144.25 122.04 146.56 38.55 81.23"/>
                  <polygon class="cls-7" points="38.55 81.23 104.35 144.25 122.04 146.56 38.55 81.23"/>
                  <polygon class="cls-3" points="38.55 81.23 88.13 108.79 97.69 127.51 38.55 81.23"/>
                  <polygon class="cls-9" points="38.55 81.23 88.13 108.79 97.69 127.51 38.55 81.23"/>
                </g>
                <g>
                  <polygon class="cls-3" points="120.17 184.98 102.94 150.59 81.04 141.39 82.91 123.71 104.35 144.25 122.04 146.56 120.17 184.98"/>
                  <polygon class="cls-10" points="120.17 184.98 102.94 150.59 81.04 141.39 82.91 123.71 104.35 144.25 122.04 146.56 120.17 184.98"/>
                  <polygon class="cls-13" points="102.94 150.59 104.35 144.25 82.91 123.71 81.04 141.39 102.94 150.59"/>
                  <polygon class="cls-7" points="122.04 146.56 104.17 145.08 102.94 150.59 103.32 144.56 82.91 123.71 104.35 144.25 122.04 146.56"/>
                </g>
              </g>
              <g>
                <path class="cls-3" d="M165.92,129.47l10.06,3.28c.34,.11,.57,.42,.58,.78l.55,18.68-7.44-17.69c-.27-.64-1.11-.79-1.59-.29l-47.92,50.73,1.31-26.91,42.87-28.38c.46-.31,1.04-.39,1.57-.21Z"/>
                <polygon class="cls-7" points="147.81 140.81 122.41 159 120.17 184.98 121.48 158.06 147.81 140.81"/>
                <path class="cls-3" d="M169.68,134.53l7.44,17.69-12.67-14.11,3.65-3.86c.48-.51,1.32-.35,1.59,.29Z"/>
                <path class="cls-7" d="M169.68,134.53l7.44,17.69-12.67-14.11,3.65-3.86c.48-.51,1.32-.35,1.59,.29Z"/>
                <polygon class="cls-3" points="135.64 181.96 165.87 139.69 164.45 138.11 131.26 173.24 135.64 181.96"/>
                <polygon class="cls-10" points="135.64 181.96 165.87 139.69 164.45 138.11 131.26 173.24 135.64 181.96"/>
                <path class="cls-8" d="M176.34,133.89c-.04-.7-.2-.83-.69-.97-1.65-.48-5.39-1.49-7.78-2.1-2.42-.62-3.13-.46-1.61,.39,1.53,.86,2.53,1.37,3.24,1.86,.62,.42,.84,1.01,1.2,1.93,1.4,3.61,6.41,17.23,6.41,17.23,0,0-.73-17.62-.77-18.33Z"/>
              </g>
            </g>
          </g>
          <g>
            <path class="cls-2" d="M697.13,78.67l-17.49-12.23c-1.54-1.07-3.53-1.25-5.23-.46l-20.76,9.62,12.01,20.13,3.3-7.72,22.05-4.73,6.12-4.61Z"/>
            <path class="cls-12" d="M697.13,78.67l-17.49-12.23c-1.54-1.07-3.53-1.25-5.23-.46l-20.76,9.62,12.01,20.13,3.3-7.72,22.05-4.73,6.12-4.61Z"/>
            <path class="cls-11" d="M653.64,75.6l20.76-9.62c1.7-.79,3.69-.61,5.23,.46l17.49,12.23c-5.09-3.13-15.42-10.26-17.42-11.63-2-1.37-3.51-1.32-5.98-.28-2.47,1.04-20.09,8.85-20.09,8.85Z"/>
            <path class="cls-18" d="M662.92,91.16s1.88-4.67,4.6-10.83c2.72-6.16,4.73-10.58,5.01-11.77,.29-1.19-18.65,7.46-18.65,7.46l9.04,15.14Z"/>
            <path class="cls-10" d="M662.92,91.16s1.88-4.67,4.6-10.83c2.72-6.16,4.73-10.58,5.01-11.77,.29-1.19-18.65,7.46-18.65,7.46l9.04,15.14Z"/>
            <path class="cls-18" d="M663.42,92s8-17.77,9.87-21.73c1.88-3.96,3.42-4.73,3.56-3.4,.13,1.33,2.37,18.95,2.37,18.95l-10.26,2.2-3.3,7.72-2.23-3.73Z"/>
            <path class="cls-18" d="M678.65,65.9c-1.35-.57-2.89-.55-4.25,.08l-20.76,9.62-.32-7.86-6.98-50.42,31.2,40.56,1.11,8.02Z"/>
            <path class="cls-2" d="M678.65,65.9c-1.35-.57-2.89-.55-4.25,.08l-6.35,2.94-.78-3.97-20.94-47.63,31.2,40.56,1.11,8.02Z"/>
            <path class="cls-9" d="M678.65,65.9c-1.35-.57-2.89-.55-4.25,.08l-6.35,2.94-.78-3.97-20.94-47.63,31.2,40.56,1.11,8.02Z"/>
            <path class="cls-10" d="M678.65,65.9l-1.11-8.02-10.26,7.07-13.95,2.79,.32,7.86,20.76-9.62c1.36-.63,2.9-.64,4.25-.08Z"/>
            <polygon class="cls-2" points="700.86 75.85 726.38 32.68 687.98 72.28 697.13 78.67 700.86 75.85"/>
            <polygon class="cls-10" points="690.39 73.96 726.38 32.68 687.98 72.28 690.39 73.96"/>
            <polygon class="cls-18" points="744.55 71.8 681.29 92.14 668.95 88.01 744.55 71.8"/>
            <polygon class="cls-7" points="744.55 71.8 681.29 92.14 668.95 88.01 744.55 71.8"/>
            <polygon class="cls-2" points="744.55 71.8 703.25 74.05 691 83.28 744.55 71.8"/>
            <polygon class="cls-9" points="744.55 71.8 703.25 74.05 691 83.28 744.55 71.8"/>
            <polygon class="cls-18" points="657.92 113.8 680.2 96.75 697.49 97.7 701.91 85.51 681.29 92.14 668.95 88.01 657.92 113.8"/>
            <polygon class="cls-10" points="657.92 113.8 680.2 96.75 697.49 97.7 701.91 85.51 681.29 92.14 668.95 88.01 657.92 113.8"/>
            <polygon class="cls-7" points="668.95 88.01 681.15 92.74 680.2 96.75 681.87 92.67 701.91 85.51 681.29 92.14 668.95 88.01"/>
            <path class="cls-2" d="M645.63,62.81l-7.64-1.05c-.26-.04-.51,.09-.63,.33l-6.32,12.08,10.52-9.23c.38-.33,.98-.17,1.13,.32l15.25,48.56,7.73-18.07-19.06-32.29c-.21-.35-.56-.59-.96-.64Z"/>
            <polygon class="cls-7" points="653.89 76.02 664.74 96.05 657.92 113.8 665.65 95.73 653.89 76.02"/>
            <path class="cls-18" d="M641.55,64.93l-10.52,9.23,12.81-5.21-1.16-3.69c-.15-.48-.75-.65-1.13-.32Z"/>
            <path class="cls-7" d="M641.55,64.93l-10.52,9.23,12.81-5.21-1.16-3.69c-.15-.48-.75-.65-1.13-.32Z"/>
            <polygon class="cls-18" points="648.74 107.19 642.4 69.53 643.84 68.94 654.4 102.57 648.74 107.19"/>
            <polygon class="cls-10" points="648.74 107.19 642.4 69.53 643.84 68.94 654.4 102.57 648.74 107.19"/>
            <path class="cls-8" d="M637.38,62.38c.25-.45,.4-.48,.77-.42,1.24,.21,4.01,.74,5.78,1.1,1.79,.37,2.2,.7,.93,.77-1.27,.07-2.1,.09-2.72,.18-.54,.08-.87,.39-1.4,.88-2.07,1.92-9.7,9.25-9.7,9.25,0,0,6.1-11.32,6.35-11.77Z"/>
          </g>
        </g>
      </g>
    </g>
  </g>
</svg>