<?xml version="1.0" encoding="UTF-8"?>
<svg id="Capa_2" data-name="Capa 2" xmlns="http://www.w3.org/2000/svg" xmlns:xlink="http://www.w3.org/1999/xlink" viewBox="0 0 808 401.62">
  <defs>
    <style>
      .cls-1 {
        fill: url(#Degradado_sin_nombre_18);
      }

      .cls-2 {
        fill: #a891e2;
      }

      .cls-3 {
        fill: url(#Degradado_sin_nombre_2);
      }
    </style>
    <linearGradient id="Degradado_sin_nombre_2" data-name="Degradado sin nombre 2" x1="188.36" y1="69.43" x2="186.33" y2="445.87" gradientUnits="userSpaceOnUse">
      <stop offset=".37" stop-color="#522879"/>
      <stop offset=".93" stop-color="#502d7d" stop-opacity=".9"/>
    </linearGradient>
    <linearGradient id="Degradado_sin_nombre_18" data-name="Degradado sin nombre 18" x1="622.61" y1="133.28" x2="622.61" y2="527.18" gradientUnits="userSpaceOnUse">
      <stop offset=".19" stop-color="#522879"/>
      <stop offset=".93" stop-color="#502d7d" stop-opacity=".9"/>
    </linearGradient>
  </defs>
  <g id="Capa_1-2" data-name="Capa 1">
    <g>
      <path class="cls-2" d="M408.54,.01c-.04,1.17-.24,2.95-1.07,4.94-3.51,8.39-13.17,8.45-22.59,16.07-10.72,8.66-6.96,15.63-15.95,18.62-6.2,2.06-10.08-.56-18.12,2.56-1.95,.76-7.11,2.76-9.86,6.46-7.14,9.59,10.08,19.53,6.48,35.71-1.86,8.35-7.04,8.41-11.65,22.37-2.26,6.84-1.68,8.86-2.37,12.45,0,0-.31,1.49-.85,3.16-8.25,25.95-32.76,41.67-32.76,41.67-11.64,7.47-21.59,9.49-41.49,13.53-8.33,1.69-17.54,2.96-35.95,5.49-19.79,2.72-23.41,2.79-30.08,6.22-2.31,1.19-17.17,9.05-22.37,22.77-.64,1.7-1.68,4.55-2.27,7.12-1.45,6.33-.74,10.15-3.46,16.9-3.02,7.49-7.39,12.46-15.95,19.67-7.37,6.2-13.83,11.63-23.36,13.29-5.89,1.03-17.67,1.44-29.39-3.29-4.14-1.67-10.79-5-14.16-2.01-.45,.4-.94,1.05-1.64,2.79-1.28,3.17-.9,6.77-.87,13.42,.08,16.31,.13,24.46-3.93,32.42-4.3,8.43-11.61,14.48-14.31,16.55-5.08,3.92-10.5,6.71-10.5,6.71-2.89,1.49-4.44,2.03-10.92,5.12-4.06,1.94-6.09,2.91-6.76,3.3-11.61,6.86-12.68,22.17-12.72,22.97-.13,2.4,.12,3.79-.16,9.01-.25,4.72-.39,7.12-1.1,9.26-1.68,5.06-5.14,8.52-6.97,10.13-4.47,3.91-8.95,5.27-11.44,5.97V0H408.54Z"/>
      <path class="cls-3" d="M377.48,0c-.81,1.22-2.01,2.91-3.72,4.71-.84,.88-4.26,4.37-9.58,7.05-2.88,1.45-4.59,2.04-6.26,2.6-2.27,.76-3,.75-4.53,1.83-6.74,4.79-3.22,12.76-8.38,21.09-7.18,11.6-20.09,5.95-25.17,16.03-4.42,8.78-.58,15.58-.73,29.47-.32,29.73-24.07,56.2-43.99,68.06-6.91,4.11-16.46,8.52-28.5,10.9-11.7,2.32-15.19,.54-30.81,3.24-8.01,1.38-15.87,2.74-24.22,6.33-4.33,1.86-18.35,8.6-28.34,22.84-1.06,1.51-4.52,6.59-7.25,13.85-4.17,11.08-1.96,14.81-5.27,23.57-1.66,4.4-5.14,13.63-14.66,19.3-10.06,5.99-25.7,7.3-36.57,2.65-2.59-1.11-4.71-2.47-8.4-2.65-6.41-.32-13.08,3.13-16.47,7.81-2.91,4.01-2.34,7.44-2.31,15.91,.07,16.01,.1,24.02-3.62,31.82-3.95,8.28-10.67,14.2-13.15,16.24-4.66,3.84-9.65,6.59-9.65,6.59-2.65,1.46-4.08,1.99-10.04,5.02-3.73,1.9-5.6,2.85-6.21,3.24-10.66,6.73-11.66,21.76-11.7,22.54-.12,2.36,.11,3.72-.15,8.84-.23,4.63-.36,6.99-1.01,9.09-1.54,4.97-4.72,8.36-6.41,9.94-4.11,3.83-8.09,5.48-10.39,6.17V0H377.48Z"/>
      <path class="cls-2" d="M406.43,.01c.04,1.17,.23,2.95,1.05,4.95,3.45,8.39,12.93,8.45,22.19,16.08,10.53,8.67,6.84,15.64,15.67,18.63,6.09,2.06,9.91-.56,17.8,2.56,1.91,.76,6.98,2.76,9.69,6.46,7.01,9.59-9.9,19.54-6.36,35.74,1.83,8.35,6.92,8.42,11.44,22.38,2.22,6.85,1.65,8.86,2.33,12.45,0,0,.31,1.49,.83,3.17,8.1,25.97,32.18,41.7,32.18,41.7,11.43,7.47,21.21,9.5,40.75,13.54,8.18,1.69,17.23,2.96,35.32,5.49,19.44,2.72,23,2.8,29.55,6.22,2.27,1.19,16.87,9.05,21.98,22.79,.63,1.7,1.65,4.55,2.23,7.12,1.42,6.34,.73,10.16,3.4,16.91,2.96,7.5,7.26,12.47,15.67,19.68,7.24,6.21,13.58,11.64,22.95,13.3,5.78,1.03,17.36,1.44,28.87-3.3,4.07-1.67,10.6-5.01,13.91-2.01,.44,.4,.92,1.05,1.61,2.79,1.26,3.17,.88,6.77,.85,13.43-.08,16.32-.12,24.48,3.86,32.44,4.22,8.44,11.41,14.49,14.05,16.56,4.99,3.92,10.32,6.72,10.32,6.72,2.84,1.49,4.36,2.03,10.73,5.12,3.99,1.94,5.98,2.91,6.64,3.3,11.4,6.87,12.46,22.19,12.5,22.98,.13,2.4-.12,3.79,.15,9.01,.25,4.72,.38,7.13,1.08,9.26,1.65,5.07,5.04,8.53,6.85,10.13,4.39,3.91,9.05,5.27,11.5,5.97V0S406.43,.01,406.43,.01Z"/>
      <path class="cls-1" d="M437.22,0c.8,1.22,1.97,2.86,3.65,4.66,.83,.88,4.18,4.37,9.41,7.05,2.83,1.45,4.5,2.04,6.15,2.6,2.23,.76,2.95,.75,4.45,1.83,6.62,4.79,3.16,12.76,8.23,21.09,7.05,11.6,19.73,5.94,24.72,16.02,4.34,8.78,.57,15.57,.72,29.47,.31,29.72,23.64,56.18,43.21,68.04,6.79,4.11,16.16,8.52,28,10.9,11.49,2.31,14.92,.54,30.26,3.24,7.87,1.38,15.59,2.74,23.79,6.33,4.25,1.86,18.02,8.59,27.83,22.83,1.04,1.51,4.44,6.59,7.12,13.84,4.09,11.07,1.93,14.8,5.18,23.56,1.63,4.4,5.05,13.63,14.4,19.29,9.88,5.99,25.24,7.3,35.92,2.65,2.55-1.11,4.62-2.47,8.25-2.65,6.3-.32,12.84,3.13,16.18,7.81,2.86,4.01,2.3,7.44,2.27,15.91-.07,16-.1,24.01,3.56,31.81,3.88,8.27,10.48,14.2,12.91,16.24,4.58,3.84,9.48,6.58,9.48,6.58,2.61,1.46,4.01,1.99,9.86,5.02,3.67,1.9,5.5,2.85,6.1,3.24,10.47,6.73,11.45,21.75,11.49,22.53,.12,2.36-.11,3.72,.15,8.84,.23,4.63,.36,6.99,1,9.08,1.52,4.97,4.64,8.36,6.29,9.93,4.04,3.83,7.95,5.48,10.2,6.16V0s-370.78,0-370.78,0Z"/>
    </g>
  </g>
</svg>