<?xml version="1.0" encoding="UTF-8"?>
<svg id="Capa_2" data-name="Capa 2" xmlns="http://www.w3.org/2000/svg" viewBox="0 0 808 373.89">
  <defs>
    <style>
      .cls-1 {
        fill: #a891e2;
      }

      .cls-2 {
        fill: #512878;
      }
    </style>
  </defs>
  <g id="Capa_1-2" data-name="Capa 1">
    <g>
      <path class="cls-1" d="M330.4,.12c-.03,1.09-.19,2.74-.87,4.6-2.84,7.8-10.64,7.86-18.26,14.95-8.66,8.06-5.63,14.55-12.89,17.32-5.01,1.91-8.15-.52-14.64,2.38-1.58,.7-5.74,2.57-7.97,6.01-5.77,8.92,8.15,18.17,5.24,33.23-1.5,7.77-5.69,7.83-9.41,20.81-2.29,7.99-.97,8.9-2.6,14.53-4.47,15.4-18.95,24.41-26.66,29.2-3.66,2.28-12.48,7.66-25.08,10.35-10.3,2.2-13.37,.52-27.11,3.09-7.05,1.32-13.97,2.61-21.31,6.02-3.81,1.77-16.14,8.16-24.93,21.66-.93,1.43-3.97,6.25-6.37,13.13-3.66,10.5-1.72,14.04-4.63,22.35-1.46,4.17-4.52,12.93-12.89,18.3-8.85,5.68-22.61,6.94-32.19,2.53-2.28-1.05-4.14-2.34-7.4-2.51-5.64-.3-11.51,2.97-14.49,7.41-2.56,3.81-2.06,7.05-2.02,15.08,.07,15.18,.1,22.76-3.17,30.17-3.47,7.85-9.39,13.47-11.56,15.4-4.1,3.64-8.49,6.25-8.49,6.25-2.34,1.39-3.59,1.88-8.83,4.76-3.28,1.8-4.92,2.7-5.46,3.07-9.38,6.39-10.25,20.63-10.28,21.37-.11,2.23,.1,3.52-.13,8.38-.2,4.39-.31,6.63-.89,8.61-1.36,4.71-4.15,7.93-5.63,9.42-3.61,3.63-7.45,4.9-9.46,5.55V0L330.4,.12Z"/>
      <path class="cls-2" d="M298.79,0c-.03,1.09-.18,2.74-.79,4.6-2.57,7.8-9.63,7.86-16.53,14.94-7.84,8.06-5.1,14.54-11.67,17.32-4.53,1.91-7.37-.52-13.25,2.37-1.43,.7-5.2,2.56-7.21,6-5.22,8.92,7.36,18.18,4.72,33.24-1.36,7.77-5.15,7.82-8.53,20.81-2.08,7.99-.88,8.9-2.36,14.52-4.05,15.39-17.16,24.4-24.13,29.19-3.31,2.27-11.29,7.65-22.69,10.33-9.32,2.19-12.09,.51-24.53,3.07-6.38,1.31-12.64,2.6-19.28,6-3.45,1.77-14.61,8.15-22.56,21.65-.84,1.43-3.6,6.25-5.77,13.13-3.32,10.5-1.56,14.04-4.2,22.34-1.32,4.17-4.1,12.92-11.67,18.29-8.01,5.68-20.46,6.92-29.12,2.51-2.06-1.05-3.75-2.34-6.69-2.51-5.11-.3-10.41,2.96-13.12,7.4-2.32,3.81-1.87,7.05-1.84,15.08,.05,15.18,.08,22.76-2.89,30.16-3.15,7.84-8.5,13.46-10.47,15.4-3.71,3.64-7.68,6.24-7.68,6.24-2.11,1.38-3.25,1.88-7.99,4.76-2.97,1.8-4.46,2.7-4.94,3.07-8.49,6.38-9.28,20.63-9.31,21.37-.1,2.23,.09,3.52-.12,8.38-.19,4.39-.29,6.63-.81,8.61-1.23,4.71-3.76,7.93-5.1,9.42-3.27,3.63-6.44,5.2-8.27,5.84V0H298.79Z"/>
      <path class="cls-1" d="M476.71,0c.03,1.09,.19,2.74,.87,4.6,2.85,7.81,10.66,7.86,18.3,14.95,8.68,8.06,5.64,14.56,12.93,17.33,5.02,1.91,8.16-.52,14.67,2.38,1.58,.7,5.76,2.57,7.99,6.01,5.78,8.92-8.15,18.19-5.23,33.26,1.51,7.77,5.71,7.83,9.44,20.82,2.3,8,.98,8.91,2.61,14.53,4.48,15.41,19,24.41,26.72,29.21,3.67,2.28,12.5,7.65,25.12,10.34,10.32,2.2,13.39,.51,27.16,3.07,7.06,1.31,13.99,2.6,21.35,6.01,3.82,1.77,16.18,8.15,24.98,21.66,.93,1.43,3.98,6.25,6.39,13.14,3.67,10.51,1.73,14.05,4.65,22.36,1.46,4.18,4.54,12.93,12.93,18.31,8.87,5.68,22.65,6.93,32.24,2.52,2.29-1.05,4.15-2.34,7.41-2.52,5.65-.3,11.53,2.97,14.52,7.41,2.57,3.81,2.07,7.06,2.03,15.09-.06,15.19-.09,22.78,3.2,30.19,3.48,7.85,9.41,13.47,11.59,15.41,4.11,3.64,8.51,6.25,8.51,6.25,2.34,1.39,3.6,1.88,8.85,4.76,3.29,1.8,4.93,2.7,5.48,3.07,9.4,6.39,10.28,20.64,10.31,21.38,.11,2.24-.1,3.53,.13,8.39,.2,4.39,.32,6.63,.89,8.62,1.36,4.72,4.16,7.93,5.65,9.43,3.62,3.64,7.59,5.2,9.61,5.85V0H476.71Z"/>
      <path class="cls-2" d="M509.33,.06c.03,1.09,.17,2.74,.79,4.6,2.57,7.81,9.61,7.86,16.49,14.95,7.83,8.06,5.09,14.56,11.65,17.33,4.52,1.91,7.36-.52,13.22,2.38,1.42,.7,5.19,2.57,7.2,6.01,5.21,8.92-7.35,18.19-4.71,33.26,1.36,7.77,5.14,7.83,8.51,20.82,2.07,8,.88,8.91,2.36,14.53,4.04,15.41,17.12,24.41,24.09,29.21,3.3,2.28,11.27,7.65,22.65,10.34,9.3,2.2,12.07,.51,24.48,3.07,6.36,1.31,12.61,2.6,19.24,6.01,3.44,1.77,14.58,8.15,22.52,21.66,.84,1.43,3.59,6.25,5.76,13.14,3.31,10.51,1.56,14.05,4.19,22.36,1.32,4.18,4.09,12.93,11.65,18.31,7.99,5.68,20.42,6.93,29.06,2.52,2.06-1.05,3.74-2.34,6.68-2.52,5.1-.3,10.39,2.97,13.09,7.41,2.32,3.81,1.86,7.06,1.83,15.09-.05,15.19-.08,22.78,2.88,30.19,3.14,7.85,8.48,13.47,10.45,15.41,3.71,3.64,7.67,6.25,7.67,6.25,2.11,1.39,3.24,1.88,7.97,4.76,2.96,1.8,4.45,2.7,4.93,3.07,8.47,6.39,9.26,20.64,9.29,21.38,.1,2.24-.09,3.53,.12,8.39,.18,4.39,.29,6.63,.8,8.62,1.23,4.72,3.75,7.93,5.09,9.43,3.27,3.64,6.84,5.2,8.66,5.85L808,0,509.33,.06Z"/>
    </g>
  </g>
</svg>