<?xml version="1.0" encoding="UTF-8"?>
<svg id="Capa_2" data-name="Capa 2" xmlns="http://www.w3.org/2000/svg" xmlns:xlink="http://www.w3.org/1999/xlink" viewBox="0 0 656.85 348.93">
  <defs>
    <style>
      .cls-1 {
        fill: #d268cc;
      }

      .cls-2 {
        fill: #522879;
      }

      .cls-3 {
        fill: #f6f6f6;
      }

      .cls-4 {
        fill: #f5f5f5;
      }

      .cls-5, .cls-6 {
        opacity: .2;
      }

      .cls-7, .cls-8 {
        opacity: .1;
      }

      .cls-7, .cls-9, .cls-6, .cls-10, .cls-11 {
        fill: #fff;
      }

      .cls-12 {
        fill: url(#Degradado_sin_nombre_34);
      }

      .cls-13 {
        opacity: .05;
      }

      .cls-14 {
        fill: #3c3685;
        opacity: .3;
      }

      .cls-15 {
        fill: #e1e1e1;
      }

      .cls-16, .cls-10 {
        opacity: .15;
      }

      .cls-17 {
        fill: #322b57;
      }

      .cls-9, .cls-18 {
        opacity: .25;
      }

      .cls-19 {
        fill: #9a38a5;
      }

      .cls-11 {
        opacity: .6;
      }
    </style>
    <linearGradient id="Degradado_sin_nombre_34" data-name="Degradado sin nombre 34" x1="328.43" y1="323.87" x2="328.43" y2="0" gradientUnits="userSpaceOnUse">
      <stop offset=".09" stop-color="#522879"/>
      <stop offset=".26" stop-color="#502a7b" stop-opacity=".97"/>
      <stop offset=".42" stop-color="#4c3281" stop-opacity=".88"/>
      <stop offset=".56" stop-color="#453f8d" stop-opacity=".73"/>
      <stop offset=".71" stop-color="#3c529c" stop-opacity=".52"/>
      <stop offset=".84" stop-color="#306ab0" stop-opacity=".26"/>
      <stop offset=".95" stop-color="#2581c4" stop-opacity="0"/>
    </linearGradient>
  </defs>
  <g id="Capa_1-2" data-name="Capa 1">
    <path class="cls-12" d="M329.59,4.29c109.09-1.43,218.18-2.86,327.26-4.29-1.95,1.88-5.24,4.6-10.47,7.1-4.47,2.14-6.22,2.13-9.47,3.83-6.28,3.28-8.22,7.7-9.76,11.41-2.92,7.02-2.99,13.11-4.72,18.3-2.2,6.62-11.97,12.29-19.36,15.01-27.55,10.15-32.19,6.07-49.09,15.87-20.27,11.75-21.29,30.67-21.25,49.89,.01,8.04,.83,13.82,4.02,28.38,3,13.68-1.68,40.82-15.41,58-6.31,7.9-15.97,15.43-30.49,21.65-8.74,3.74-21.96,6.39-32.64,6.76-6.89,.24-22.73-2.79-32.3,3.05-11.53,7.04,.73,20.61-15.46,33.97-5.73,4.73-13.75,8.12-16.05,9.1-14.16,6-21.64,4.83-28.3,10.18-5.43,4.37-1.77,6.2-7.91,13.01-6.65,7.36-11.63,5.98-16.28,11.65-1.58,1.93-.88,2.75-2.26,4.08-3.48,3.37-10.55,3.5-14.12,.26-1.41-1.28-.73-2.14-2.36-4.02-4.8-5.55-9.74-4.03-16.58-11.22-6.33-6.64-2.71-8.57-8.25-12.8-6.8-5.18-14.25-3.82-28.55-9.44-2.33-.92-10.43-4.1-16.28-8.67-16.54-12.93-4.64-26.82-16.35-33.55-9.72-5.59-25.47-2.14-32.37-2.2-10.69-.09-23.97-2.39-32.81-5.91-14.68-5.83-24.53-13.11-31.05-20.84-14.18-16.81-19.57-43.83-16.93-57.58,2.81-14.64,3.47-20.45,3.28-28.48-.47-19.21-1.98-38.1-22.56-49.31-17.15-9.35-21.67-5.15-49.49-14.57-7.47-2.53-17.37-7.94-19.75-14.5-1.86-5.14-2.09-11.23-5.19-18.17-1.64-3.66-3.7-8.04-10.06-11.15-3.3-1.61-5.04-1.57-9.57-3.58C5.36,13.15,2,10.52,0,8.69c109.09-1.43,218.05-2.94,327.14-4.37l2.45-.03Z"/>
    <circle class="cls-2" cx="328.43" cy="333.23" r="5.14"/>
    <circle class="cls-2" cx="321.47" cy="346.32" r="2.61"/>
  </g>
  <g id="Capa_3" data-name="Capa 3">
    <g id="Cloud">
      <path id="Cloud-2" data-name="Cloud" class="cls-4" d="M286.52,195.09h-3.54s0-6.36,0-6.36c0-4.64-4.93-7.89-10.29-7.89-5.36,0-9.7,3.76-9.7,8.4v.85c-1.22-.89-2.79-1.43-4.5-1.43-3.86,0-6.98,2.71-6.98,6.05v.39h-4.94c-2.54,0-4.6,1.78-4.6,3.98s2.06,3.98,4.6,3.98h39.96c2.54,0,4.6-1.78,4.6-3.98s-2.06-3.98-4.6-3.98Z"/>
      <polygon class="cls-4" points="266.73 183.7 267.31 183.7 267.75 30.33 267.18 30.33 266.73 183.7"/>
    </g>
    <g id="Cloud-3" data-name="Cloud">
      <path id="Cloud-4" data-name="Cloud" class="cls-4" d="M333.74,172.81h3.54s0-6.36,0-6.36c0-4.64,4.93-7.89,10.29-7.89,5.36,0,9.7,3.76,9.7,8.4v.85c1.22-.89,2.79-1.43,4.5-1.43,3.86,0,6.98,2.71,6.98,6.05v.39s4.94,0,4.94,0c2.54,0,4.6,1.78,4.6,3.98s-2.06,3.98-4.6,3.98h-39.96c-2.54,0-4.6-1.78-4.6-3.98s2.06-3.98,4.6-3.98Z"/>
      <polygon class="cls-4" points="353.53 161.42 352.95 161.42 352.73 30.33 353.31 30.33 353.53 161.42"/>
    </g>
  </g>
  <g id="Capa_8" data-name="Capa 8">
    <circle class="cls-1" cx="206.96" cy="98.49" r="40.49" transform="translate(-3.45 189.38) rotate(-48.81)"/>
    <circle class="cls-14" cx="206.96" cy="98.49" r="40.49" transform="translate(-3.45 189.38) rotate(-48.81)"/>
    <path class="cls-17" d="M251.63,73.29c-2.7-4.93-9.74-6.92-19.11-6.19,1.1,.89,2.15,1.84,3.14,2.85,4.98,.19,8.58,1.65,10.11,4.45,1.38,2.52,.93,5.85-.99,9.62-4.41,8.57-16.54,19.38-32.54,28.11-13.54,7.39-26.84,11.64-36.43,12.22-6.7,.4-11.58-1.01-13.44-4.41-2.01-3.69-.15-9.1,4.6-15.07-.1-.58-.17-1.18-.24-1.78-.07-.63-.13-1.27-.18-1.91-7.77,8.79-11.1,17.23-7.99,22.91,3.04,5.57,11.62,7.38,22.83,5.77,9.96-1.42,21.99-5.55,34.08-12.15,13.95-7.61,25.1-16.96,31.45-25.59,5.36-7.27,7.32-14.04,4.69-18.83Z"/>
    <path class="cls-1" d="M239.32,111.06c.12,1.02-.61,1.93-1.63,2.05-1.02,.12-1.93-.61-2.05-1.63-.12-1.02,.61-1.93,1.63-2.05,1.02-.12,1.93,.61,2.05,1.63Z"/>
    <path class="cls-1" d="M183.55,94.13c.16,1.36-.82,2.59-2.18,2.75-1.36,.16-2.59-.82-2.75-2.18-.16-1.36,.82-2.59,2.18-2.75,1.36-.16,2.59,.82,2.75,2.18Z"/>
    <path class="cls-1" d="M235.2,118.15c.16,1.36-.82,2.59-2.18,2.75-1.36,.16-2.59-.82-2.75-2.18-.16-1.36,.82-2.59,2.18-2.75,1.36-.16,2.59,.82,2.75,2.18Z"/>
    <path class="cls-3" d="M469.63,87.31c-4.59-12.62-.07-26.32,10.19-33.93-2.78,.17-5.59,.73-8.34,1.73-15.37,5.6-23.29,22.59-17.69,37.96,5.6,15.37,22.59,23.29,37.96,17.69,2.75-1,5.26-2.38,7.5-4.04-12.75,.78-25.03-6.81-29.62-19.43Z"/>
    <path class="cls-3" d="M308.11,201.38l1.32,2.05c.2,.31,.54,.5,.91,.52l2.44,.07c.93,.03,1.43,1.11,.84,1.84l-1.54,1.89c-.23,.29-.31,.67-.21,1.03l.68,2.35c.26,.9-.62,1.7-1.49,1.37l-2.28-.88c-.35-.13-.74-.09-1.04,.12l-2.02,1.38c-.77,.53-1.81-.06-1.76-.99l.14-2.44c.02-.37-.14-.73-.44-.95l-1.93-1.5c-.74-.57-.5-1.74,.4-1.98l2.36-.62c.36-.09,.65-.36,.77-.71l.82-2.3c.32-.88,1.5-1.01,2.01-.23Z"/>
    <path class="cls-3" d="M361.18,256.54l1.29,2c.2,.3,.53,.49,.89,.5l2.38,.07c.91,.03,1.39,1.08,.82,1.79l-1.5,1.84c-.23,.28-.3,.65-.2,1l.67,2.28c.25,.87-.6,1.66-1.45,1.33l-2.22-.86c-.34-.13-.72-.09-1.01,.12l-1.97,1.34c-.75,.51-1.76-.06-1.71-.97l.13-2.37c.02-.36-.14-.71-.42-.93l-1.88-1.46c-.72-.56-.49-1.69,.39-1.93l2.3-.61c.35-.09,.63-.35,.75-.69l.8-2.24c.31-.86,1.46-.99,1.95-.22Z"/>
    <path class="cls-3" d="M221.48,209.53l.67,1.04c.1,.16,.27,.26,.46,.26l1.24,.04c.47,.01,.72,.56,.42,.93l-.78,.96c-.12,.15-.16,.34-.11,.52l.35,1.19c.13,.45-.31,.86-.75,.69l-1.15-.45c-.17-.07-.37-.05-.53,.06l-1.02,.7c-.39,.27-.92-.03-.89-.5l.07-1.23c.01-.19-.07-.37-.22-.48l-.98-.76c-.37-.29-.25-.88,.2-1l1.2-.32c.18-.05,.33-.18,.39-.36l.42-1.16c.16-.44,.76-.51,1.02-.12Z"/>
    <path class="cls-3" d="M252.28,146.24l.67,1.04c.1,.16,.27,.26,.46,.26l1.24,.04c.47,.01,.72,.56,.42,.93l-.78,.96c-.12,.15-.16,.34-.11,.52l.35,1.19c.13,.45-.31,.86-.75,.69l-1.15-.45c-.17-.07-.37-.05-.53,.06l-1.02,.7c-.39,.27-.92-.03-.89-.5l.07-1.23c.01-.19-.07-.37-.22-.48l-.98-.76c-.37-.29-.25-.88,.2-1l1.2-.32c.18-.05,.33-.18,.39-.36l.42-1.16c.16-.44,.76-.51,1.02-.12Z"/>
    <path class="cls-3" d="M288.21,250.28l.67,1.04c.1,.16,.27,.26,.46,.26l1.24,.04c.47,.01,.72,.56,.42,.93l-.78,.96c-.12,.15-.16,.34-.11,.52l.35,1.19c.13,.45-.31,.86-.75,.69l-1.15-.45c-.17-.07-.37-.05-.53,.06l-1.02,.7c-.39,.27-.92-.03-.89-.5l.07-1.23c.01-.19-.07-.37-.22-.48l-.98-.76c-.37-.29-.25-.88,.2-1l1.2-.32c.18-.05,.33-.18,.39-.36l.42-1.16c.16-.44,.76-.51,1.02-.12Z"/>
    <path class="cls-3" d="M488.2,142.01l.67,1.04c.1,.16,.27,.26,.46,.26l1.24,.04c.47,.01,.72,.56,.42,.93l-.78,.96c-.12,.15-.16,.34-.11,.52l.35,1.19c.13,.45-.31,.86-.75,.69l-1.15-.45c-.17-.07-.37-.05-.53,.06l-1.02,.7c-.39,.27-.92-.03-.89-.5l.07-1.23c.01-.19-.07-.37-.22-.48l-.98-.76c-.37-.29-.25-.88,.2-1l1.2-.32c.18-.05,.33-.18,.39-.36l.42-1.16c.16-.44,.76-.51,1.02-.12Z"/>
    <path class="cls-3" d="M163.74,175.32l.67,1.04c.1,.16,.27,.26,.46,.26l1.24,.04c.47,.01,.72,.56,.42,.93l-.78,.96c-.12,.15-.16,.34-.11,.52l.35,1.19c.13,.45-.31,.86-.75,.69l-1.15-.45c-.17-.07-.37-.05-.53,.06l-1.02,.7c-.39,.27-.92-.03-.89-.5l.07-1.23c.01-.19-.07-.37-.22-.48l-.98-.76c-.37-.29-.25-.88,.2-1l1.2-.32c.18-.05,.33-.18,.39-.36l.42-1.16c.16-.44,.76-.51,1.02-.12Z"/>
    <path class="cls-3" d="M340.37,235.71l.67,1.04c.1,.16,.27,.26,.46,.26l1.24,.04c.47,.01,.72,.56,.42,.93l-.78,.96c-.12,.15-.16,.34-.11,.52l.35,1.19c.13,.45-.31,.86-.75,.69l-1.15-.45c-.17-.07-.37-.05-.53,.06l-1.02,.7c-.39,.27-.92-.03-.89-.5l.07-1.23c.01-.19-.07-.37-.22-.48l-.98-.76c-.37-.29-.25-.88,.2-1l1.2-.32c.18-.05,.33-.18,.39-.36l.42-1.16c.16-.44,.76-.51,1.02-.12Z"/>
    <path class="cls-3" d="M423.43,218.19l.67,1.04c.1,.16,.27,.26,.46,.26l1.24,.04c.47,.01,.72,.56,.42,.93l-.78,.96c-.12,.15-.16,.34-.11,.52l.35,1.19c.13,.45-.31,.86-.75,.69l-1.15-.45c-.17-.07-.37-.05-.53,.06l-1.02,.7c-.39,.27-.92-.03-.89-.5l.07-1.23c.01-.19-.07-.37-.22-.48l-.98-.76c-.37-.29-.25-.88,.2-1l1.2-.32c.18-.05,.33-.18,.39-.36l.42-1.16c.16-.44,.76-.51,1.02-.12Z"/>
    <path class="cls-3" d="M426.93,168.5l.67,1.04c.1,.16,.27,.26,.46,.26l1.24,.04c.47,.01,.72,.56,.42,.93l-.78,.96c-.12,.15-.16,.34-.11,.52l.35,1.19c.13,.45-.31,.86-.75,.69l-1.15-.45c-.17-.07-.37-.05-.53,.06l-1.02,.7c-.39,.27-.92-.03-.89-.5l.07-1.23c.01-.19-.07-.37-.22-.48l-.98-.76c-.37-.29-.25-.88,.2-1l1.2-.32c.18-.05,.33-.18,.39-.36l.42-1.16c.16-.44,.76-.51,1.02-.12Z"/>
    <path class="cls-3" d="M391.79,218.19l.67,1.04c.1,.16,.27,.26,.46,.26l1.24,.04c.47,.01,.72,.56,.42,.93l-.78,.96c-.12,.15-.16,.34-.11,.52l.35,1.19c.13,.45-.31,.86-.75,.69l-1.15-.45c-.17-.07-.37-.05-.53,.06l-1.02,.7c-.39,.27-.92-.03-.89-.5l.07-1.23c.01-.19-.07-.37-.22-.48l-.98-.76c-.37-.29-.25-.88,.2-1l1.2-.32c.18-.05,.33-.18,.39-.36l.42-1.16c.16-.44,.76-.51,1.02-.12Z"/>
    <path class="cls-19" d="M536.7,170.41c-1.03,7.95-3.61,18.99-10.32,30-1.65,2.72-4.81,7.81-10.37,13.18-5.4,5.21-10.67,8.35-13.81,10.2-2.42,1.43-4.53,2.5-6.09,3.25-1.34-1.23-3.02-2.92-4.74-5.09-.58-.74-2.14-2.73-3.43-5.01-2.2-3.91-3.68-8.33-4.23-13.08-1.72-15.04,6.42-28.94,19.3-35.21,3.45-1.69,7.25-2.83,11.29-3.29,8.73-1,15.7,.43,22.39,5.07Z"/>
    <path class="cls-1" d="M536.7,170.41c-2.51,10.9-5.38,21.91-11.48,30.73-1.46-1.11-2.54-2.95-2.87-4.81-.84-4.71,.63-10.37,1.06-15.12,.14-1.64,.29-3.35-.26-4.9-.54-1.56-1.97-2.93-3.62-2.85-1.17,.06-2.22,.82-2.89,1.78-1.82,2.61-2.89,6.27-3.24,9.42-.25,2.3-.93,5.56-4.18,5.09-1.01-.15-1.86-.9-2.35-1.8-.49-.89-.68-1.92-.8-2.93-.31-2.64-.03-6.31-.4-9.67-.29-2.66-.97-5.1-2.66-6.71,3.45-1.69,7.25-2.83,11.29-3.29,8.73-1,15.7,.43,22.39,5.07Z"/>
    <path class="cls-11" d="M536.7,170.41c-.56,4.52-1.67,10.18-3.9,16.45-2.12,5.96-4.67,10.84-6.97,14.59-.68-.43-1.69-1.19-2.47-2.44-.62-.99-.88-1.94-1.01-2.68-.84-4.71,.63-10.37,1.06-15.12,.14-1.64,.29-3.35-.26-4.9-.54-1.56-1.97-2.93-3.62-2.85-1.17,.06-2.22,.82-2.89,1.78-1.82,2.61-2.89,6.27-3.24,9.42-.25,2.3-.93,5.56-4.18,5.09-1.01-.15-1.86-.9-2.35-1.8-.49-.89-.68-1.92-.8-2.93-.31-2.64-.03-6.31-.4-9.67-.29-2.66-.97-5.1-2.66-6.71,3.45-1.69,7.25-2.83,11.29-3.29,8.73-1,15.7,.43,22.39,5.07Z"/>
    <path class="cls-1" d="M500.86,223.48c-1.7,.98-3.46,1.91-5.27,2.77-3.05-2.61-5.65-5.76-7.65-9.32,.42-2.1,1-4.14,1.47-5.87,.47-1.71,1.03-3.43,2.04-4.89,1.02-1.46,2.55-2.64,4.31-2.87,.96-.12,2.01,.07,2.71,.72,.68,.63,.95,1.6,1.07,2.52,.61,4.72-2.12,9.39-1.51,14.12,.09,.74,.29,1.51,.79,2.06,.53,.58,1.26,.79,2.03,.76Z"/>
    <path class="cls-11" d="M502.2,223.79c-1.08,.63-2.21,1.27-3.41,1.9-.91,.48-1.8,.93-2.68,1.35-1.48-1.35-3.11-3.04-4.74-5.09-1.4-1.77-2.53-3.47-3.43-5.01,.42-2.1,1-4.14,1.47-5.87,.47-1.71,1.03-3.43,2.04-4.89,1.02-1.46,2.55-2.64,4.31-2.87,.96-.12,2.01,.07,2.71,.72,.68,.63,.95,1.6,1.07,2.52,.61,4.72-2.12,9.39-1.51,14.12,.06,.49,.16,1.36,.79,2.06,1,1.11,2.65,1.11,3.37,1.07Z"/>
    <path class="cls-1" d="M512.88,205.91l-.79,3.77c-.39,1.87-2.22,3.06-4.09,2.67h0c-1.87-.39-3.06-2.22-2.67-4.09l.79-3.77c.39-1.87,2.22-3.06,4.09-2.67h0c1.87,.39,3.06,2.22,2.67,4.09Z"/>
    <path class="cls-11" d="M512.88,205.91l-.79,3.77c-.39,1.87-2.22,3.06-4.09,2.67h0c-1.87-.39-3.06-2.22-2.67-4.09l.79-3.77c.39-1.87,2.22-3.06,4.09-2.67h0c1.87,.39,3.06,2.22,2.67,4.09Z"/>
  </g>
  <g id="Capa_10" data-name="Capa 10">
    <g id="Origami_Parakeet" data-name="Origami Parakeet">
      <g id="Origami_Dove" data-name="Origami Dove">
        <path class="cls-1" d="M314.6,65.72l-10.05,37.74h0s-6.67-5.63-6.67-5.63c-.23-.19-.51-.3-.8-.31l-5.14-.17c0-.27,5.38-21.65,5.38-21.65l17.29-9.98Z"/>
        <path class="cls-10" d="M314.6,65.72l-10.05,37.74h0s-6.67-5.63-6.67-5.63c-.23-.19-.51-.3-.8-.31l-5.14-.17c0-.27,5.38-21.65,5.38-21.65l17.29-9.98Z"/>
        <polygon class="cls-1" points="294.32 124.14 309.37 132.61 313.53 112.24 319.24 92.98 294.32 124.14"/>
        <polygon class="cls-8" points="294.32 124.14 309.37 132.61 313.53 112.24 319.24 92.98 294.32 124.14"/>
        <polygon class="cls-16" points="313.53 112.24 308.81 131.72 303.5 129.31 309.37 132.61 313.53 112.24"/>
        <polygon class="cls-13" points="313.53 112.24 294.32 124.14 319.24 92.98 313.53 112.24"/>
        <polygon class="cls-1" points="313.53 112.24 306.74 145.44 319.47 153.9 313.53 112.24"/>
        <polygon class="cls-7" points="313.53 112.24 306.74 145.44 319.47 153.9 313.53 112.24"/>
        <polygon class="cls-1" points="306.34 130.91 302.86 139.95 307.24 142.98 309.37 132.61 306.34 130.91"/>
        <polygon class="cls-18" points="306.34 130.91 302.86 139.95 307.24 142.98 309.37 132.61 306.34 130.91"/>
        <polygon class="cls-1" points="319.24 92.98 340.53 80.69 313.53 112.24 319.24 92.98"/>
        <path class="cls-1" d="M308.31,106.64l-10.45-8.81c-.22-.19-.5-.3-.79-.31l-11.92-.4c-.44-.01-.85,.2-1.09,.56l-7.2,10.69,11.02-8.81c.52-.41,1.29-.14,1.42,.51l5.02,24.07,14-17.5Z"/>
        <path class="cls-6" d="M288.22,99.38c1.11-.16,6.08-.88,7.25-1.02,1.17-.14,1.25-.37-2.14-.6-2.84-.2-6.4-.41-7.96-.5-.6-.03-1,.19-1.26,.57l-7.25,10.54,11.02-8.81c.11-.08,.22-.14,.34-.17Z"/>
        <path class="cls-1" d="M290.35,105.12l-13.49,3.25,11.02-8.81c.51-.41,1.29-.14,1.42,.51l1.06,5.06Z"/>
        <path class="cls-5" d="M290.35,105.12l-13.49,3.25,11.02-8.81c.51-.41,1.29-.14,1.42,.51l1.06,5.06Z"/>
        <polygon class="cls-1" points="286.85 105.96 289.97 120.7 294.1 123.1 290.35 105.12 286.85 105.96"/>
        <polygon class="cls-8" points="286.85 105.96 289.97 120.7 294.1 123.1 290.35 105.12 286.85 105.96"/>
        <g class="cls-13">
          <path d="M313.53,112.24c-6.5,3.64-12.89,7.56-19.09,11.69,6.5-3.65,12.89-7.56,19.09-11.69h0Z"/>
        </g>
      </g>
      <g id="Cord">
        <path class="cls-15" d="M301.53,30.33c0,23.39-.05,47.09-.05,70.48,0,.17,.14,.31,.31,.31s.31-.14,.31-.31c0-23.39,.03-47.09,.03-70.48h-.6Z"/>
        <g>
          <path class="cls-15" d="M301.56,85.26c-.1-.12-.1-.3,.02-.42,1.82-1.82,2.97-1.17,3.28-.93,.55,.43,.7,1.21,.35,1.78-.26,.41-.69,.67-1.21,.71-.05,0-.11,0-.16,0-.79,0-1.67-.44-2.28-1.15Zm.67-.19c.5,.48,1.17,.76,1.73,.72,.33-.03,.58-.17,.74-.42,.18-.3,.09-.74-.21-.98-.14-.11-.33-.18-.57-.18-.43,0-1,.23-1.68,.85Z"/>
          <path class="cls-15" d="M299.59,86.41c-.53-.04-.96-.29-1.21-.71-.35-.56-.19-1.35,.35-1.78,.31-.24,1.46-.9,3.28,.93,.11,.11,.12,.29,.02,.42-.61,.71-1.49,1.15-2.28,1.15-.05,0-.11,0-.16,0Zm-.48-2c-.3,.24-.4,.68-.21,.98,.15,.25,.4,.39,.74,.42,.57,.04,1.22-.24,1.72-.72-1.06-.96-1.85-.99-2.25-.67Z"/>
          <path class="cls-15" d="M299.05,88.77c.36,0,.72-.11,1.08-.34,.71-.45,1.32-1.29,1.68-2.31,.39,.86,.92,1.28,1.25,1.47,.43,.25,.88,.33,1.25,.22,.16-.05,.25-.22,.2-.38-.05-.16-.22-.25-.38-.2-.2,.06-.49,0-.76-.16-.35-.21-.99-.75-1.28-2.08-.03-.14-.16-.24-.3-.24h0c-.15,0-.27,.11-.3,.25-.24,1.28-.9,2.42-1.68,2.91-.25,.15-.63,.32-1.04,.2-.17-.04-.33,.05-.38,.21-.05,.16,.05,.33,.21,.38,.15,.04,.29,.06,.44,.06Z"/>
        </g>
      </g>
    </g>
    <g id="Origami_Crane" data-name="Origami Crane">
      <g id="Origami_Crane-2" data-name="Origami Crane">
        <g>
          <path class="cls-1" d="M373.06,130.18l18.1-9.26c1.59-.81,3.49-.72,5,.25l18.34,11.79-13.96,17.43-2.11-7.72-20.19-7.33-5.18-5.15Z"/>
          <path class="cls-10" d="M373.06,130.18l18.1-9.26c1.59-.81,3.49-.72,5,.25l18.34,11.79-13.96,17.43-2.11-7.72-20.19-7.33-5.18-5.15Z"/>
          <path class="cls-9" d="M414.5,132.95l-18.34-11.79c-1.5-.97-3.41-1.06-5-.25l-18.1,9.26c5.21-2.29,15.89-7.68,17.95-8.71,2.06-1.03,3.48-.79,5.68,.51,2.2,1.3,17.81,10.97,17.81,10.97Z"/>
          <g>
            <path class="cls-1" d="M403.71,146.42s-1.16-4.65-2.93-10.82c-1.77-6.17-3.08-10.6-3.2-11.76-.12-1.16,16.63,9.47,16.63,9.47l-10.5,13.11Z"/>
            <path class="cls-8" d="M403.71,146.42s-1.16-4.65-2.93-10.82c-1.77-6.17-3.08-10.6-3.2-11.76-.12-1.16,16.63,9.47,16.63,9.47l-10.5,13.11Z"/>
          </g>
          <path class="cls-1" d="M403.13,147.14s-5.23-17.81-6.49-21.79c-1.25-3.98-2.62-4.91-2.91-3.68-.3,1.24-4.7,17.57-4.7,17.57l9.4,3.41,2.11,7.72,2.59-3.23Z"/>
        </g>
        <g>
          <path class="cls-1" d="M392.16,120.54c1.35-.36,2.8-.14,4,.62l18.34,11.78,1.32-7.38,13.15-46.67-34.72,34.21-2.09,7.42Z"/>
          <path class="cls-1" d="M392.16,120.54c1.35-.36,2.8-.14,4,.62l5.61,3.6,1.25-3.64,25.96-42.22-34.72,34.21-2.09,7.42Z"/>
          <path class="cls-7" d="M392.16,120.54c1.35-.36,2.8-.14,4,.62l5.61,3.6,1.25-3.64,25.96-42.22-34.72,34.21-2.09,7.42Z"/>
          <path class="cls-8" d="M392.16,120.54l2.09-7.42,8.77,8,12.8,4.45-1.32,7.38-18.34-11.78c-1.2-.77-2.66-.98-4-.62Z"/>
        </g>
        <g>
          <polygon class="cls-1" points="369.9 127.03 351.44 82.97 382.52 125.34 373.06 130.18 369.9 127.03"/>
          <polygon class="cls-8" points="380.03 126.61 351.44 82.97 382.52 125.34 380.03 126.61"/>
        </g>
        <g>
          <g>
            <polygon class="cls-1" points="329.2 117.52 386.25 144.95 398.43 142.66 329.2 117.52"/>
            <polygon class="cls-5" points="329.2 117.52 386.25 144.95 398.43 142.66 329.2 117.52"/>
            <polygon class="cls-1" points="329.2 117.52 367.89 125.03 378.24 135.33 329.2 117.52"/>
            <polygon class="cls-7" points="329.2 117.52 367.89 125.03 378.24 135.33 329.2 117.52"/>
          </g>
          <g>
            <polygon class="cls-1" points="405.48 168.44 386.68 149.44 370.24 148.09 367.66 136.01 386.25 144.95 398.43 142.66 405.48 168.44"/>
            <polygon class="cls-8" points="405.48 168.44 386.68 149.44 370.24 148.09 367.66 136.01 386.25 144.95 398.43 142.66 405.48 168.44"/>
            <polygon class="cls-13" points="386.68 149.44 386.25 144.95 367.66 136.01 370.24 148.09 386.68 149.44"/>
            <polygon class="cls-5" points="398.43 142.66 386.31 145.54 386.68 149.44 385.64 145.37 367.66 136.01 386.25 144.95 398.43 142.66"/>
          </g>
        </g>
        <g>
          <path class="cls-1" d="M423.73,121.91h7.35c.25,0,.47,.16,.55,.39l4.39,12.22-8.73-10.08c-.32-.37-.9-.28-1.11,.15l-20.71,43.84-4.94-18.06,22.19-27.98c.24-.3,.61-.48,.99-.48Z"/>
          <polygon class="cls-5" points="414.21 133.31 401.36 150.8 405.48 168.44 400.54 150.38 414.21 133.31"/>
          <path class="cls-1" d="M427.3,124.44l8.73,10.08-11.41-6.59,1.58-3.34c.21-.44,.79-.52,1.11-.15Z"/>
          <path class="cls-5" d="M427.3,124.44l8.73,10.08-11.41-6.59,1.58-3.34c.21-.44,.79-.52,1.11-.15Z"/>
          <polygon class="cls-1" points="415.04 163.1 425.9 128.67 424.61 127.93 410.27 158.29 415.04 163.1"/>
          <polygon class="cls-8" points="415.04 163.1 425.9 128.67 424.61 127.93 410.27 158.29 415.04 163.1"/>
          <path class="cls-6" d="M431.56,122.58c-.18-.46-.31-.51-.67-.49-1.19,.04-3.88,.18-5.59,.29-1.73,.11-2.17,.37-.98,.61,1.19,.24,1.97,.36,2.54,.53,.5,.15,.77,.48,1.21,1.01,1.7,2.08,7.95,10,7.95,10,0,0-4.29-11.48-4.46-11.94Z"/>
        </g>
      </g>
      <g id="Cord-2" data-name="Cord">
        <path class="cls-15" d="M393.48,30.33c0,30.28-.04,60.9-.04,91.17,0,.19,.15,.34,.34,.34s.34-.15,.34-.34c0-30.28,.06-60.9,.06-91.17h-.71Z"/>
        <g>
          <path class="cls-15" d="M393.52,61.23c-.12-.14-.11-.34,.02-.47,2.12-2.12,3.45-1.36,3.81-1.08,.63,.5,.81,1.4,.41,2.06-.3,.48-.79,.77-1.4,.82-.06,0-.12,0-.18,0-.92,0-1.94-.51-2.65-1.34Zm.75-.21c.59,.57,1.37,.91,2.03,.85,.39-.03,.69-.2,.87-.49,.22-.35,.11-.87-.25-1.16-.17-.13-.39-.21-.67-.21-.5,0-1.18,.27-1.98,1.01Z"/>
          <path class="cls-15" d="M391.21,62.56c-.61-.05-1.11-.34-1.4-.82-.4-.65-.22-1.56,.41-2.06,.36-.28,1.69-1.04,3.81,1.08,.13,.13,.14,.33,.02,.47-.71,.83-1.73,1.34-2.65,1.34-.06,0-.12,0-.18,0Zm-.57-2.33c-.36,.28-.47,.8-.25,1.16,.18,.3,.48,.46,.87,.49,.66,.05,1.44-.29,2.03-.85-1.24-1.14-2.18-1.17-2.65-.79Z"/>
          <path class="cls-15" d="M390.59,65.32c.41,0,.84-.13,1.25-.39,.84-.52,1.54-1.51,1.97-2.71,.45,1.02,1.07,1.51,1.46,1.74,.5,.29,1.03,.38,1.45,.25,.18-.05,.29-.25,.23-.43-.05-.18-.25-.29-.43-.23-.24,.07-.58,0-.9-.19-.41-.24-1.16-.88-1.5-2.43-.04-.16-.18-.27-.34-.27h0c-.16,0-.3,.12-.33,.28-.28,1.49-1.05,2.83-1.97,3.4-.29,.18-.74,.37-1.22,.24-.18-.05-.37,.06-.42,.24-.05,.18,.06,.37,.24,.42,.17,.05,.34,.07,.52,.07Z"/>
        </g>
      </g>
    </g>
  </g>
</svg>