<?xml version="1.0" encoding="UTF-8"?>
<svg id="Capa_2" data-name="Capa 2" xmlns="http://www.w3.org/2000/svg" xmlns:xlink="http://www.w3.org/1999/xlink" viewBox="0 0 807.32 301.36">
  <defs>
    <style>
      .cls-1 {
        fill: #e27fa6;
      }

      .cls-2 {
        fill: #c17027;
      }

      .cls-3 {
        fill: #ffbd59;
      }

      .cls-4 {
        fill: #438;
      }

      .cls-5 {
        fill: #a343ba;
      }

      .cls-6 {
        fill: #698ab2;
      }

      .cls-7 {
        fill: #7a8dc4;
      }

      .cls-8 {
        fill: #a84c29;
      }

      .cls-9 {
        fill: #c75d2e;
      }

      .cls-10 {
        clip-path: url(#clippath);
      }

      .cls-11 {
        fill: #004aad;
      }

      .cls-12 {
        fill: none;
      }

      .cls-13 {
        fill: #5e71b4;
      }

      .cls-14 {
        fill: #9a38a5;
      }

      .cls-15 {
        fill: #5b4fa3;
      }

      .cls-16 {
        fill: #1768c1;
      }

      .cls-17 {
        fill: #a05272;
      }

      .cls-18 {
        fill: #98afd0;
      }
    </style>
    <clipPath id="clippath">
      <rect class="cls-12" width="807.32" height="301.36"/>
    </clipPath>
  </defs>
  <g id="Capa_22" data-name="Capa 22">
    <g class="cls-10">
      <g>
        <g>
          <path class="cls-15" d="M403.91,301.36c-.2-2.89-.18-6.7,.61-11.1,.4-2.24,1.58-7.83,5.1-14.41,2.53-4.71,9.3-17.35,25.39-24.82,6.58-3.05,12.01-4.13,15.62-4.83,2.23-.43,7.59-1.4,23.99-1.6,10.03-.12,16.64,.42,21.02,.32,12.71-.29,21.04-8.26,26-12.01,9.67-7.31,14.86-15.54,16.77-18.61,3.36-5.43,4.24-8.31,8.99-14.71,2.2-2.97,3.87-5.57,8.42-8.87,5.86-4.24,11.06-4.17,17.34-7.35,10.69-5.4,14.01-13.19,16.04-19.11,2.25-6.55,2.67-8.31,5.71-17.11,1.61-4.66,4.59-8.29,9.66-11.93,5.47-3.93,12.57-5.03,14.85-5.33,2.1-.27,8.67-1.38,15.76,1.2,8.26,3,9.96,6.05,16.04,8.93,8.57,4.06,17.99,2.21,26.88,.9,7.79-1.15,13.39-2.38,22.81-5.98,11.35-4.34,17.43-7.25,24.21-11.96,9.95-6.91,14.96-14.44,15.95-15.91,4.37-6.5,4.44-8.25,8.2-16.66,3.04-6.8,8.28-10.6,18.32-13.36,1.61-.44,4.96-1.01,11.67-2.16,7.24-1.23,8.33-1.24,11.13-1.85,3.78-.83,12.59-3.04,19.76-8.82v237.13H403.91Z"/>
          <path class="cls-4" d="M403.91,301.36c3.19-9.16,6.99-16.23,9.98-21.1,3.89-6.34,7.24-11.66,13.59-16.87,3.17-2.59,6.97-5.07,11.53-7.14,6.51-2.95,11.88-4,15.46-4.67,2.2-.41,7.51-1.36,23.73-1.54,9.92-.11,16.47,.4,20.8,.31,12.58-.28,20.82-7.99,25.73-11.62,9.56-7.08,14.71-15.03,16.59-18.01,3.32-5.25,4.19-8.04,8.9-14.23,2.18-2.87,3.83-5.39,8.33-8.58,5.8-4.11,10.94-4.04,17.16-7.11,10.58-5.23,13.86-12.76,15.87-18.49,2.22-6.34,2.64-8.04,5.65-16.55,1.59-4.51,4.54-8.02,9.56-11.54,5.41-3.8,12.44-4.87,14.7-5.16,2.08-.26,8.58-1.33,15.6,1.16,8.17,2.9,9.86,5.86,15.87,8.64,8.48,3.93,17.8,2.14,26.6,.87,7.71-1.11,13.25-2.3,22.57-5.78,11.23-4.2,17.25-7.01,23.95-11.57,9.84-6.69,14.8-13.97,15.78-15.39,4.33-6.29,4.4-7.98,8.11-16.12,3.01-6.58,8.19-10.26,18.12-12.92,1.59-.43,4.91-.98,11.54-2.09,.07-.01,.14-.02,.21-.04,6.84-1.14,13.25-4.09,18.52-8.6,4.07-3.48,8.03-6.39,11.78-8.87v233H403.91Z"/>
        </g>
        <g>
          <path class="cls-7" d="M435.62,301.36c.02-.93,.13-2.29,.62-3.9,.59-1.93,1.82-5.95,6.99-9.43,4.38-2.95,9.33-3.98,11.36-4.39,3.5-.7,6.55-.83,8.61-.81,.22-.77,.57-1.84,1.12-3.09,.91-2.03,2.28-5.09,5.87-8.29,2.36-2.1,5.25-4.68,10.11-5.85,1.49-.36,2.58-.44,4.87-1.14,1.54-.47,3.58-1.2,6.37-2.2,2.08-.75,3-1.09,4.12-.89,.24,.04,1.28,.25,2.25,1.3,1.73,1.89,1.13,4.2,.62,5.77-1.26,3.95-1.89,5.92-4.12,8.7-3.62,4.52-5.49,3.99-11.73,10.16-4.38,4.33-5.38,6.49-5.74,8.37-.45,2.37,.1,4.38,.62,5.69h-41.94Z"/>
          <path class="cls-13" d="M439.36,301.36c.02-.91,.13-2.25,.59-3.82,.56-1.89,1.72-5.83,6.58-9.23,4.12-2.89,8.78-3.9,10.69-4.3,3.29-.69,6.17-.81,8.1-.8,.21-.76,.53-1.8,1.06-3.03,.85-1.99,2.14-4.99,5.52-8.12,2.22-2.06,4.94-4.58,9.51-5.73,1.4-.35,2.43-.43,4.58-1.11,1.45-.46,3.37-1.17,5.99-2.15,1.96-.73,2.82-1.07,3.88-.88,.23,.04,1.2,.24,2.11,1.27,1.63,1.85,1.06,4.11,.59,5.65-1.19,3.87-1.78,5.8-3.88,8.52-3.4,4.42-5.17,3.91-11.04,9.95-4.12,4.24-5.06,6.35-5.4,8.2-.43,2.32,.09,4.29,.59,5.57h-39.46Z"/>
          <path class="cls-6" d="M443.59,301.36c2.07-3.56,4.58-6.18,6.46-7.87,3.6-3.26,6.37-5.77,11.28-7.07,3.72-.99,4.99-.31,9.4-1.71,4.03-1.28,6.58-3,7.28-3.49,2.56-1.79,2.3-2.45,6.11-6.26,2.95-2.95,4.47-4.44,6.69-5.28,2.54-.96,3.59-.52,8.34-1.3,4.15-.69,7.07-1.64,9.75-2.52,5.69-1.86,5.41-2.57,12.22-5.04,4.8-1.74,7.62-2.36,10.57-2.6,2.74-.22,5.78-.47,7.28,.73,2.37,1.9-.82,6.07-1.53,6.99-.64,.83-2.57,3.15-7.99,5.85-4.38,2.19-8.17,3.19-14.68,4.87-6.43,1.67-9.65,2.5-13.74,3.33-3.66,.74-7.2,1.35-9.84,3.45-.67,.53-1.75,1.54-2.73,2.81-.85,1.12-1.23,1.92-2,3.49-1.98,4.04-1.87,3.49-2.47,4.87-.69,1.61-1.51,3.88-2,6.74h-38.41Z"/>
          <path class="cls-18" d="M447.2,301.36c2.07-3.56,4.58-6.18,6.46-7.87,3.6-3.26,6.37-5.77,11.28-7.07,3.72-.99,4.99-.31,9.4-1.71,4.03-1.28,6.58-3,7.28-3.49,2.56-1.79,2.3-2.45,6.11-6.26,2.95-2.95,4.47-4.44,6.69-5.28,2.54-.96,3.59-.52,8.34-1.3,4.15-.69,7.07-1.64,9.75-2.52,5.69-1.86,5.41-2.57,12.22-5.04,4.8-1.74,7.62-2.36,10.57-2.6,2.74-.22,5.78-.47,7.28,.73,2.37,1.9-.82,6.07-1.53,6.99-.64,.83-2.57,3.15-7.99,5.85-4.38,2.19-8.17,3.19-14.68,4.87-6.43,1.67-9.65,2.5-13.74,3.33-3.66,.74-7.2,1.35-9.84,3.45-.67,.53-1.75,1.54-2.73,2.81-.85,1.12-1.23,1.92-2,3.49-1.98,4.04-1.87,3.49-2.47,4.87-.69,1.61-1.51,3.88-2,6.74h-38.41Z"/>
        </g>
        <g>
          <path class="cls-17" d="M541.96,301.35c.03-.75,.16-1.88,.71-3.16,2.31-5.36,8.64-5.4,14.82-10.27,7.03-5.54,4.57-9.99,10.47-11.9,4.07-1.31,6.61,.36,11.88-1.63,1.28-.48,4.66-1.76,6.47-4.13,4.69-6.13-6.61-12.49-4.24-22.83,1.22-5.34,4.62-5.37,7.65-14.3,1.86-5.49,.79-6.12,2.12-9.98,3.63-10.58,15.39-16.76,21.65-20.05,2.97-1.56,10.13-5.25,20.35-7.1,8.36-1.51,10.85-.35,22-2.11,5.72-.9,11.33-1.79,17.29-4.13,3.09-1.21,13.1-5.6,20.23-14.87,.76-.98,3.23-4.29,5.18-9.02,2.98-7.21,1.4-9.64,3.76-15.35,1.19-2.87,3.67-8.88,10.47-12.57,7.18-3.9,18.35-4.76,26.12-1.73,1.85,.72,3.36,1.61,6,1.73,4.58,.21,9.34-2.04,11.76-5.09,2.08-2.61,1.67-4.85,1.65-10.36-.05-10.43-.07-15.64,2.59-20.72,2.82-5.39,7.62-9.25,9.39-10.58,3.33-2.5,6.89-4.29,6.89-4.29,1.9-.95,2.91-1.29,7.17-3.27,2.66-1.24,4-1.86,4.44-2.11,7.61-4.38,8.32-14.17,8.35-14.68,.09-1.53-.08-2.42,.11-5.76,.17-3.02,.26-4.55,.72-5.92,1.1-3.24,3.37-5.45,4.58-6.47,2.93-2.5,5.94-3.51,7.6-3.95l-.16,256.59h-268.01Z"/>
          <path class="cls-1" d="M541.96,301.35c1.67-1.64,4.57-4.12,8.77-5.9,8.41-3.56,12.93-.48,16.96-4.39,3.1-3.01,3.07-6.29,7.56-10.22,.63-.55,1.44-1.02,2.57-1.38,3.93-1.28,6.4,.35,11.49-1.59,1.24-.47,4.51-1.72,6.26-4.02,4.53-5.97-6.39-12.18-4.1-22.27,1.18-5.2,4.47-5.24,7.4-13.94,1.8-5.35,.77-5.96,2.05-9.73,3.51-10.31,14.88-16.34,20.94-19.55,2.87-1.52,9.8-5.12,19.68-6.92,8.08-1.47,10.49-.34,21.28-2.06,5.53-.88,10.96-1.74,16.73-4.02,2.99-1.18,12.67-5.46,19.57-14.5,.73-.96,3.12-4.19,5.01-8.79,2.88-7.04,1.36-9.4,3.64-14.97,1.15-2.8,3.55-8.66,10.13-12.26,6.95-3.8,17.75-4.64,25.26-1.68,1.79,.7,3.25,1.57,5.8,1.68,4.43,.2,9.03-1.99,11.38-4.96,2.01-2.55,1.62-4.72,1.59-10.1-.05-10.17-.07-15.25,2.5-20.21,2.73-5.26,7.37-9.02,9.08-10.31,3.22-2.44,6.66-4.18,6.67-4.18,1.83-.93,2.82-1.26,6.93-3.19,2.58-1.21,3.87-1.81,4.29-2.06,7.36-4.27,8.05-13.82,8.08-14.31,.08-1.5-.08-2.36,.1-5.62,.03-.52,.17-3.12,.7-5.77,.69-3.45,1.83-6.05,2.52-7.6,1.24-2.77,3.45-7.29,7.35-11.74-.05,85.4-.11,171.19-.16,256.59-89.34,0-178.67,0-268.01-.01Z"/>
        </g>
        <g>
          <path class="cls-5" d="M615.43,301.38c-.28-1.57-.61-3.82-.73-6.54-.6-13.72,4.8-24.1,6.72-27.69,8.65-16.16,22.79-23.72,27.79-26.12,3.31-1.58,14.15-6.41,29.07-6.31,6.52,.04,17.46,1.05,29.25,6.84,14.4,7.07,21.97,17.3,23.98,20.16,11.69,16.63,11.01,33.97,10.54,39.66h-126.62Z"/>
          <path class="cls-14" d="M619.26,301.38c-.27-1.35-.59-3.28-.7-5.61-.58-11.79,4.65-20.7,6.52-23.79,8.39-13.89,22.1-20.38,26.96-22.44,3.21-1.36,13.73-5.51,28.19-5.42,6.32,.04,16.94,.9,28.36,5.87,13.97,6.07,21.31,14.86,23.26,17.32,11.33,14.28,10.68,29.18,10.22,34.07h-122.8Z"/>
        </g>
        <path class="cls-2" d="M672.17,301.36c1.17-.94,2.98-2.21,5.47-3.27,1.28-.55,4.42-1.76,8.68-2.02,4.46-.27,7.97,.64,8.86,.89,2.61,.72,2.85,1.25,4.52,1.29,2.63,.07,4.67-1.18,7.16-2.74,3.08-1.93,3.09-2.63,5.66-4.36,2.95-1.98,6.68-3.35,8.33-3.77,5.04-1.28,9.42-.66,11.75-.34,2.83,.4,5.92,.97,10.48,.48,.41-.04,.82-.12,1.3-.24,5.84-1.47,8.96-5.78,9.43-6.45,1.22-1.75,2.39-4.28,2.07-12.75-.4-10.68-2.42-10.84-1.7-15.97,.14-1,1.57-10.03,9.99-16.13,6.39-4.63,14.65-6.03,17.16-6.45,5.46-.92,7.75-.34,11.31-2.26,3.99-2.15,5.86-5.44,7.54-8.39,2.64-4.64,2.11-6.55,4.52-11.62,1.82-3.82,4-6.66,5.48-8.39v102.5h-138.02Z"/>
        <path class="cls-3" d="M672.2,301.38c7.1-4.03,12.54-4.38,16.27-3.89,4.89,.64,5.22,2.5,10.5,2.68,0,0,8.21,.28,15.11-4.24,.9-.59,1.91-1.33,1.91-1.33,1.16-.92,1.66-1.58,3.35-2.72,2.74-1.85,6.22-3.11,7.75-3.5,4.69-1.19,8.76-.62,10.93-.31,2.63,.37,5.51,.9,9.75,.44,.38-.04,.76-.11,1.21-.23,5.43-1.37,8.33-5.38,8.77-6,1.14-1.62,2.22-3.98,1.93-11.85-.37-9.93-2.25-10.08-1.58-14.85,.13-.93,1.46-9.33,9.29-15,5.94-4.3,13.63-5.61,15.96-6,5.08-.86,7.21-.31,10.52-2.1,3.71-2,5.45-5.06,7.01-7.8,2.46-4.31,1.96-6.09,4.21-10.8,1.7-3.55,3.72-13.36,5.1-14.97v102.49h-137.99Z"/>
        <g>
          <path class="cls-8" d="M731.26,301.38c4.46-1.36,9.92-3.12,16.11-5.31,6.49-2.3,10.93-4.08,19.53-7.54,11.26-4.53,16.95-6.84,19.93-8.92,4.51-3.14,5.23-4.76,10.87-8.57,4.95-3.34,9.43-5.52,12.48-6.85v37.19h-78.93Z"/>
          <path class="cls-9" d="M731.26,301.37c3.74-.32,8.46-.88,13.68-1.95,2.03-.42,5.83-1.26,10.52-2.68,5.56-1.69,6.45-2.32,17.05-6.6,9.83-3.96,14.8-5.98,17.4-7.8,3.44-2.4,6.39-5.23,6.39-5.23,1.87-1.81,2.95-3.16,3.86-4.2,2-2.29,5.03-5.42,10.04-8.74v37.19c-26.31,0-52.62,0-78.93,0Z"/>
        </g>
        <g>
          <path class="cls-16" d="M673.03,108.63c20.53-10.28,30.79-15.42,36.42-18.06,13.44-6.31,20.15-9.46,21.8-10.15,6.08-2.54,11.59-4.6,19.02-8.78,7.08-3.98,9.77-6.44,11.37-8.1,2.85-2.97,2.85-4.06,5.8-6.64,3.43-3.01,6.86-4.53,11.02-6.34,2.01-.87,6.36-2.31,15.08-5.17,4.46-1.47,7.63-2.48,11.71-4.59,2.12-1.09,3.78-2.12,4.88-2.83,0-12.66,0-25.31,0-37.97-2.95,1.27-7.23,3.46-11.26,7.13-1.8,1.63-3.58,3.91-7.07,8.39-5.83,7.48-6.34,8.73-9.51,11.81-4.6,4.48-7.65,5.85-8.58,6.25-3.49,1.49-4.91,1.1-9.05,2.15-7.64,1.93-12.74,5.78-14.61,7.32-3.97,3.27-8.33,6.86-8.35,11.61,0,2.14,.86,3.78-.46,5.76-.87,1.3-2.74,2.84-5.1,3.61-1.53,.5-2.77,.51-4.29,1.56-.51,.35-.63,.53-1.62,1.46,0,0-.87,.81-3.13,2.73-2.46,2.09-7.52,3.16-11.02,4.59-5.26,2.14-8.29,5.62-11.83,9.66-3.95,4.52-3.48,5.91-6.96,8.2-2.71,1.79-5.58,2.64-9.51,3.81-4.84,1.44-5.58,1.05-9.51,2.44-3.21,1.14-5.8,2.05-8.12,4.1-3.15,2.77-2.26,4.5-5.1,7.71-2,2.26-4.45,3.46-9.28,5.76-3.44,1.64-7.95,6.46-14.15,8.24,1.76-.04,4.64-1.48,7.67-2.01,3.59-.63,7.47-2.93,11.76-5.59,2.71-1.68,2.72-2.5,6.73-5.08,2.29-1.47,4.16-2.42,5.28-2.98Z"/>
          <path class="cls-11" d="M673.03,111.51c20.53-10.28,30.79-15.42,36.42-18.06,13.44-6.31,20.15-9.46,21.8-10.15,6.08-2.54,11.59-4.6,19.02-8.78,7.08-3.98,9.77-6.44,11.37-8.1,2.85-2.97,2.85-4.06,5.8-6.64,3.43-3.01,6.86-4.53,11.02-6.34,2.01-.87,6.36-2.31,15.08-5.17,4.46-1.47,7.63-2.48,11.71-4.59,2.12-1.09,3.78-2.12,4.88-2.83,0-12.66,0-25.31,0-37.97-2.95,1.27-7.23,3.46-11.26,7.13-1.8,1.63-3.58,3.91-7.07,8.39-5.83,7.48-6.34,8.73-9.51,11.81-4.6,4.48-7.65,5.85-8.58,6.25-3.49,1.49-4.91,1.1-9.05,2.15-7.64,1.93-12.74,5.78-14.61,7.32-3.97,3.27-8.33,6.86-8.35,11.61,0,2.14,.86,3.78-.46,5.76-.87,1.3-2.74,2.84-5.1,3.61-1.53,.5-2.77,.51-4.29,1.56-.51,.35-.63,.53-1.62,1.46,0,0-.87,.81-3.13,2.73-2.46,2.09-7.52,3.16-11.02,4.59-5.26,2.14-8.29,5.62-11.83,9.66-3.95,4.52-3.48,5.91-6.96,8.2-2.71,1.79-5.58,2.64-9.51,3.81-4.84,1.44-5.58,1.05-9.51,2.44-3.21,1.14-5.8,2.05-8.12,4.1-3.15,2.77-2.26,4.5-5.1,7.71-2,2.26-4.45,3.46-9.28,5.76-3.44,1.64-8.3,3.68-14.5,5.47,1.76-.04,4.33-.2,7.36-.73,3.59-.63,8.12-1.43,12.41-4.1,2.71-1.68,2.72-2.5,6.73-5.08,2.29-1.47,4.16-2.42,5.28-2.98Z"/>
        </g>
      </g>
      <g>
        <g>
          <path class="cls-15" d="M404.09,301.36c.2-2.89,.18-6.7-.61-11.1-.4-2.24-1.58-7.83-5.1-14.41-2.53-4.71-9.3-17.35-25.39-24.82-6.58-3.05-12.01-4.13-15.62-4.83-2.23-.43-7.59-1.4-23.99-1.6-10.03-.12-16.64,.42-21.02,.32-12.71-.29-21.04-8.26-26-12.01-9.67-7.31-14.86-15.54-16.77-18.61-3.36-5.43-4.24-8.31-8.99-14.71-2.2-2.97-3.87-5.57-8.42-8.87-5.86-4.24-11.06-4.17-17.34-7.35-10.69-5.4-14.01-13.19-16.04-19.11-2.25-6.55-2.67-8.31-5.71-17.11-1.61-4.66-4.59-8.29-9.66-11.93-5.47-3.93-12.57-5.03-14.85-5.33-2.1-.27-8.67-1.38-15.76,1.2-8.26,3-9.96,6.05-16.04,8.93-8.57,4.06-17.99,2.21-26.88,.9-7.79-1.15-13.39-2.38-22.81-5.98-11.35-4.34-17.43-7.25-24.21-11.96-9.95-6.91-14.96-14.44-15.95-15.91-4.37-6.5-4.44-8.25-8.2-16.66-3.04-6.8-8.28-10.6-18.32-13.36-1.61-.44-4.96-1.01-11.67-2.16-7.24-1.23-8.33-1.24-11.13-1.85-3.78-.83-12.59-3.04-19.76-8.82v237.13s406.22,0,406.22,0Z"/>
          <path class="cls-4" d="M404.09,301.36c-3.19-9.16-6.99-16.23-9.98-21.1-3.89-6.34-7.24-11.66-13.59-16.87-3.17-2.59-6.97-5.07-11.53-7.14-6.51-2.95-11.88-4-15.46-4.67-2.2-.41-7.51-1.36-23.73-1.54-9.92-.11-16.47,.4-20.8,.31-12.58-.28-20.82-7.99-25.73-11.62-9.56-7.08-14.71-15.03-16.59-18.01-3.32-5.25-4.19-8.04-8.9-14.23-2.18-2.87-3.83-5.39-8.33-8.58-5.8-4.11-10.94-4.04-17.16-7.11-10.58-5.23-13.86-12.76-15.87-18.49-2.22-6.34-2.64-8.04-5.65-16.55-1.59-4.51-4.54-8.02-9.56-11.54-5.41-3.8-12.44-4.87-14.7-5.16-2.08-.26-8.58-1.33-15.6,1.16-8.17,2.9-9.86,5.86-15.87,8.64-8.48,3.93-17.8,2.14-26.6,.87-7.71-1.11-13.25-2.3-22.57-5.78-11.23-4.2-17.25-7.01-23.95-11.57-9.84-6.69-14.8-13.97-15.78-15.39-4.33-6.29-4.4-7.98-8.11-16.12-3.01-6.58-8.19-10.26-18.12-12.92-1.59-.43-4.91-.98-11.54-2.09-.07-.01-.14-.02-.21-.04-6.84-1.14-13.25-4.09-18.52-8.6-4.07-3.48-8.03-6.39-11.78-8.87v233s406.22,0,406.22,0Z"/>
        </g>
        <g>
          <path class="cls-7" d="M372.37,301.36c-.02-.93-.13-2.29-.62-3.9-.59-1.93-1.82-5.95-6.99-9.43-4.38-2.95-9.33-3.98-11.36-4.39-3.5-.7-6.55-.83-8.61-.81-.22-.77-.57-1.84-1.12-3.09-.91-2.03-2.28-5.09-5.87-8.29-2.36-2.1-5.25-4.68-10.11-5.85-1.49-.36-2.58-.44-4.87-1.14-1.54-.47-3.58-1.2-6.37-2.2-2.08-.75-3-1.09-4.12-.89-.24,.04-1.28,.25-2.25,1.3-1.73,1.89-1.13,4.2-.62,5.77,1.26,3.95,1.89,5.92,4.12,8.7,3.62,4.52,5.49,3.99,11.73,10.16,4.38,4.33,5.38,6.49,5.74,8.37,.45,2.37-.1,4.38-.62,5.69h41.94Z"/>
          <path class="cls-13" d="M368.63,301.36c-.02-.91-.13-2.25-.59-3.82-.56-1.89-1.72-5.83-6.58-9.23-4.12-2.89-8.78-3.9-10.69-4.3-3.29-.69-6.17-.81-8.1-.8-.21-.76-.53-1.8-1.06-3.03-.85-1.99-2.14-4.99-5.52-8.12-2.22-2.06-4.94-4.58-9.51-5.73-1.4-.35-2.43-.43-4.58-1.11-1.45-.46-3.37-1.17-5.99-2.15-1.96-.73-2.82-1.07-3.88-.88-.23,.04-1.2,.24-2.11,1.27-1.63,1.85-1.06,4.11-.59,5.65,1.19,3.87,1.78,5.8,3.88,8.52,3.4,4.42,5.17,3.91,11.04,9.95,4.12,4.24,5.06,6.35,5.4,8.2,.43,2.32-.09,4.29-.59,5.57h39.46Z"/>
          <path class="cls-6" d="M364.4,301.36c-2.07-3.56-4.58-6.18-6.46-7.87-3.6-3.26-6.37-5.77-11.28-7.07-3.72-.99-4.99-.31-9.4-1.71-4.03-1.28-6.58-3-7.28-3.49-2.56-1.79-2.3-2.45-6.11-6.26-2.95-2.95-4.47-4.44-6.69-5.28-2.54-.96-3.59-.52-8.34-1.3-4.15-.69-7.07-1.64-9.75-2.52-5.69-1.86-5.41-2.57-12.22-5.04-4.8-1.74-7.62-2.36-10.57-2.6-2.74-.22-5.78-.47-7.28,.73-2.37,1.9,.82,6.07,1.53,6.99,.64,.83,2.57,3.15,7.99,5.85,4.38,2.19,8.17,3.19,14.68,4.87,6.43,1.67,9.65,2.5,13.74,3.33,3.66,.74,7.2,1.35,9.84,3.45,.67,.53,1.75,1.54,2.73,2.81,.85,1.12,1.23,1.92,2,3.49,1.98,4.04,1.87,3.49,2.47,4.87,.69,1.61,1.51,3.88,2,6.74h38.41Z"/>
          <path class="cls-18" d="M360.8,301.36c-2.07-3.56-4.58-6.18-6.46-7.87-3.6-3.26-6.37-5.77-11.28-7.07-3.72-.99-4.99-.31-9.4-1.71-4.03-1.28-6.58-3-7.28-3.49-2.56-1.79-2.3-2.45-6.11-6.26-2.95-2.95-4.47-4.44-6.69-5.28-2.54-.96-3.59-.52-8.34-1.3-4.15-.69-7.07-1.64-9.75-2.52-5.69-1.86-5.41-2.57-12.22-5.04-4.8-1.74-7.62-2.36-10.57-2.6-2.74-.22-5.78-.47-7.28,.73-2.37,1.9,.82,6.07,1.53,6.99,.64,.83,2.57,3.15,7.99,5.85,4.38,2.19,8.17,3.19,14.68,4.87,6.43,1.67,9.65,2.5,13.74,3.33,3.66,.74,7.2,1.35,9.84,3.45,.67,.53,1.75,1.54,2.73,2.81,.85,1.12,1.23,1.92,2,3.49,1.98,4.04,1.87,3.49,2.47,4.87,.69,1.61,1.51,3.88,2,6.74h38.41Z"/>
        </g>
        <g>
          <path class="cls-17" d="M266.03,301.35c-.03-.75-.16-1.88-.71-3.16-2.31-5.36-8.64-5.4-14.82-10.27-7.03-5.54-4.57-9.99-10.47-11.9-4.07-1.31-6.61,.36-11.88-1.63-1.28-.48-4.66-1.76-6.47-4.13-4.69-6.13,6.61-12.49,4.24-22.83-1.22-5.34-4.62-5.37-7.65-14.3-1.86-5.49-.79-6.12-2.12-9.98-3.63-10.58-15.39-16.76-21.65-20.05-2.97-1.56-10.13-5.25-20.35-7.1-8.36-1.51-10.85-.35-22-2.11-5.72-.9-11.33-1.79-17.29-4.13-3.09-1.21-13.1-5.6-20.23-14.87-.76-.98-3.23-4.29-5.18-9.02-2.98-7.21-1.4-9.64-3.76-15.35-1.19-2.87-3.67-8.88-10.47-12.57-7.18-3.9-18.35-4.76-26.12-1.73-1.85,.72-3.36,1.61-6,1.73-4.58,.21-9.34-2.04-11.76-5.09-2.08-2.61-1.67-4.85-1.65-10.36,.05-10.43,.07-15.64-2.59-20.72-2.82-5.39-7.62-9.25-9.39-10.58-3.33-2.5-6.89-4.29-6.89-4.29-1.9-.95-2.91-1.29-7.17-3.27-2.66-1.24-4-1.86-4.44-2.11-7.61-4.38-8.32-14.17-8.35-14.68-.09-1.53,.08-2.42-.11-5.76-.17-3.02-.26-4.55-.72-5.92-1.1-3.24-3.37-5.45-4.58-6.47-2.93-2.5-5.94-3.51-7.6-3.95l.16,256.59H266.03Z"/>
          <path class="cls-1" d="M266.03,301.35c-1.67-1.64-4.57-4.12-8.77-5.9-8.41-3.56-12.93-.48-16.96-4.39-3.1-3.01-3.07-6.29-7.56-10.22-.63-.55-1.44-1.02-2.57-1.38-3.93-1.28-6.4,.35-11.49-1.59-1.24-.47-4.51-1.72-6.26-4.02-4.53-5.97,6.39-12.18,4.1-22.27-1.18-5.2-4.47-5.24-7.4-13.94-1.8-5.35-.77-5.96-2.05-9.73-3.51-10.31-14.88-16.34-20.94-19.55-2.87-1.52-9.8-5.12-19.68-6.92-8.08-1.47-10.49-.34-21.28-2.06-5.53-.88-10.96-1.74-16.73-4.02-2.99-1.18-12.67-5.46-19.57-14.5-.73-.96-3.12-4.19-5.01-8.79-2.88-7.04-1.36-9.4-3.64-14.97-1.15-2.8-3.55-8.66-10.13-12.26-6.95-3.8-17.75-4.64-25.26-1.68-1.79,.7-3.25,1.57-5.8,1.68-4.43,.2-9.03-1.99-11.38-4.96-2.01-2.55-1.62-4.72-1.59-10.1,.05-10.17,.07-15.25-2.5-20.21-2.73-5.26-7.37-9.02-9.08-10.31-3.22-2.44-6.66-4.18-6.67-4.18-1.83-.93-2.82-1.26-6.93-3.19-2.58-1.21-3.87-1.81-4.29-2.06-7.36-4.27-8.05-13.82-8.08-14.31-.08-1.5,.08-2.36-.1-5.62-.03-.52-.17-3.12-.7-5.77-.69-3.45-1.83-6.05-2.52-7.6-1.24-2.77-3.45-7.29-7.35-11.74,.05,85.4,.11,171.19,.16,256.59,89.34,0,178.67,0,268.01-.01Z"/>
        </g>
        <g>
          <path class="cls-5" d="M192.56,301.38c.28-1.57,.61-3.82,.73-6.54,.6-13.72-4.8-24.1-6.72-27.69-8.65-16.16-22.79-23.72-27.79-26.12-3.31-1.58-14.15-6.41-29.07-6.31-6.52,.04-17.46,1.05-29.25,6.84-14.4,7.07-21.97,17.3-23.98,20.16-11.69,16.63-11.01,33.97-10.54,39.66h126.62Z"/>
          <path class="cls-14" d="M188.73,301.38c.27-1.35,.59-3.28,.7-5.61,.58-11.79-4.65-20.7-6.52-23.79-8.39-13.89-22.1-20.38-26.96-22.44-3.21-1.36-13.73-5.51-28.19-5.42-6.32,.04-16.94,.9-28.36,5.87-13.97,6.07-21.31,14.86-23.26,17.32-11.33,14.28-10.68,29.18-10.22,34.07h122.8Z"/>
        </g>
        <path class="cls-2" d="M135.82,301.36c-1.17-.94-2.98-2.21-5.47-3.27-1.28-.55-4.42-1.76-8.68-2.02-4.46-.27-7.97,.64-8.86,.89-2.61,.72-2.85,1.25-4.52,1.29-2.63,.07-4.67-1.18-7.16-2.74-3.08-1.93-3.09-2.63-5.66-4.36-2.95-1.98-6.68-3.35-8.33-3.77-5.04-1.28-9.42-.66-11.75-.34-2.83,.4-5.92,.97-10.48,.48-.41-.04-.82-.12-1.3-.24-5.84-1.47-8.96-5.78-9.43-6.45-1.22-1.75-2.39-4.28-2.07-12.75,.4-10.68,2.42-10.84,1.7-15.97-.14-1-1.57-10.03-9.99-16.13-6.39-4.63-14.65-6.03-17.16-6.45-5.46-.92-7.75-.34-11.31-2.26-3.99-2.15-5.86-5.44-7.54-8.39-2.64-4.64-2.11-6.55-4.52-11.62-1.82-3.82-4-6.66-5.48-8.39v102.5s138.02,0,138.02,0Z"/>
        <path class="cls-3" d="M135.79,301.38c-7.1-4.03-12.54-4.38-16.27-3.89-4.89,.64-5.22,2.5-10.5,2.68,0,0-8.21,.28-15.11-4.24-.9-.59-1.91-1.33-1.91-1.33-1.16-.92-1.66-1.58-3.35-2.72-2.74-1.85-6.22-3.11-7.75-3.5-4.69-1.19-8.76-.62-10.93-.31-2.63,.37-5.51,.9-9.75,.44-.38-.04-.76-.11-1.21-.23-5.43-1.37-8.33-5.38-8.77-6-1.14-1.62-2.22-3.98-1.93-11.85,.37-9.93,2.25-10.08,1.58-14.85-.13-.93-1.46-9.33-9.29-15-5.94-4.3-13.63-5.61-15.96-6-5.08-.86-7.21-.31-10.52-2.1-3.71-2-5.45-5.06-7.01-7.8-2.46-4.31-1.96-6.09-4.21-10.8-1.7-3.55-3.72-13.36-5.1-14.97v102.49s137.99,0,137.99,0Z"/>
        <g>
          <path class="cls-8" d="M76.73,301.38c-4.46-1.36-9.92-3.12-16.11-5.31-6.49-2.3-10.93-4.08-19.53-7.54-11.26-4.53-16.95-6.84-19.93-8.92-4.51-3.14-5.23-4.76-10.87-8.57-4.95-3.34-9.43-5.52-12.48-6.85v37.19s78.93,0,78.93,0Z"/>
          <path class="cls-9" d="M76.73,301.37c-3.74-.32-8.46-.88-13.68-1.95-2.03-.42-5.83-1.26-10.52-2.68-5.56-1.69-6.45-2.32-17.05-6.6-9.83-3.96-14.8-5.98-17.4-7.8-3.44-2.4-6.39-5.23-6.39-5.23-1.87-1.81-2.95-3.16-3.86-4.2-2-2.29-5.03-5.42-10.04-8.74v37.19c26.31,0,52.62,0,78.93,0Z"/>
        </g>
        <g>
          <path class="cls-16" d="M134.96,108.63c-20.53-10.28-30.79-15.42-36.42-18.06-13.44-6.31-20.15-9.46-21.8-10.15-6.08-2.54-11.59-4.6-19.02-8.78-7.08-3.98-9.77-6.44-11.37-8.1-2.85-2.97-2.85-4.06-5.8-6.64-3.43-3.01-6.86-4.53-11.02-6.34-2.01-.87-6.36-2.31-15.08-5.17-4.46-1.47-7.63-2.48-11.71-4.59-2.12-1.09-3.78-2.12-4.88-2.83,0-12.66,0-25.31,0-37.97C.82,1.27,5.09,3.46,9.12,7.13c1.8,1.63,3.58,3.91,7.07,8.39,5.83,7.48,6.34,8.73,9.51,11.81,4.6,4.48,7.65,5.85,8.58,6.25,3.49,1.49,4.91,1.1,9.05,2.15,7.64,1.93,12.74,5.78,14.61,7.32,3.97,3.27,8.33,6.86,8.35,11.61,0,2.14-.86,3.78,.46,5.76,.87,1.3,2.74,2.84,5.1,3.61,1.53,.5,2.77,.51,4.29,1.56,.51,.35,.63,.53,1.62,1.46,0,0,.87,.81,3.13,2.73,2.46,2.09,7.52,3.16,11.02,4.59,5.26,2.14,8.29,5.62,11.83,9.66,3.95,4.52,3.48,5.91,6.96,8.2,2.71,1.79,5.58,2.64,9.51,3.81,4.84,1.44,5.58,1.05,9.51,2.44,3.21,1.14,5.8,2.05,8.12,4.1,3.15,2.77,2.26,4.5,5.1,7.71,2,2.26,4.45,3.46,9.28,5.76,3.44,1.64,7.95,6.46,14.15,8.24-1.76-.04-4.64-1.48-7.67-2.01-3.59-.63-7.47-2.93-11.76-5.59-2.71-1.68-2.72-2.5-6.73-5.08-2.29-1.47-4.16-2.42-5.28-2.98Z"/>
          <path class="cls-11" d="M134.96,111.51c-20.53-10.28-30.79-15.42-36.42-18.06-13.44-6.31-20.15-9.46-21.8-10.15-6.08-2.54-11.59-4.6-19.02-8.78-7.08-3.98-9.77-6.44-11.37-8.1-2.85-2.97-2.85-4.06-5.8-6.64-3.43-3.01-6.86-4.53-11.02-6.34-2.01-.87-6.36-2.31-15.08-5.17-4.46-1.47-7.63-2.48-11.71-4.59-2.12-1.09-3.78-2.12-4.88-2.83,0-12.66,0-25.31,0-37.97,2.95,1.27,7.23,3.46,11.26,7.13,1.8,1.63,3.58,3.91,7.07,8.39,5.83,7.48,6.34,8.73,9.51,11.81,4.6,4.48,7.65,5.85,8.58,6.25,3.49,1.49,4.91,1.1,9.05,2.15,7.64,1.93,12.74,5.78,14.61,7.32,3.97,3.27,8.33,6.86,8.35,11.61,0,2.14-.86,3.78,.46,5.76,.87,1.3,2.74,2.84,5.1,3.61,1.53,.5,2.77,.51,4.29,1.56,.51,.35,.63,.53,1.62,1.46,0,0,.87,.81,3.13,2.73,2.46,2.09,7.52,3.16,11.02,4.59,5.26,2.14,8.29,5.62,11.83,9.66,3.95,4.52,3.48,5.91,6.96,8.2,2.71,1.79,5.58,2.64,9.51,3.81,4.84,1.44,5.58,1.05,9.51,2.44,3.21,1.14,5.8,2.05,8.12,4.1,3.15,2.77,2.26,4.5,5.1,7.71,2,2.26,4.45,3.46,9.28,5.76,3.44,1.64,8.3,3.68,14.5,5.47-1.76-.04-4.33-.2-7.36-.73-3.59-.63-8.12-1.43-12.41-4.1-2.71-1.68-2.72-2.5-6.73-5.08-2.29-1.47-4.16-2.42-5.28-2.98Z"/>
        </g>
      </g>
    </g>
  </g>
</svg>